%TF.GenerationSoftware,KiCad,Pcbnew,10.0.5*%
%TF.CreationDate,2026-09-24T22:54:21+05:30*%
%TF.ProjectId,Water Level Indicator,57617465-7220-44c6-9576-656c20496e64,rev?*%
%TF.SameCoordinates,Original*%
%TF.FileFunction,Copper,L2,Bot*%
%TF.FilePolarity,Positive*%
%FSLAX46Y46*%
G04 Gerber Fmt 4.6, Leading zero omitted, Abs format (unit mm)*
G04 Created by KiCad (PCBNEW 10.0.5) date 2026-09-24 22:54:21*
%MOMM*%
%LPD*%
G01*
G04 APERTURE LIST*
G04 Aperture macros list*
%AMRoundRect*
0 Rectangle with rounded corners*
0 $1 Rounding radius*
0 $2 $3 $4 $5 $6 $7 $8 $9 X,Y pos of 4 corners*
0 Add a 4 corners polygon primitive as box body*
4,1,4,$2,$3,$4,$5,$6,$7,$8,$9,$2,$3,0*
0 Add four circle primitives for the rounded corners*
1,1,$1+$1,$2,$3*
1,1,$1+$1,$4,$5*
1,1,$1+$1,$6,$7*
1,1,$1+$1,$8,$9*
0 Add four rect primitives between the rounded corners*
20,1,$1+$1,$2,$3,$4,$5,0*
20,1,$1+$1,$4,$5,$6,$7,0*
20,1,$1+$1,$6,$7,$8,$9,0*
20,1,$1+$1,$8,$9,$2,$3,0*%
G04 Aperture macros list end*
%TA.AperFunction,ComponentPad*%
%ADD10RoundRect,0.250001X-1.149999X1.149999X-1.149999X-1.149999X1.149999X-1.149999X1.149999X1.149999X0*%
%TD*%
%TA.AperFunction,ComponentPad*%
%ADD11C,2.800000*%
%TD*%
%TA.AperFunction,ComponentPad*%
%ADD12RoundRect,0.250001X1.149999X-1.149999X1.149999X1.149999X-1.149999X1.149999X-1.149999X-1.149999X0*%
%TD*%
%TA.AperFunction,ComponentPad*%
%ADD13C,2.600000*%
%TD*%
%TA.AperFunction,ComponentPad*%
%ADD14RoundRect,0.250000X1.050000X1.050000X-1.050000X1.050000X-1.050000X-1.050000X1.050000X-1.050000X0*%
%TD*%
%TA.AperFunction,ComponentPad*%
%ADD15RoundRect,0.250000X-1.050000X1.050000X-1.050000X-1.050000X1.050000X-1.050000X1.050000X1.050000X0*%
%TD*%
%TA.AperFunction,ComponentPad*%
%ADD16C,2.000000*%
%TD*%
%TA.AperFunction,ComponentPad*%
%ADD17R,2.000000X2.000000*%
%TD*%
%TA.AperFunction,ComponentPad*%
%ADD18O,1.050000X1.500000*%
%TD*%
%TA.AperFunction,ComponentPad*%
%ADD19R,1.050000X1.500000*%
%TD*%
%TA.AperFunction,ComponentPad*%
%ADD20C,1.400000*%
%TD*%
%TA.AperFunction,ComponentPad*%
%ADD21C,1.800000*%
%TD*%
%TA.AperFunction,ComponentPad*%
%ADD22R,1.800000X1.800000*%
%TD*%
%TA.AperFunction,ComponentPad*%
%ADD23O,1.700000X2.000000*%
%TD*%
%TA.AperFunction,ComponentPad*%
%ADD24RoundRect,0.250000X-0.600000X-0.750000X0.600000X-0.750000X0.600000X0.750000X-0.600000X0.750000X0*%
%TD*%
%TA.AperFunction,ViaPad*%
%ADD25C,0.600000*%
%TD*%
%TA.AperFunction,Conductor*%
%ADD26C,0.500000*%
%TD*%
%TA.AperFunction,Conductor*%
%ADD27C,1.000000*%
%TD*%
%TA.AperFunction,Conductor*%
%ADD28C,2.000000*%
%TD*%
G04 APERTURE END LIST*
D10*
%TO.P,J6,1,Pin_1_1*%
%TO.N,unconnected-(J6-Pin_1-Pad1)*%
X123490000Y-88160000D03*
D11*
%TO.P,J6,2,Pin_2_2*%
%TO.N,Net-(J3-Pin_1)*%
X123490000Y-93160000D03*
%TO.P,J6,3,Pin_3_3*%
%TO.N,unconnected-(J6-Pin_3-Pad3)*%
X123490000Y-98160000D03*
%TO.P,J6,4,Pin_4_4*%
%TO.N,unconnected-(J6-Pin_4-Pad4)*%
X123490000Y-103160000D03*
%TO.P,J6,5,Pin_5_5*%
%TO.N,Net-(J3-Pin_2)*%
X123490000Y-108160000D03*
%TO.P,J6,6,Pin_6_6*%
%TO.N,unconnected-(J6-Pin_6-Pad6)*%
X123490000Y-113160000D03*
%TO.P,J6,7,Pin_7_7*%
%TO.N,unconnected-(J6-Pin_7-Pad7)*%
X123490000Y-118160000D03*
%TO.P,J6,8,Pin_8_8*%
%TO.N,unconnected-(J6-Pin_8-Pad8)*%
X123490000Y-123160000D03*
%TO.P,J6,9,Pin_9_9*%
%TO.N,unconnected-(J6-Pin_9-Pad9)*%
X123490000Y-128160000D03*
%TO.P,J6,10,Pin_10_10*%
%TO.N,unconnected-(J6-Pin_10-Pad10)*%
X123490000Y-133160000D03*
%TO.P,J6,11,Pin_11_11*%
%TO.N,unconnected-(J6-Pin_11-Pad11)*%
X123490000Y-138160000D03*
%TO.P,J6,12,Pin_12_12*%
%TO.N,unconnected-(J6-Pin_12-Pad12)*%
X123490000Y-143160000D03*
%TO.P,J6,13,Pin_13_13*%
%TO.N,unconnected-(J6-Pin_13-Pad13)*%
X123490000Y-148160000D03*
%TO.P,J6,14,Pin_14_14*%
%TO.N,Net-(J3-Pin_4)*%
X123490000Y-153160000D03*
%TO.P,J6,15,Pin_15_15*%
%TO.N,Net-(J3-Pin_3)*%
X123490000Y-158160000D03*
%TD*%
D12*
%TO.P,J5,1,Pin_1_1*%
%TO.N,Net-(BZ1--)*%
X98190000Y-158040000D03*
D11*
%TO.P,J5,2,Pin_2_2*%
%TO.N,Net-(J2-Pin_4)*%
X98190000Y-153040000D03*
%TO.P,J5,3,Pin_3_3*%
%TO.N,Net-(J5-Pin_3)*%
X98190000Y-148040000D03*
%TO.P,J5,4,Pin_4_4*%
%TO.N,Net-(J5-Pin_4)*%
X98190000Y-143040000D03*
%TO.P,J5,5,Pin_5_5*%
%TO.N,Net-(D1-A)*%
X98190000Y-138040000D03*
%TO.P,J5,6,Pin_6_6*%
%TO.N,Net-(J2-Pin_2)*%
X98190000Y-133040000D03*
%TO.P,J5,7,Pin_7_7*%
%TO.N,Net-(J2-Pin_3)*%
X98190000Y-128040000D03*
%TO.P,J5,8,Pin_8_8*%
%TO.N,unconnected-(J5-Pin_8-Pad8)*%
X98190000Y-123040000D03*
%TO.P,J5,9,Pin_9_9*%
%TO.N,unconnected-(J5-Pin_9-Pad9)*%
X98190000Y-118040000D03*
%TO.P,J5,10,Pin_10_10*%
%TO.N,unconnected-(J5-Pin_10-Pad10)*%
X98190000Y-113040000D03*
%TO.P,J5,11,Pin_11_11*%
%TO.N,unconnected-(J5-Pin_11-Pad11)*%
X98190000Y-108040000D03*
%TO.P,J5,12,Pin_12_12*%
%TO.N,unconnected-(J5-Pin_12-Pad12)*%
X98190000Y-103040000D03*
%TO.P,J5,13,Pin_13_13*%
%TO.N,unconnected-(J5-Pin_13-Pad13)*%
X98190000Y-98040000D03*
%TO.P,J5,14,Pin_14_14*%
%TO.N,unconnected-(J5-Pin_14-Pad14)*%
X98190000Y-93040000D03*
%TO.P,J5,15,Pin_15_15*%
%TO.N,unconnected-(J5-Pin_15-Pad15)*%
X98190000Y-88040000D03*
%TD*%
%TO.P,J2,4,Pin_4_4*%
%TO.N,Net-(J2-Pin_4)*%
X148140000Y-72430000D03*
%TO.P,J2,3,Pin_3_3*%
%TO.N,Net-(J2-Pin_3)*%
X148140000Y-67430000D03*
%TO.P,J2,2,Pin_2_2*%
%TO.N,Net-(J2-Pin_2)*%
X148140000Y-62430000D03*
D10*
%TO.P,J2,1,Pin_1_1*%
%TO.N,Net-(BZ1--)*%
X148140000Y-57430000D03*
%TD*%
D11*
%TO.P,J3,4,Pin_4_4*%
%TO.N,Net-(J3-Pin_4)*%
X148500000Y-90970000D03*
%TO.P,J3,3,Pin_3_3*%
%TO.N,Net-(J3-Pin_3)*%
X148500000Y-95970000D03*
%TO.P,J3,2,Pin_2_2*%
%TO.N,Net-(J3-Pin_2)*%
X148500000Y-100970000D03*
D12*
%TO.P,J3,1,Pin_1_1*%
%TO.N,Net-(J3-Pin_1)*%
X148500000Y-105970000D03*
%TD*%
D13*
%TO.P,J8,2,Pin_2_2*%
%TO.N,Net-(BZ1--)*%
X141465000Y-43827500D03*
D14*
%TO.P,J8,1,Pin_1_1*%
%TO.N,Net-(J2-Pin_4)*%
X146545000Y-43827500D03*
%TD*%
D13*
%TO.P,J7,2,Pin_2_2*%
%TO.N,Net-(J7-Pin_2)*%
X82827500Y-54535000D03*
D15*
%TO.P,J7,1,Pin_1_1*%
%TO.N,Net-(J7-Pin_1)*%
X82827500Y-49455000D03*
%TD*%
D16*
%TO.P,BZ1,2,-_2*%
%TO.N,Net-(BZ1--)*%
X91800000Y-71000000D03*
D17*
%TO.P,BZ1,1,+_1*%
%TO.N,Net-(BZ1-+)*%
X84200000Y-71000000D03*
%TD*%
D18*
%TO.P,Q1,3,E_3*%
%TO.N,Net-(J2-Pin_4)*%
X103500000Y-67000000D03*
%TO.P,Q1,2,B_2*%
%TO.N,Net-(Q1-B)*%
X102230000Y-67000000D03*
D19*
%TO.P,Q1,1,C_1*%
%TO.N,Net-(BZ1-+)*%
X100960000Y-67000000D03*
%TD*%
D20*
%TO.P,R1,2*%
%TO.N,Net-(J2-Pin_4)*%
X113540000Y-65850000D03*
%TO.P,R1,1*%
%TO.N,Net-(D1-K)*%
X108460000Y-65850000D03*
%TD*%
%TO.P,R2,2*%
%TO.N,Net-(J5-Pin_3)*%
X113540000Y-69000000D03*
%TO.P,R2,1*%
%TO.N,Net-(Q1-B)*%
X108460000Y-69000000D03*
%TD*%
D16*
%TO.P,SW1,2,2_2*%
%TO.N,Net-(J2-Pin_4)*%
X114000000Y-79000000D03*
X107500000Y-79000000D03*
%TO.P,SW1,1,1_1*%
%TO.N,Net-(J5-Pin_4)*%
X114000000Y-74500000D03*
X107500000Y-74500000D03*
%TD*%
D21*
%TO.P,D1,2,A_2*%
%TO.N,Net-(D1-A)*%
X101500000Y-75000000D03*
D22*
%TO.P,D1,1,K_1*%
%TO.N,Net-(D1-K)*%
X98960000Y-75000000D03*
%TD*%
D23*
%TO.P,U2,4,+Vout_4*%
%TO.N,Net-(J2-Pin_4)*%
X129792500Y-58500000D03*
%TO.P,U2,3,-Vout_3*%
%TO.N,Net-(BZ1--)*%
X129792500Y-43500000D03*
%TO.P,U2,2,AC/N_2*%
%TO.N,Net-(J7-Pin_1)*%
X100712500Y-53500000D03*
D24*
%TO.P,U2,1,AC/L_1*%
%TO.N,Net-(J7-Pin_2)*%
X100712500Y-48500000D03*
%TD*%
D25*
%TO.N,Net-(J2-Pin_2)*%
X108730000Y-149180000D03*
%TO.N,Net-(J2-Pin_3)*%
X104350000Y-91350000D03*
%TD*%
%TO.N,Net-(J2-Pin_2)*%
D26*
X100740000Y-141190000D02*
X108730000Y-149180000D01*
X98723704Y-141190000D02*
X100740000Y-141190000D01*
X96340000Y-138806296D02*
X98723704Y-141190000D01*
X96340000Y-134890000D02*
X96340000Y-138806296D01*
X98190000Y-133040000D02*
X96340000Y-134890000D01*
%TO.N,Net-(J3-Pin_3)*%
X140400000Y-141250000D02*
X123490000Y-158160000D01*
X140400000Y-104070000D02*
X140400000Y-141250000D01*
X148500000Y-95970000D02*
X140400000Y-104070000D01*
%TO.N,Net-(J2-Pin_3)*%
X143436296Y-79750000D02*
X115950000Y-79750000D01*
X115950000Y-79750000D02*
X104350000Y-91350000D01*
X149990000Y-69280000D02*
X149990000Y-73196296D01*
X149990000Y-73196296D02*
X143436296Y-79750000D01*
X148140000Y-67430000D02*
X149990000Y-69280000D01*
%TO.N,Net-(BZ1--)*%
X91800000Y-151650000D02*
X91800000Y-71000000D01*
X98190000Y-158040000D02*
X91800000Y-151650000D01*
%TO.N,Net-(D1-A)*%
X101500000Y-134730000D02*
X98190000Y-138040000D01*
X101500000Y-75000000D02*
X101500000Y-134730000D01*
%TO.N,Net-(Q1-B)*%
X102230000Y-66666142D02*
X102230000Y-67000000D01*
X103096142Y-65800000D02*
X102230000Y-66666142D01*
X105260000Y-65800000D02*
X103096142Y-65800000D01*
X108460000Y-69000000D02*
X105260000Y-65800000D01*
%TO.N,Net-(J2-Pin_4)*%
D27*
X134210000Y-58500000D02*
X148140000Y-72430000D01*
X129792500Y-58500000D02*
X134210000Y-58500000D01*
%TO.N,Net-(BZ1--)*%
X119300000Y-43500000D02*
X129792500Y-43500000D01*
X91800000Y-71000000D02*
X119300000Y-43500000D01*
%TO.N,Net-(J2-Pin_4)*%
X107500000Y-79000000D02*
X103500000Y-75000000D01*
X103500000Y-75000000D02*
X103500000Y-67000000D01*
X107500000Y-79000000D02*
X114000000Y-79000000D01*
X113540000Y-65850000D02*
X122442500Y-65850000D01*
X122442500Y-65850000D02*
X129792500Y-58500000D01*
X131872500Y-58500000D02*
X146545000Y-43827500D01*
X129792500Y-58500000D02*
X131872500Y-58500000D01*
%TO.N,Net-(BZ1--)*%
X141137500Y-43500000D02*
X141465000Y-43827500D01*
X129792500Y-43500000D02*
X141137500Y-43500000D01*
%TO.N,Net-(J7-Pin_2)*%
D28*
X88862500Y-48500000D02*
X100712500Y-48500000D01*
X82827500Y-54535000D02*
X88862500Y-48500000D01*
%TD*%
%TA.AperFunction,Conductor*%
%TO.N,Net-(BZ1-+)*%
G36*
X152722539Y-38930185D02*
G01*
X152768294Y-38982989D01*
X152779500Y-39034500D01*
X152779500Y-161595500D01*
X152759815Y-161662539D01*
X152707011Y-161708294D01*
X152655500Y-161719500D01*
X77374500Y-161719500D01*
X77307461Y-161699815D01*
X77261706Y-161647011D01*
X77250500Y-161595500D01*
X77250500Y-69952155D01*
X82700000Y-69952155D01*
X82700000Y-70750000D01*
X83766988Y-70750000D01*
X83734075Y-70807007D01*
X83700000Y-70934174D01*
X83700000Y-71065826D01*
X83734075Y-71192993D01*
X83766988Y-71250000D01*
X82700000Y-71250000D01*
X82700000Y-72047844D01*
X82706401Y-72107372D01*
X82706403Y-72107379D01*
X82756645Y-72242086D01*
X82756649Y-72242093D01*
X82842809Y-72357187D01*
X82842812Y-72357190D01*
X82957906Y-72443350D01*
X82957913Y-72443354D01*
X83092620Y-72493596D01*
X83092627Y-72493598D01*
X83152155Y-72499999D01*
X83152172Y-72500000D01*
X83950000Y-72500000D01*
X83950000Y-71433012D01*
X84007007Y-71465925D01*
X84134174Y-71500000D01*
X84265826Y-71500000D01*
X84392993Y-71465925D01*
X84450000Y-71433012D01*
X84450000Y-72500000D01*
X85247828Y-72500000D01*
X85247844Y-72499999D01*
X85307372Y-72493598D01*
X85307379Y-72493596D01*
X85442086Y-72443354D01*
X85442093Y-72443350D01*
X85557187Y-72357190D01*
X85557190Y-72357187D01*
X85643350Y-72242093D01*
X85643354Y-72242086D01*
X85693596Y-72107379D01*
X85693598Y-72107372D01*
X85699999Y-72047844D01*
X85700000Y-72047827D01*
X85700000Y-71250000D01*
X84633012Y-71250000D01*
X84665925Y-71192993D01*
X84700000Y-71065826D01*
X84700000Y-70934174D01*
X84685993Y-70881902D01*
X90299500Y-70881902D01*
X90299500Y-71118097D01*
X90336446Y-71351368D01*
X90409433Y-71575996D01*
X90516657Y-71786433D01*
X90655483Y-71977510D01*
X90822490Y-72144517D01*
X90998386Y-72272313D01*
X91041051Y-72327643D01*
X91049500Y-72372631D01*
X91049500Y-151723918D01*
X91049500Y-151723920D01*
X91049499Y-151723920D01*
X91078340Y-151868907D01*
X91078343Y-151868917D01*
X91134912Y-152005488D01*
X91134916Y-152005495D01*
X91156519Y-152037826D01*
X91156520Y-152037829D01*
X91156521Y-152037829D01*
X91217051Y-152128420D01*
X91217052Y-152128421D01*
X96253181Y-157164548D01*
X96286666Y-157225871D01*
X96289500Y-157252229D01*
X96289500Y-159240015D01*
X96300000Y-159342795D01*
X96300001Y-159342796D01*
X96355186Y-159509335D01*
X96355187Y-159509337D01*
X96447286Y-159658651D01*
X96447289Y-159658655D01*
X96571344Y-159782710D01*
X96571348Y-159782713D01*
X96720662Y-159874812D01*
X96720664Y-159874813D01*
X96720666Y-159874814D01*
X96887203Y-159929999D01*
X96989992Y-159940500D01*
X96989997Y-159940500D01*
X99390003Y-159940500D01*
X99390008Y-159940500D01*
X99492797Y-159929999D01*
X99659334Y-159874814D01*
X99808655Y-159782711D01*
X99932711Y-159658655D01*
X100024814Y-159509334D01*
X100079999Y-159342797D01*
X100090500Y-159240008D01*
X100090500Y-158035441D01*
X121589500Y-158035441D01*
X121589500Y-158284558D01*
X121589501Y-158284575D01*
X121622017Y-158531561D01*
X121686498Y-158772207D01*
X121781830Y-159002361D01*
X121781837Y-159002376D01*
X121906400Y-159218126D01*
X122058060Y-159415774D01*
X122058066Y-159415781D01*
X122234218Y-159591933D01*
X122234225Y-159591939D01*
X122431873Y-159743599D01*
X122647623Y-159868162D01*
X122647638Y-159868169D01*
X122663681Y-159874814D01*
X122877793Y-159963502D01*
X123118435Y-160027982D01*
X123365435Y-160060500D01*
X123365442Y-160060500D01*
X123614558Y-160060500D01*
X123614565Y-160060500D01*
X123861565Y-160027982D01*
X124102207Y-159963502D01*
X124332373Y-159868164D01*
X124548127Y-159743599D01*
X124745776Y-159591938D01*
X124921938Y-159415776D01*
X125073599Y-159218127D01*
X125198164Y-159002373D01*
X125293502Y-158772207D01*
X125357982Y-158531565D01*
X125390500Y-158284565D01*
X125390500Y-158035435D01*
X125357982Y-157788435D01*
X125293502Y-157547793D01*
X125287154Y-157532467D01*
X125279685Y-157462998D01*
X125310960Y-157400518D01*
X125314034Y-157397333D01*
X140982948Y-141728419D01*
X140982951Y-141728416D01*
X141065084Y-141605495D01*
X141121658Y-141468913D01*
X141131096Y-141421462D01*
X141150500Y-141323920D01*
X141150500Y-104769984D01*
X146599500Y-104769984D01*
X146599500Y-107170015D01*
X146610000Y-107272795D01*
X146610001Y-107272796D01*
X146665186Y-107439335D01*
X146665187Y-107439337D01*
X146757286Y-107588651D01*
X146757289Y-107588655D01*
X146881344Y-107712710D01*
X146881348Y-107712713D01*
X147030662Y-107804812D01*
X147030664Y-107804813D01*
X147030666Y-107804814D01*
X147197203Y-107859999D01*
X147299992Y-107870500D01*
X147299997Y-107870500D01*
X149700003Y-107870500D01*
X149700008Y-107870500D01*
X149802797Y-107859999D01*
X149969334Y-107804814D01*
X150118655Y-107712711D01*
X150242711Y-107588655D01*
X150334814Y-107439334D01*
X150389999Y-107272797D01*
X150400500Y-107170008D01*
X150400500Y-104769992D01*
X150389999Y-104667203D01*
X150334814Y-104500666D01*
X150317094Y-104471938D01*
X150242713Y-104351348D01*
X150242710Y-104351344D01*
X150118655Y-104227289D01*
X150118651Y-104227286D01*
X149969337Y-104135187D01*
X149969335Y-104135186D01*
X149886065Y-104107593D01*
X149802797Y-104080001D01*
X149802795Y-104080000D01*
X149700015Y-104069500D01*
X149700008Y-104069500D01*
X147299992Y-104069500D01*
X147299984Y-104069500D01*
X147197204Y-104080000D01*
X147197203Y-104080001D01*
X147030664Y-104135186D01*
X147030662Y-104135187D01*
X146881348Y-104227286D01*
X146881344Y-104227289D01*
X146757289Y-104351344D01*
X146757286Y-104351348D01*
X146665187Y-104500662D01*
X146665186Y-104500664D01*
X146610001Y-104667203D01*
X146610000Y-104667204D01*
X146599500Y-104769984D01*
X141150500Y-104769984D01*
X141150500Y-104432229D01*
X141170185Y-104365190D01*
X141186814Y-104344553D01*
X144685925Y-100845441D01*
X146599500Y-100845441D01*
X146599500Y-101094558D01*
X146599501Y-101094575D01*
X146625494Y-101292017D01*
X146632018Y-101341565D01*
X146661565Y-101451836D01*
X146696498Y-101582207D01*
X146791830Y-101812361D01*
X146791837Y-101812376D01*
X146916400Y-102028126D01*
X147068060Y-102225774D01*
X147068066Y-102225781D01*
X147244218Y-102401933D01*
X147244225Y-102401939D01*
X147441873Y-102553599D01*
X147657623Y-102678162D01*
X147657638Y-102678169D01*
X147756825Y-102719253D01*
X147887793Y-102773502D01*
X148128435Y-102837982D01*
X148375435Y-102870500D01*
X148375442Y-102870500D01*
X148624558Y-102870500D01*
X148624565Y-102870500D01*
X148871565Y-102837982D01*
X149112207Y-102773502D01*
X149342373Y-102678164D01*
X149558127Y-102553599D01*
X149755776Y-102401938D01*
X149931938Y-102225776D01*
X150083599Y-102028127D01*
X150208164Y-101812373D01*
X150303502Y-101582207D01*
X150367982Y-101341565D01*
X150400500Y-101094565D01*
X150400500Y-100845435D01*
X150367982Y-100598435D01*
X150303502Y-100357793D01*
X150208164Y-100127627D01*
X150169408Y-100060500D01*
X150083599Y-99911873D01*
X149931939Y-99714225D01*
X149931933Y-99714218D01*
X149755781Y-99538066D01*
X149755774Y-99538060D01*
X149558126Y-99386400D01*
X149342376Y-99261837D01*
X149342361Y-99261830D01*
X149112207Y-99166498D01*
X148871561Y-99102017D01*
X148624575Y-99069501D01*
X148624570Y-99069500D01*
X148624565Y-99069500D01*
X148375435Y-99069500D01*
X148375429Y-99069500D01*
X148375424Y-99069501D01*
X148128438Y-99102017D01*
X147887792Y-99166498D01*
X147657638Y-99261830D01*
X147657623Y-99261837D01*
X147441873Y-99386400D01*
X147244225Y-99538060D01*
X147244218Y-99538066D01*
X147068066Y-99714218D01*
X147068060Y-99714225D01*
X146916400Y-99911873D01*
X146791837Y-100127623D01*
X146791830Y-100127638D01*
X146696498Y-100357792D01*
X146632017Y-100598438D01*
X146599501Y-100845424D01*
X146599500Y-100845441D01*
X144685925Y-100845441D01*
X147737333Y-97794033D01*
X147798656Y-97760549D01*
X147868348Y-97765533D01*
X147872467Y-97767154D01*
X147887788Y-97773500D01*
X147887793Y-97773502D01*
X148128435Y-97837982D01*
X148375435Y-97870500D01*
X148375442Y-97870500D01*
X148624558Y-97870500D01*
X148624565Y-97870500D01*
X148871565Y-97837982D01*
X149112207Y-97773502D01*
X149342373Y-97678164D01*
X149558127Y-97553599D01*
X149755776Y-97401938D01*
X149931938Y-97225776D01*
X150083599Y-97028127D01*
X150208164Y-96812373D01*
X150303502Y-96582207D01*
X150367982Y-96341565D01*
X150400500Y-96094565D01*
X150400500Y-95845435D01*
X150367982Y-95598435D01*
X150303502Y-95357793D01*
X150208164Y-95127627D01*
X150169408Y-95060500D01*
X150083599Y-94911873D01*
X149931939Y-94714225D01*
X149931933Y-94714218D01*
X149755781Y-94538066D01*
X149755774Y-94538060D01*
X149558126Y-94386400D01*
X149342376Y-94261837D01*
X149342361Y-94261830D01*
X149112207Y-94166498D01*
X148871561Y-94102017D01*
X148624575Y-94069501D01*
X148624570Y-94069500D01*
X148624565Y-94069500D01*
X148375435Y-94069500D01*
X148375429Y-94069500D01*
X148375424Y-94069501D01*
X148128438Y-94102017D01*
X147887792Y-94166498D01*
X147657638Y-94261830D01*
X147657623Y-94261837D01*
X147441873Y-94386400D01*
X147244225Y-94538060D01*
X147244218Y-94538066D01*
X147068066Y-94714218D01*
X147068060Y-94714225D01*
X146916400Y-94911873D01*
X146791837Y-95127623D01*
X146791830Y-95127638D01*
X146696498Y-95357792D01*
X146632017Y-95598438D01*
X146599501Y-95845424D01*
X146599500Y-95845441D01*
X146599500Y-96094558D01*
X146599501Y-96094575D01*
X146625494Y-96292017D01*
X146632018Y-96341565D01*
X146694942Y-96576401D01*
X146696499Y-96582209D01*
X146696503Y-96582222D01*
X146702845Y-96597532D01*
X146710314Y-96667001D01*
X146679038Y-96729480D01*
X146675965Y-96732665D01*
X139817049Y-103591581D01*
X139810331Y-103601637D01*
X139810330Y-103601639D01*
X139734913Y-103714508D01*
X139678343Y-103851082D01*
X139678340Y-103851092D01*
X139649500Y-103996079D01*
X139649500Y-140887769D01*
X139629815Y-140954808D01*
X139613181Y-140975450D01*
X124252665Y-156335965D01*
X124191342Y-156369450D01*
X124121650Y-156364466D01*
X124117532Y-156362845D01*
X124102222Y-156356503D01*
X124102209Y-156356499D01*
X124102210Y-156356499D01*
X124102207Y-156356498D01*
X123861565Y-156292018D01*
X123861564Y-156292017D01*
X123861561Y-156292017D01*
X123614575Y-156259501D01*
X123614570Y-156259500D01*
X123614565Y-156259500D01*
X123365435Y-156259500D01*
X123365429Y-156259500D01*
X123365424Y-156259501D01*
X123118438Y-156292017D01*
X122877792Y-156356498D01*
X122647638Y-156451830D01*
X122647623Y-156451837D01*
X122431873Y-156576400D01*
X122234225Y-156728060D01*
X122234218Y-156728066D01*
X122058066Y-156904218D01*
X122058060Y-156904225D01*
X121906400Y-157101873D01*
X121781837Y-157317623D01*
X121781830Y-157317638D01*
X121686498Y-157547792D01*
X121622017Y-157788438D01*
X121589501Y-158035424D01*
X121589500Y-158035441D01*
X100090500Y-158035441D01*
X100090500Y-156839992D01*
X100079999Y-156737203D01*
X100024814Y-156570666D01*
X99932711Y-156421345D01*
X99808655Y-156297289D01*
X99808651Y-156297286D01*
X99659337Y-156205187D01*
X99659335Y-156205186D01*
X99576065Y-156177593D01*
X99492797Y-156150001D01*
X99492795Y-156150000D01*
X99390015Y-156139500D01*
X99390008Y-156139500D01*
X97402229Y-156139500D01*
X97335190Y-156119815D01*
X97314548Y-156103181D01*
X94210425Y-152999057D01*
X94126809Y-152915441D01*
X96289500Y-152915441D01*
X96289500Y-153164558D01*
X96289501Y-153164575D01*
X96322017Y-153411561D01*
X96386498Y-153652207D01*
X96481830Y-153882361D01*
X96481837Y-153882376D01*
X96606400Y-154098126D01*
X96758060Y-154295774D01*
X96758066Y-154295781D01*
X96934218Y-154471933D01*
X96934225Y-154471939D01*
X97131873Y-154623599D01*
X97347623Y-154748162D01*
X97347638Y-154748169D01*
X97446825Y-154789253D01*
X97577793Y-154843502D01*
X97818435Y-154907982D01*
X98065435Y-154940500D01*
X98065442Y-154940500D01*
X98314558Y-154940500D01*
X98314565Y-154940500D01*
X98561565Y-154907982D01*
X98802207Y-154843502D01*
X99032373Y-154748164D01*
X99248127Y-154623599D01*
X99445776Y-154471938D01*
X99621938Y-154295776D01*
X99773599Y-154098127D01*
X99898164Y-153882373D01*
X99993502Y-153652207D01*
X100057982Y-153411565D01*
X100090500Y-153164565D01*
X100090500Y-153035441D01*
X121589500Y-153035441D01*
X121589500Y-153284558D01*
X121589501Y-153284575D01*
X121622017Y-153531561D01*
X121686498Y-153772207D01*
X121781830Y-154002361D01*
X121781837Y-154002376D01*
X121906400Y-154218126D01*
X122058060Y-154415774D01*
X122058066Y-154415781D01*
X122234218Y-154591933D01*
X122234225Y-154591939D01*
X122431873Y-154743599D01*
X122647623Y-154868162D01*
X122647638Y-154868169D01*
X122743756Y-154907982D01*
X122877793Y-154963502D01*
X123118435Y-155027982D01*
X123365435Y-155060500D01*
X123365442Y-155060500D01*
X123614558Y-155060500D01*
X123614565Y-155060500D01*
X123861565Y-155027982D01*
X124102207Y-154963502D01*
X124332373Y-154868164D01*
X124548127Y-154743599D01*
X124745776Y-154591938D01*
X124921938Y-154415776D01*
X125073599Y-154218127D01*
X125198164Y-154002373D01*
X125293502Y-153772207D01*
X125357982Y-153531565D01*
X125390500Y-153284565D01*
X125390500Y-153035435D01*
X125357982Y-152788435D01*
X125293502Y-152547793D01*
X125198164Y-152317627D01*
X125073599Y-152101873D01*
X124921939Y-151904225D01*
X124921933Y-151904218D01*
X124745781Y-151728066D01*
X124745774Y-151728060D01*
X124548126Y-151576400D01*
X124332376Y-151451837D01*
X124332361Y-151451830D01*
X124102207Y-151356498D01*
X123861561Y-151292017D01*
X123614575Y-151259501D01*
X123614570Y-151259500D01*
X123614565Y-151259500D01*
X123365435Y-151259500D01*
X123365429Y-151259500D01*
X123365424Y-151259501D01*
X123118438Y-151292017D01*
X122877792Y-151356498D01*
X122647638Y-151451830D01*
X122647623Y-151451837D01*
X122431873Y-151576400D01*
X122234225Y-151728060D01*
X122234218Y-151728066D01*
X122058066Y-151904218D01*
X122058060Y-151904225D01*
X121906400Y-152101873D01*
X121781837Y-152317623D01*
X121781830Y-152317638D01*
X121686498Y-152547792D01*
X121622017Y-152788438D01*
X121589501Y-153035424D01*
X121589500Y-153035441D01*
X100090500Y-153035441D01*
X100090500Y-152915435D01*
X100057982Y-152668435D01*
X99993502Y-152427793D01*
X99898164Y-152197627D01*
X99773599Y-151981873D01*
X99686922Y-151868913D01*
X99621939Y-151784225D01*
X99621933Y-151784218D01*
X99445781Y-151608066D01*
X99445774Y-151608060D01*
X99248126Y-151456400D01*
X99032376Y-151331837D01*
X99032361Y-151331830D01*
X98802207Y-151236498D01*
X98561561Y-151172017D01*
X98314575Y-151139501D01*
X98314570Y-151139500D01*
X98314565Y-151139500D01*
X98065435Y-151139500D01*
X98065429Y-151139500D01*
X98065424Y-151139501D01*
X97818438Y-151172017D01*
X97577792Y-151236498D01*
X97347638Y-151331830D01*
X97347623Y-151331837D01*
X97131873Y-151456400D01*
X96934225Y-151608060D01*
X96934218Y-151608066D01*
X96758066Y-151784218D01*
X96758060Y-151784225D01*
X96606400Y-151981873D01*
X96481837Y-152197623D01*
X96481830Y-152197638D01*
X96386498Y-152427792D01*
X96322017Y-152668438D01*
X96289501Y-152915424D01*
X96289500Y-152915441D01*
X94126809Y-152915441D01*
X92586819Y-151375451D01*
X92553334Y-151314128D01*
X92550500Y-151287770D01*
X92550500Y-147915441D01*
X96289500Y-147915441D01*
X96289500Y-148164558D01*
X96289501Y-148164575D01*
X96322017Y-148411561D01*
X96386498Y-148652207D01*
X96481830Y-148882361D01*
X96481837Y-148882376D01*
X96606400Y-149098126D01*
X96758060Y-149295774D01*
X96758066Y-149295781D01*
X96934218Y-149471933D01*
X96934225Y-149471939D01*
X97131873Y-149623599D01*
X97347623Y-149748162D01*
X97347638Y-149748169D01*
X97446825Y-149789253D01*
X97577793Y-149843502D01*
X97818435Y-149907982D01*
X98065435Y-149940500D01*
X98065442Y-149940500D01*
X98314558Y-149940500D01*
X98314565Y-149940500D01*
X98561565Y-149907982D01*
X98802207Y-149843502D01*
X99032373Y-149748164D01*
X99248127Y-149623599D01*
X99445776Y-149471938D01*
X99621938Y-149295776D01*
X99773599Y-149098127D01*
X99898164Y-148882373D01*
X99993502Y-148652207D01*
X100057982Y-148411565D01*
X100090500Y-148164565D01*
X100090500Y-147915435D01*
X100057982Y-147668435D01*
X99993502Y-147427793D01*
X99898164Y-147197627D01*
X99773599Y-146981873D01*
X99621938Y-146784224D01*
X99621933Y-146784218D01*
X99445781Y-146608066D01*
X99445774Y-146608060D01*
X99248126Y-146456400D01*
X99032376Y-146331837D01*
X99032361Y-146331830D01*
X98802207Y-146236498D01*
X98561561Y-146172017D01*
X98314575Y-146139501D01*
X98314570Y-146139500D01*
X98314565Y-146139500D01*
X98065435Y-146139500D01*
X98065429Y-146139500D01*
X98065424Y-146139501D01*
X97818438Y-146172017D01*
X97577792Y-146236498D01*
X97347638Y-146331830D01*
X97347623Y-146331837D01*
X97131873Y-146456400D01*
X96934225Y-146608060D01*
X96934218Y-146608066D01*
X96758066Y-146784218D01*
X96758060Y-146784225D01*
X96606400Y-146981873D01*
X96481837Y-147197623D01*
X96481830Y-147197638D01*
X96386498Y-147427792D01*
X96322017Y-147668438D01*
X96289501Y-147915424D01*
X96289500Y-147915441D01*
X92550500Y-147915441D01*
X92550500Y-138880216D01*
X95589499Y-138880216D01*
X95618340Y-139025203D01*
X95618343Y-139025213D01*
X95674913Y-139161786D01*
X95674914Y-139161787D01*
X95674916Y-139161791D01*
X95694098Y-139190498D01*
X95694099Y-139190500D01*
X95757051Y-139284716D01*
X95757052Y-139284717D01*
X97539229Y-141066892D01*
X97572714Y-141128215D01*
X97567730Y-141197906D01*
X97525858Y-141253840D01*
X97499001Y-141269134D01*
X97347633Y-141331832D01*
X97347623Y-141331837D01*
X97131873Y-141456400D01*
X96934225Y-141608060D01*
X96934218Y-141608066D01*
X96758066Y-141784218D01*
X96758060Y-141784225D01*
X96606400Y-141981873D01*
X96481837Y-142197623D01*
X96481830Y-142197638D01*
X96386498Y-142427792D01*
X96322017Y-142668438D01*
X96289501Y-142915424D01*
X96289500Y-142915441D01*
X96289500Y-143164558D01*
X96289501Y-143164575D01*
X96322017Y-143411561D01*
X96386498Y-143652207D01*
X96481830Y-143882361D01*
X96481837Y-143882376D01*
X96606400Y-144098126D01*
X96758060Y-144295774D01*
X96758066Y-144295781D01*
X96934218Y-144471933D01*
X96934225Y-144471939D01*
X97131873Y-144623599D01*
X97347623Y-144748162D01*
X97347638Y-144748169D01*
X97446825Y-144789253D01*
X97577793Y-144843502D01*
X97818435Y-144907982D01*
X98065435Y-144940500D01*
X98065442Y-144940500D01*
X98314558Y-144940500D01*
X98314565Y-144940500D01*
X98561565Y-144907982D01*
X98802207Y-144843502D01*
X99032373Y-144748164D01*
X99248127Y-144623599D01*
X99445776Y-144471938D01*
X99621938Y-144295776D01*
X99773599Y-144098127D01*
X99898164Y-143882373D01*
X99993502Y-143652207D01*
X100057982Y-143411565D01*
X100090500Y-143164565D01*
X100090500Y-142915435D01*
X100057982Y-142668435D01*
X99993502Y-142427793D01*
X99898164Y-142197627D01*
X99857098Y-142126499D01*
X99840626Y-142058600D01*
X99863479Y-141992573D01*
X99918400Y-141949382D01*
X99964486Y-141940500D01*
X100377770Y-141940500D01*
X100444809Y-141960185D01*
X100465451Y-141976819D01*
X107983926Y-149495293D01*
X108010805Y-149535519D01*
X108020603Y-149559172D01*
X108020606Y-149559178D01*
X108020609Y-149559185D01*
X108108210Y-149690288D01*
X108108213Y-149690292D01*
X108219707Y-149801786D01*
X108219711Y-149801789D01*
X108350814Y-149889390D01*
X108350827Y-149889397D01*
X108496498Y-149949735D01*
X108496503Y-149949737D01*
X108651153Y-149980499D01*
X108651156Y-149980500D01*
X108651158Y-149980500D01*
X108808844Y-149980500D01*
X108808845Y-149980499D01*
X108963497Y-149949737D01*
X109109179Y-149889394D01*
X109240289Y-149801789D01*
X109351789Y-149690289D01*
X109439394Y-149559179D01*
X109499737Y-149413497D01*
X109530500Y-149258842D01*
X109530500Y-149101158D01*
X109530500Y-149101155D01*
X109530499Y-149101153D01*
X109499738Y-148946510D01*
X109499737Y-148946503D01*
X109473169Y-148882361D01*
X109439397Y-148800827D01*
X109439390Y-148800814D01*
X109351789Y-148669711D01*
X109351786Y-148669707D01*
X109240292Y-148558213D01*
X109240288Y-148558210D01*
X109109185Y-148470609D01*
X109109180Y-148470607D01*
X109109179Y-148470606D01*
X109085519Y-148460805D01*
X109045293Y-148433926D01*
X108730424Y-148119057D01*
X108646808Y-148035441D01*
X121589500Y-148035441D01*
X121589500Y-148284558D01*
X121589501Y-148284575D01*
X121622017Y-148531561D01*
X121686498Y-148772207D01*
X121781830Y-149002361D01*
X121781837Y-149002376D01*
X121906400Y-149218126D01*
X122058060Y-149415774D01*
X122058066Y-149415781D01*
X122234218Y-149591933D01*
X122234225Y-149591939D01*
X122431873Y-149743599D01*
X122647623Y-149868162D01*
X122647638Y-149868169D01*
X122743756Y-149907982D01*
X122877793Y-149963502D01*
X123118435Y-150027982D01*
X123365435Y-150060500D01*
X123365442Y-150060500D01*
X123614558Y-150060500D01*
X123614565Y-150060500D01*
X123861565Y-150027982D01*
X124102207Y-149963502D01*
X124332373Y-149868164D01*
X124548127Y-149743599D01*
X124745776Y-149591938D01*
X124921938Y-149415776D01*
X125073599Y-149218127D01*
X125198164Y-149002373D01*
X125293502Y-148772207D01*
X125357982Y-148531565D01*
X125390500Y-148284565D01*
X125390500Y-148035435D01*
X125357982Y-147788435D01*
X125293502Y-147547793D01*
X125198164Y-147317627D01*
X125073599Y-147101873D01*
X124921938Y-146904224D01*
X124921933Y-146904218D01*
X124745781Y-146728066D01*
X124745774Y-146728060D01*
X124548126Y-146576400D01*
X124332376Y-146451837D01*
X124332361Y-146451830D01*
X124102207Y-146356498D01*
X123861561Y-146292017D01*
X123614575Y-146259501D01*
X123614570Y-146259500D01*
X123614565Y-146259500D01*
X123365435Y-146259500D01*
X123365429Y-146259500D01*
X123365424Y-146259501D01*
X123118438Y-146292017D01*
X122877792Y-146356498D01*
X122647638Y-146451830D01*
X122647623Y-146451837D01*
X122431873Y-146576400D01*
X122234225Y-146728060D01*
X122234218Y-146728066D01*
X122058066Y-146904218D01*
X122058060Y-146904225D01*
X121906400Y-147101873D01*
X121781837Y-147317623D01*
X121781830Y-147317638D01*
X121686498Y-147547792D01*
X121622017Y-147788438D01*
X121589501Y-148035424D01*
X121589500Y-148035441D01*
X108646808Y-148035441D01*
X103730425Y-143119057D01*
X103646809Y-143035441D01*
X121589500Y-143035441D01*
X121589500Y-143284558D01*
X121589501Y-143284575D01*
X121622017Y-143531561D01*
X121686498Y-143772207D01*
X121781830Y-144002361D01*
X121781837Y-144002376D01*
X121906400Y-144218126D01*
X122058060Y-144415774D01*
X122058066Y-144415781D01*
X122234218Y-144591933D01*
X122234225Y-144591939D01*
X122431873Y-144743599D01*
X122647623Y-144868162D01*
X122647638Y-144868169D01*
X122743756Y-144907982D01*
X122877793Y-144963502D01*
X123118435Y-145027982D01*
X123365435Y-145060500D01*
X123365442Y-145060500D01*
X123614558Y-145060500D01*
X123614565Y-145060500D01*
X123861565Y-145027982D01*
X124102207Y-144963502D01*
X124332373Y-144868164D01*
X124548127Y-144743599D01*
X124745776Y-144591938D01*
X124921938Y-144415776D01*
X125073599Y-144218127D01*
X125198164Y-144002373D01*
X125293502Y-143772207D01*
X125357982Y-143531565D01*
X125390500Y-143284565D01*
X125390500Y-143035435D01*
X125357982Y-142788435D01*
X125293502Y-142547793D01*
X125198164Y-142317627D01*
X125073599Y-142101873D01*
X125040395Y-142058600D01*
X124921939Y-141904225D01*
X124921933Y-141904218D01*
X124745781Y-141728066D01*
X124745774Y-141728060D01*
X124548126Y-141576400D01*
X124332376Y-141451837D01*
X124332361Y-141451830D01*
X124102207Y-141356498D01*
X124010152Y-141331832D01*
X123861565Y-141292018D01*
X123861564Y-141292017D01*
X123861561Y-141292017D01*
X123614575Y-141259501D01*
X123614570Y-141259500D01*
X123614565Y-141259500D01*
X123365435Y-141259500D01*
X123365429Y-141259500D01*
X123365424Y-141259501D01*
X123118438Y-141292017D01*
X122877792Y-141356498D01*
X122647638Y-141451830D01*
X122647623Y-141451837D01*
X122431873Y-141576400D01*
X122234225Y-141728060D01*
X122234218Y-141728066D01*
X122058066Y-141904218D01*
X122058060Y-141904225D01*
X121906400Y-142101873D01*
X121781837Y-142317623D01*
X121781830Y-142317638D01*
X121686498Y-142547792D01*
X121622017Y-142788438D01*
X121589501Y-143035424D01*
X121589500Y-143035441D01*
X103646809Y-143035441D01*
X101218421Y-140607052D01*
X101218414Y-140607046D01*
X101144729Y-140557812D01*
X101144729Y-140557813D01*
X101095491Y-140524913D01*
X100958917Y-140468343D01*
X100958907Y-140468340D01*
X100813920Y-140439500D01*
X100813918Y-140439500D01*
X99085933Y-140439500D01*
X99018894Y-140419815D01*
X98998252Y-140403181D01*
X98667286Y-140072215D01*
X98633801Y-140010892D01*
X98638785Y-139941200D01*
X98680657Y-139885267D01*
X98722872Y-139864759D01*
X98802207Y-139843502D01*
X99032373Y-139748164D01*
X99248127Y-139623599D01*
X99445776Y-139471938D01*
X99621938Y-139295776D01*
X99773599Y-139098127D01*
X99898164Y-138882373D01*
X99993502Y-138652207D01*
X100057982Y-138411565D01*
X100090500Y-138164565D01*
X100090500Y-138035441D01*
X121589500Y-138035441D01*
X121589500Y-138284558D01*
X121589501Y-138284575D01*
X121622017Y-138531561D01*
X121686498Y-138772207D01*
X121781830Y-139002361D01*
X121781837Y-139002376D01*
X121906400Y-139218126D01*
X122058060Y-139415774D01*
X122058066Y-139415781D01*
X122234218Y-139591933D01*
X122234225Y-139591939D01*
X122431873Y-139743599D01*
X122647623Y-139868162D01*
X122647638Y-139868169D01*
X122688917Y-139885267D01*
X122877793Y-139963502D01*
X123118435Y-140027982D01*
X123365435Y-140060500D01*
X123365442Y-140060500D01*
X123614558Y-140060500D01*
X123614565Y-140060500D01*
X123861565Y-140027982D01*
X124102207Y-139963502D01*
X124332373Y-139868164D01*
X124548127Y-139743599D01*
X124745776Y-139591938D01*
X124921938Y-139415776D01*
X125073599Y-139218127D01*
X125198164Y-139002373D01*
X125293502Y-138772207D01*
X125357982Y-138531565D01*
X125390500Y-138284565D01*
X125390500Y-138035435D01*
X125357982Y-137788435D01*
X125293502Y-137547793D01*
X125208673Y-137342998D01*
X125198169Y-137317638D01*
X125198162Y-137317623D01*
X125073599Y-137101873D01*
X124921939Y-136904225D01*
X124921933Y-136904218D01*
X124745781Y-136728066D01*
X124745774Y-136728060D01*
X124548126Y-136576400D01*
X124332376Y-136451837D01*
X124332361Y-136451830D01*
X124102207Y-136356498D01*
X123861561Y-136292017D01*
X123614575Y-136259501D01*
X123614570Y-136259500D01*
X123614565Y-136259500D01*
X123365435Y-136259500D01*
X123365429Y-136259500D01*
X123365424Y-136259501D01*
X123118438Y-136292017D01*
X122877792Y-136356498D01*
X122647638Y-136451830D01*
X122647623Y-136451837D01*
X122431873Y-136576400D01*
X122234225Y-136728060D01*
X122234218Y-136728066D01*
X122058066Y-136904218D01*
X122058060Y-136904225D01*
X121906400Y-137101873D01*
X121781837Y-137317623D01*
X121781830Y-137317638D01*
X121686498Y-137547792D01*
X121622017Y-137788438D01*
X121589501Y-138035424D01*
X121589500Y-138035441D01*
X100090500Y-138035441D01*
X100090500Y-137915435D01*
X100057982Y-137668435D01*
X99993502Y-137427793D01*
X99987154Y-137412467D01*
X99979685Y-137342998D01*
X100010960Y-137280518D01*
X100014034Y-137277333D01*
X101025855Y-136265513D01*
X102082952Y-135208416D01*
X102112263Y-135164548D01*
X102149437Y-135108914D01*
X102158386Y-135095518D01*
X102165084Y-135085495D01*
X102221658Y-134948913D01*
X102231096Y-134901462D01*
X102250500Y-134803920D01*
X102250500Y-133035441D01*
X121589500Y-133035441D01*
X121589500Y-133284558D01*
X121589501Y-133284575D01*
X121622017Y-133531561D01*
X121686498Y-133772207D01*
X121781830Y-134002361D01*
X121781837Y-134002376D01*
X121906400Y-134218126D01*
X122058060Y-134415774D01*
X122058066Y-134415781D01*
X122234218Y-134591933D01*
X122234225Y-134591939D01*
X122431873Y-134743599D01*
X122647623Y-134868162D01*
X122647638Y-134868169D01*
X122743756Y-134907982D01*
X122877793Y-134963502D01*
X123118435Y-135027982D01*
X123365435Y-135060500D01*
X123365442Y-135060500D01*
X123614558Y-135060500D01*
X123614565Y-135060500D01*
X123861565Y-135027982D01*
X124102207Y-134963502D01*
X124332373Y-134868164D01*
X124548127Y-134743599D01*
X124745776Y-134591938D01*
X124921938Y-134415776D01*
X125073599Y-134218127D01*
X125198164Y-134002373D01*
X125293502Y-133772207D01*
X125357982Y-133531565D01*
X125390500Y-133284565D01*
X125390500Y-133035435D01*
X125357982Y-132788435D01*
X125293502Y-132547793D01*
X125198164Y-132317627D01*
X125073599Y-132101873D01*
X124921938Y-131904224D01*
X124921933Y-131904218D01*
X124745781Y-131728066D01*
X124745774Y-131728060D01*
X124548126Y-131576400D01*
X124332376Y-131451837D01*
X124332361Y-131451830D01*
X124102207Y-131356498D01*
X123861561Y-131292017D01*
X123614575Y-131259501D01*
X123614570Y-131259500D01*
X123614565Y-131259500D01*
X123365435Y-131259500D01*
X123365429Y-131259500D01*
X123365424Y-131259501D01*
X123118438Y-131292017D01*
X122877792Y-131356498D01*
X122647638Y-131451830D01*
X122647623Y-131451837D01*
X122431873Y-131576400D01*
X122234225Y-131728060D01*
X122234218Y-131728066D01*
X122058066Y-131904218D01*
X122058060Y-131904225D01*
X121906400Y-132101873D01*
X121781837Y-132317623D01*
X121781830Y-132317638D01*
X121686498Y-132547792D01*
X121622017Y-132788438D01*
X121589501Y-133035424D01*
X121589500Y-133035441D01*
X102250500Y-133035441D01*
X102250500Y-128035441D01*
X121589500Y-128035441D01*
X121589500Y-128284558D01*
X121589501Y-128284575D01*
X121622017Y-128531561D01*
X121686498Y-128772207D01*
X121781830Y-129002361D01*
X121781837Y-129002376D01*
X121906400Y-129218126D01*
X122058060Y-129415774D01*
X122058066Y-129415781D01*
X122234218Y-129591933D01*
X122234225Y-129591939D01*
X122431873Y-129743599D01*
X122647623Y-129868162D01*
X122647638Y-129868169D01*
X122743756Y-129907982D01*
X122877793Y-129963502D01*
X123118435Y-130027982D01*
X123365435Y-130060500D01*
X123365442Y-130060500D01*
X123614558Y-130060500D01*
X123614565Y-130060500D01*
X123861565Y-130027982D01*
X124102207Y-129963502D01*
X124332373Y-129868164D01*
X124548127Y-129743599D01*
X124745776Y-129591938D01*
X124921938Y-129415776D01*
X125073599Y-129218127D01*
X125198164Y-129002373D01*
X125293502Y-128772207D01*
X125357982Y-128531565D01*
X125390500Y-128284565D01*
X125390500Y-128035435D01*
X125357982Y-127788435D01*
X125293502Y-127547793D01*
X125198164Y-127317627D01*
X125073599Y-127101873D01*
X124921938Y-126904224D01*
X124921933Y-126904218D01*
X124745781Y-126728066D01*
X124745774Y-126728060D01*
X124548126Y-126576400D01*
X124332376Y-126451837D01*
X124332361Y-126451830D01*
X124102207Y-126356498D01*
X123861561Y-126292017D01*
X123614575Y-126259501D01*
X123614570Y-126259500D01*
X123614565Y-126259500D01*
X123365435Y-126259500D01*
X123365429Y-126259500D01*
X123365424Y-126259501D01*
X123118438Y-126292017D01*
X122877792Y-126356498D01*
X122647638Y-126451830D01*
X122647623Y-126451837D01*
X122431873Y-126576400D01*
X122234225Y-126728060D01*
X122234218Y-126728066D01*
X122058066Y-126904218D01*
X122058060Y-126904225D01*
X121906400Y-127101873D01*
X121781837Y-127317623D01*
X121781830Y-127317638D01*
X121686498Y-127547792D01*
X121622017Y-127788438D01*
X121589501Y-128035424D01*
X121589500Y-128035441D01*
X102250500Y-128035441D01*
X102250500Y-123035441D01*
X121589500Y-123035441D01*
X121589500Y-123284558D01*
X121589501Y-123284575D01*
X121622017Y-123531561D01*
X121686498Y-123772207D01*
X121781830Y-124002361D01*
X121781837Y-124002376D01*
X121906400Y-124218126D01*
X122058060Y-124415774D01*
X122058066Y-124415781D01*
X122234218Y-124591933D01*
X122234225Y-124591939D01*
X122431873Y-124743599D01*
X122647623Y-124868162D01*
X122647638Y-124868169D01*
X122743756Y-124907982D01*
X122877793Y-124963502D01*
X123118435Y-125027982D01*
X123365435Y-125060500D01*
X123365442Y-125060500D01*
X123614558Y-125060500D01*
X123614565Y-125060500D01*
X123861565Y-125027982D01*
X124102207Y-124963502D01*
X124332373Y-124868164D01*
X124548127Y-124743599D01*
X124745776Y-124591938D01*
X124921938Y-124415776D01*
X125073599Y-124218127D01*
X125198164Y-124002373D01*
X125293502Y-123772207D01*
X125357982Y-123531565D01*
X125390500Y-123284565D01*
X125390500Y-123035435D01*
X125357982Y-122788435D01*
X125293502Y-122547793D01*
X125198164Y-122317627D01*
X125073599Y-122101873D01*
X124921938Y-121904224D01*
X124921933Y-121904218D01*
X124745781Y-121728066D01*
X124745774Y-121728060D01*
X124548126Y-121576400D01*
X124332376Y-121451837D01*
X124332361Y-121451830D01*
X124102207Y-121356498D01*
X123861561Y-121292017D01*
X123614575Y-121259501D01*
X123614570Y-121259500D01*
X123614565Y-121259500D01*
X123365435Y-121259500D01*
X123365429Y-121259500D01*
X123365424Y-121259501D01*
X123118438Y-121292017D01*
X122877792Y-121356498D01*
X122647638Y-121451830D01*
X122647623Y-121451837D01*
X122431873Y-121576400D01*
X122234225Y-121728060D01*
X122234218Y-121728066D01*
X122058066Y-121904218D01*
X122058060Y-121904225D01*
X121906400Y-122101873D01*
X121781837Y-122317623D01*
X121781830Y-122317638D01*
X121686498Y-122547792D01*
X121622017Y-122788438D01*
X121589501Y-123035424D01*
X121589500Y-123035441D01*
X102250500Y-123035441D01*
X102250500Y-118035441D01*
X121589500Y-118035441D01*
X121589500Y-118284558D01*
X121589501Y-118284575D01*
X121622017Y-118531561D01*
X121686498Y-118772207D01*
X121781830Y-119002361D01*
X121781837Y-119002376D01*
X121906400Y-119218126D01*
X122058060Y-119415774D01*
X122058066Y-119415781D01*
X122234218Y-119591933D01*
X122234225Y-119591939D01*
X122431873Y-119743599D01*
X122647623Y-119868162D01*
X122647638Y-119868169D01*
X122743756Y-119907982D01*
X122877793Y-119963502D01*
X123118435Y-120027982D01*
X123365435Y-120060500D01*
X123365442Y-120060500D01*
X123614558Y-120060500D01*
X123614565Y-120060500D01*
X123861565Y-120027982D01*
X124102207Y-119963502D01*
X124332373Y-119868164D01*
X124548127Y-119743599D01*
X124745776Y-119591938D01*
X124921938Y-119415776D01*
X125073599Y-119218127D01*
X125198164Y-119002373D01*
X125293502Y-118772207D01*
X125357982Y-118531565D01*
X125390500Y-118284565D01*
X125390500Y-118035435D01*
X125357982Y-117788435D01*
X125293502Y-117547793D01*
X125198164Y-117317627D01*
X125073599Y-117101873D01*
X124921938Y-116904224D01*
X124921933Y-116904218D01*
X124745781Y-116728066D01*
X124745774Y-116728060D01*
X124548126Y-116576400D01*
X124332376Y-116451837D01*
X124332361Y-116451830D01*
X124102207Y-116356498D01*
X123861561Y-116292017D01*
X123614575Y-116259501D01*
X123614570Y-116259500D01*
X123614565Y-116259500D01*
X123365435Y-116259500D01*
X123365429Y-116259500D01*
X123365424Y-116259501D01*
X123118438Y-116292017D01*
X122877792Y-116356498D01*
X122647638Y-116451830D01*
X122647623Y-116451837D01*
X122431873Y-116576400D01*
X122234225Y-116728060D01*
X122234218Y-116728066D01*
X122058066Y-116904218D01*
X122058060Y-116904225D01*
X121906400Y-117101873D01*
X121781837Y-117317623D01*
X121781830Y-117317638D01*
X121686498Y-117547792D01*
X121622017Y-117788438D01*
X121589501Y-118035424D01*
X121589500Y-118035441D01*
X102250500Y-118035441D01*
X102250500Y-113035441D01*
X121589500Y-113035441D01*
X121589500Y-113284558D01*
X121589501Y-113284575D01*
X121622017Y-113531561D01*
X121686498Y-113772207D01*
X121781830Y-114002361D01*
X121781837Y-114002376D01*
X121906400Y-114218126D01*
X122058060Y-114415774D01*
X122058066Y-114415781D01*
X122234218Y-114591933D01*
X122234225Y-114591939D01*
X122431873Y-114743599D01*
X122647623Y-114868162D01*
X122647638Y-114868169D01*
X122743756Y-114907982D01*
X122877793Y-114963502D01*
X123118435Y-115027982D01*
X123365435Y-115060500D01*
X123365442Y-115060500D01*
X123614558Y-115060500D01*
X123614565Y-115060500D01*
X123861565Y-115027982D01*
X124102207Y-114963502D01*
X124332373Y-114868164D01*
X124548127Y-114743599D01*
X124745776Y-114591938D01*
X124921938Y-114415776D01*
X125073599Y-114218127D01*
X125198164Y-114002373D01*
X125293502Y-113772207D01*
X125357982Y-113531565D01*
X125390500Y-113284565D01*
X125390500Y-113035435D01*
X125357982Y-112788435D01*
X125293502Y-112547793D01*
X125198164Y-112317627D01*
X125073599Y-112101873D01*
X124921938Y-111904224D01*
X124921933Y-111904218D01*
X124745781Y-111728066D01*
X124745774Y-111728060D01*
X124548126Y-111576400D01*
X124332376Y-111451837D01*
X124332361Y-111451830D01*
X124102207Y-111356498D01*
X123861561Y-111292017D01*
X123614575Y-111259501D01*
X123614570Y-111259500D01*
X123614565Y-111259500D01*
X123365435Y-111259500D01*
X123365429Y-111259500D01*
X123365424Y-111259501D01*
X123118438Y-111292017D01*
X122877792Y-111356498D01*
X122647638Y-111451830D01*
X122647623Y-111451837D01*
X122431873Y-111576400D01*
X122234225Y-111728060D01*
X122234218Y-111728066D01*
X122058066Y-111904218D01*
X122058060Y-111904225D01*
X121906400Y-112101873D01*
X121781837Y-112317623D01*
X121781830Y-112317638D01*
X121686498Y-112547792D01*
X121622017Y-112788438D01*
X121589501Y-113035424D01*
X121589500Y-113035441D01*
X102250500Y-113035441D01*
X102250500Y-108035441D01*
X121589500Y-108035441D01*
X121589500Y-108284558D01*
X121589501Y-108284575D01*
X121622017Y-108531561D01*
X121686498Y-108772207D01*
X121781830Y-109002361D01*
X121781837Y-109002376D01*
X121906400Y-109218126D01*
X122058060Y-109415774D01*
X122058066Y-109415781D01*
X122234218Y-109591933D01*
X122234225Y-109591939D01*
X122431873Y-109743599D01*
X122647623Y-109868162D01*
X122647638Y-109868169D01*
X122743756Y-109907982D01*
X122877793Y-109963502D01*
X123118435Y-110027982D01*
X123365435Y-110060500D01*
X123365442Y-110060500D01*
X123614558Y-110060500D01*
X123614565Y-110060500D01*
X123861565Y-110027982D01*
X124102207Y-109963502D01*
X124332373Y-109868164D01*
X124548127Y-109743599D01*
X124745776Y-109591938D01*
X124921938Y-109415776D01*
X125073599Y-109218127D01*
X125198164Y-109002373D01*
X125293502Y-108772207D01*
X125357982Y-108531565D01*
X125390500Y-108284565D01*
X125390500Y-108035435D01*
X125357982Y-107788435D01*
X125293502Y-107547793D01*
X125198164Y-107317627D01*
X125172280Y-107272795D01*
X125073599Y-107101873D01*
X124921939Y-106904225D01*
X124921933Y-106904218D01*
X124745781Y-106728066D01*
X124745774Y-106728060D01*
X124548126Y-106576400D01*
X124332376Y-106451837D01*
X124332361Y-106451830D01*
X124102207Y-106356498D01*
X123861561Y-106292017D01*
X123614575Y-106259501D01*
X123614570Y-106259500D01*
X123614565Y-106259500D01*
X123365435Y-106259500D01*
X123365429Y-106259500D01*
X123365424Y-106259501D01*
X123118438Y-106292017D01*
X122877792Y-106356498D01*
X122647638Y-106451830D01*
X122647623Y-106451837D01*
X122431873Y-106576400D01*
X122234225Y-106728060D01*
X122234218Y-106728066D01*
X122058066Y-106904218D01*
X122058060Y-106904225D01*
X121906400Y-107101873D01*
X121781837Y-107317623D01*
X121781830Y-107317638D01*
X121686498Y-107547792D01*
X121622017Y-107788438D01*
X121589501Y-108035424D01*
X121589500Y-108035441D01*
X102250500Y-108035441D01*
X102250500Y-103035441D01*
X121589500Y-103035441D01*
X121589500Y-103284558D01*
X121589501Y-103284575D01*
X121622017Y-103531561D01*
X121686498Y-103772207D01*
X121781830Y-104002361D01*
X121781837Y-104002376D01*
X121906400Y-104218126D01*
X122058060Y-104415774D01*
X122058066Y-104415781D01*
X122234218Y-104591933D01*
X122234225Y-104591939D01*
X122431873Y-104743599D01*
X122647623Y-104868162D01*
X122647638Y-104868169D01*
X122743756Y-104907982D01*
X122877793Y-104963502D01*
X123118435Y-105027982D01*
X123365435Y-105060500D01*
X123365442Y-105060500D01*
X123614558Y-105060500D01*
X123614565Y-105060500D01*
X123861565Y-105027982D01*
X124102207Y-104963502D01*
X124332373Y-104868164D01*
X124548127Y-104743599D01*
X124745776Y-104591938D01*
X124921938Y-104415776D01*
X125073599Y-104218127D01*
X125198164Y-104002373D01*
X125293502Y-103772207D01*
X125357982Y-103531565D01*
X125390500Y-103284565D01*
X125390500Y-103035435D01*
X125357982Y-102788435D01*
X125293502Y-102547793D01*
X125198164Y-102317627D01*
X125073599Y-102101873D01*
X124921938Y-101904224D01*
X124921933Y-101904218D01*
X124745781Y-101728066D01*
X124745774Y-101728060D01*
X124548126Y-101576400D01*
X124332376Y-101451837D01*
X124332361Y-101451830D01*
X124102207Y-101356498D01*
X124046476Y-101341565D01*
X123861565Y-101292018D01*
X123861564Y-101292017D01*
X123861561Y-101292017D01*
X123614575Y-101259501D01*
X123614570Y-101259500D01*
X123614565Y-101259500D01*
X123365435Y-101259500D01*
X123365429Y-101259500D01*
X123365424Y-101259501D01*
X123118438Y-101292017D01*
X122877792Y-101356498D01*
X122647638Y-101451830D01*
X122647623Y-101451837D01*
X122431873Y-101576400D01*
X122234225Y-101728060D01*
X122234218Y-101728066D01*
X122058066Y-101904218D01*
X122058060Y-101904225D01*
X121906400Y-102101873D01*
X121781837Y-102317623D01*
X121781830Y-102317638D01*
X121686498Y-102547792D01*
X121622017Y-102788438D01*
X121589501Y-103035424D01*
X121589500Y-103035441D01*
X102250500Y-103035441D01*
X102250500Y-98035441D01*
X121589500Y-98035441D01*
X121589500Y-98284558D01*
X121589501Y-98284575D01*
X121622017Y-98531561D01*
X121686498Y-98772207D01*
X121781830Y-99002361D01*
X121781837Y-99002376D01*
X121906400Y-99218126D01*
X122058060Y-99415774D01*
X122058066Y-99415781D01*
X122234218Y-99591933D01*
X122234225Y-99591939D01*
X122431873Y-99743599D01*
X122647623Y-99868162D01*
X122647638Y-99868169D01*
X122743756Y-99907982D01*
X122877793Y-99963502D01*
X123118435Y-100027982D01*
X123365435Y-100060500D01*
X123365442Y-100060500D01*
X123614558Y-100060500D01*
X123614565Y-100060500D01*
X123861565Y-100027982D01*
X124102207Y-99963502D01*
X124332373Y-99868164D01*
X124548127Y-99743599D01*
X124745776Y-99591938D01*
X124921938Y-99415776D01*
X125073599Y-99218127D01*
X125198164Y-99002373D01*
X125293502Y-98772207D01*
X125357982Y-98531565D01*
X125390500Y-98284565D01*
X125390500Y-98035435D01*
X125357982Y-97788435D01*
X125293502Y-97547793D01*
X125198164Y-97317627D01*
X125073599Y-97101873D01*
X124921938Y-96904224D01*
X124921933Y-96904218D01*
X124745781Y-96728066D01*
X124745774Y-96728060D01*
X124548126Y-96576400D01*
X124332376Y-96451837D01*
X124332361Y-96451830D01*
X124102207Y-96356498D01*
X124046476Y-96341565D01*
X123861565Y-96292018D01*
X123861564Y-96292017D01*
X123861561Y-96292017D01*
X123614575Y-96259501D01*
X123614570Y-96259500D01*
X123614565Y-96259500D01*
X123365435Y-96259500D01*
X123365429Y-96259500D01*
X123365424Y-96259501D01*
X123118438Y-96292017D01*
X122877792Y-96356498D01*
X122647638Y-96451830D01*
X122647623Y-96451837D01*
X122431873Y-96576400D01*
X122234225Y-96728060D01*
X122234218Y-96728066D01*
X122058066Y-96904218D01*
X122058060Y-96904225D01*
X121906400Y-97101873D01*
X121781837Y-97317623D01*
X121781830Y-97317638D01*
X121686498Y-97547792D01*
X121622017Y-97788438D01*
X121589501Y-98035424D01*
X121589500Y-98035441D01*
X102250500Y-98035441D01*
X102250500Y-93035441D01*
X121589500Y-93035441D01*
X121589500Y-93284558D01*
X121589501Y-93284575D01*
X121622017Y-93531561D01*
X121686498Y-93772207D01*
X121781830Y-94002361D01*
X121781837Y-94002376D01*
X121906400Y-94218126D01*
X122058060Y-94415774D01*
X122058066Y-94415781D01*
X122234218Y-94591933D01*
X122234225Y-94591939D01*
X122431873Y-94743599D01*
X122647623Y-94868162D01*
X122647638Y-94868169D01*
X122743756Y-94907982D01*
X122877793Y-94963502D01*
X123118435Y-95027982D01*
X123365435Y-95060500D01*
X123365442Y-95060500D01*
X123614558Y-95060500D01*
X123614565Y-95060500D01*
X123861565Y-95027982D01*
X124102207Y-94963502D01*
X124332373Y-94868164D01*
X124548127Y-94743599D01*
X124745776Y-94591938D01*
X124921938Y-94415776D01*
X125073599Y-94218127D01*
X125198164Y-94002373D01*
X125293502Y-93772207D01*
X125357982Y-93531565D01*
X125390500Y-93284565D01*
X125390500Y-93035435D01*
X125357982Y-92788435D01*
X125293502Y-92547793D01*
X125198164Y-92317627D01*
X125073599Y-92101873D01*
X124921938Y-91904224D01*
X124921933Y-91904218D01*
X124745781Y-91728066D01*
X124745774Y-91728060D01*
X124548126Y-91576400D01*
X124332376Y-91451837D01*
X124332361Y-91451830D01*
X124102207Y-91356498D01*
X124046476Y-91341565D01*
X123861565Y-91292018D01*
X123861564Y-91292017D01*
X123861561Y-91292017D01*
X123614575Y-91259501D01*
X123614570Y-91259500D01*
X123614565Y-91259500D01*
X123365435Y-91259500D01*
X123365429Y-91259500D01*
X123365424Y-91259501D01*
X123118438Y-91292017D01*
X122877792Y-91356498D01*
X122647638Y-91451830D01*
X122647623Y-91451837D01*
X122431873Y-91576400D01*
X122234225Y-91728060D01*
X122234218Y-91728066D01*
X122058066Y-91904218D01*
X122058060Y-91904225D01*
X121906400Y-92101873D01*
X121781837Y-92317623D01*
X121781830Y-92317638D01*
X121686498Y-92547792D01*
X121622017Y-92788438D01*
X121589501Y-93035424D01*
X121589500Y-93035441D01*
X102250500Y-93035441D01*
X102250500Y-76249024D01*
X102270185Y-76181985D01*
X102301616Y-76148705D01*
X102310390Y-76142331D01*
X102412365Y-76068242D01*
X102568242Y-75912365D01*
X102663516Y-75781230D01*
X102718843Y-75738565D01*
X102788457Y-75732585D01*
X102850252Y-75765191D01*
X102851514Y-75766435D01*
X102869283Y-75784204D01*
X102869289Y-75784209D01*
X105963181Y-78878101D01*
X105996666Y-78939424D01*
X105999500Y-78965782D01*
X105999500Y-79118097D01*
X106036446Y-79351368D01*
X106109433Y-79575996D01*
X106216657Y-79786433D01*
X106355483Y-79977510D01*
X106522490Y-80144517D01*
X106713567Y-80283343D01*
X106810926Y-80332950D01*
X106924003Y-80390566D01*
X106924005Y-80390566D01*
X106924008Y-80390568D01*
X107044412Y-80429689D01*
X107148631Y-80463553D01*
X107381903Y-80500500D01*
X107381908Y-80500500D01*
X107618097Y-80500500D01*
X107851368Y-80463553D01*
X107851371Y-80463552D01*
X108075992Y-80390568D01*
X108286433Y-80283343D01*
X108477510Y-80144517D01*
X108585208Y-80036819D01*
X108646531Y-80003334D01*
X108672889Y-80000500D01*
X112827111Y-80000500D01*
X112894150Y-80020185D01*
X112914792Y-80036819D01*
X113022490Y-80144517D01*
X113213567Y-80283343D01*
X113310926Y-80332950D01*
X113424003Y-80390566D01*
X113424005Y-80390566D01*
X113424008Y-80390568D01*
X113648632Y-80463553D01*
X113804464Y-80488234D01*
X113862731Y-80497463D01*
X113925866Y-80527392D01*
X113962797Y-80586704D01*
X113961799Y-80656566D01*
X113931014Y-80707617D01*
X104034703Y-90603927D01*
X103994480Y-90630805D01*
X103970819Y-90640606D01*
X103970818Y-90640607D01*
X103839715Y-90728207D01*
X103839707Y-90728213D01*
X103728213Y-90839707D01*
X103728210Y-90839711D01*
X103640609Y-90970814D01*
X103640602Y-90970827D01*
X103580264Y-91116498D01*
X103580261Y-91116510D01*
X103549500Y-91271153D01*
X103549500Y-91428846D01*
X103580261Y-91583489D01*
X103580264Y-91583501D01*
X103640602Y-91729172D01*
X103640609Y-91729185D01*
X103728210Y-91860288D01*
X103728213Y-91860292D01*
X103839707Y-91971786D01*
X103839711Y-91971789D01*
X103970814Y-92059390D01*
X103970827Y-92059397D01*
X104073375Y-92101873D01*
X104116503Y-92119737D01*
X104271153Y-92150499D01*
X104271156Y-92150500D01*
X104271158Y-92150500D01*
X104428844Y-92150500D01*
X104428845Y-92150499D01*
X104583497Y-92119737D01*
X104729179Y-92059394D01*
X104860289Y-91971789D01*
X104971789Y-91860289D01*
X105059394Y-91729179D01*
X105069191Y-91705524D01*
X105096069Y-91665297D01*
X105915925Y-90845441D01*
X146599500Y-90845441D01*
X146599500Y-91094558D01*
X146599501Y-91094575D01*
X146625494Y-91292017D01*
X146632018Y-91341565D01*
X146661565Y-91451836D01*
X146696498Y-91582207D01*
X146791830Y-91812361D01*
X146791837Y-91812376D01*
X146916400Y-92028126D01*
X147068060Y-92225774D01*
X147068066Y-92225781D01*
X147244218Y-92401933D01*
X147244225Y-92401939D01*
X147441873Y-92553599D01*
X147657623Y-92678162D01*
X147657638Y-92678169D01*
X147756825Y-92719253D01*
X147887793Y-92773502D01*
X148128435Y-92837982D01*
X148375435Y-92870500D01*
X148375442Y-92870500D01*
X148624558Y-92870500D01*
X148624565Y-92870500D01*
X148871565Y-92837982D01*
X149112207Y-92773502D01*
X149342373Y-92678164D01*
X149558127Y-92553599D01*
X149755776Y-92401938D01*
X149931938Y-92225776D01*
X150083599Y-92028127D01*
X150208164Y-91812373D01*
X150303502Y-91582207D01*
X150367982Y-91341565D01*
X150400500Y-91094565D01*
X150400500Y-90845435D01*
X150367982Y-90598435D01*
X150303502Y-90357793D01*
X150208164Y-90127627D01*
X150169408Y-90060500D01*
X150083599Y-89911873D01*
X149931939Y-89714225D01*
X149931933Y-89714218D01*
X149755781Y-89538066D01*
X149755774Y-89538060D01*
X149558126Y-89386400D01*
X149342376Y-89261837D01*
X149342361Y-89261830D01*
X149112207Y-89166498D01*
X148871561Y-89102017D01*
X148624575Y-89069501D01*
X148624570Y-89069500D01*
X148624565Y-89069500D01*
X148375435Y-89069500D01*
X148375429Y-89069500D01*
X148375424Y-89069501D01*
X148128438Y-89102017D01*
X147887792Y-89166498D01*
X147657638Y-89261830D01*
X147657623Y-89261837D01*
X147441873Y-89386400D01*
X147244225Y-89538060D01*
X147244218Y-89538066D01*
X147068066Y-89714218D01*
X147068060Y-89714225D01*
X146916400Y-89911873D01*
X146791837Y-90127623D01*
X146791830Y-90127638D01*
X146696498Y-90357792D01*
X146632017Y-90598438D01*
X146599501Y-90845424D01*
X146599500Y-90845441D01*
X105915925Y-90845441D01*
X109801382Y-86959984D01*
X121589500Y-86959984D01*
X121589500Y-89360015D01*
X121600000Y-89462795D01*
X121600001Y-89462797D01*
X121624941Y-89538060D01*
X121655186Y-89629335D01*
X121655187Y-89629337D01*
X121747286Y-89778651D01*
X121747289Y-89778655D01*
X121871344Y-89902710D01*
X121871348Y-89902713D01*
X122020662Y-89994812D01*
X122020664Y-89994813D01*
X122020666Y-89994814D01*
X122187203Y-90049999D01*
X122289992Y-90060500D01*
X122289997Y-90060500D01*
X124690003Y-90060500D01*
X124690008Y-90060500D01*
X124792797Y-90049999D01*
X124959334Y-89994814D01*
X125108655Y-89902711D01*
X125232711Y-89778655D01*
X125324814Y-89629334D01*
X125379999Y-89462797D01*
X125390500Y-89360008D01*
X125390500Y-86959992D01*
X125379999Y-86857203D01*
X125324814Y-86690666D01*
X125273865Y-86608066D01*
X125232713Y-86541348D01*
X125232710Y-86541344D01*
X125108655Y-86417289D01*
X125108651Y-86417286D01*
X124959337Y-86325187D01*
X124959335Y-86325186D01*
X124876065Y-86297593D01*
X124792797Y-86270001D01*
X124792795Y-86270000D01*
X124690015Y-86259500D01*
X124690008Y-86259500D01*
X122289992Y-86259500D01*
X122289984Y-86259500D01*
X122187204Y-86270000D01*
X122187203Y-86270001D01*
X122020664Y-86325186D01*
X122020662Y-86325187D01*
X121871348Y-86417286D01*
X121871344Y-86417289D01*
X121747289Y-86541344D01*
X121747286Y-86541348D01*
X121655187Y-86690662D01*
X121655186Y-86690664D01*
X121600001Y-86857203D01*
X121600000Y-86857204D01*
X121589500Y-86959984D01*
X109801382Y-86959984D01*
X116224548Y-80536819D01*
X116285871Y-80503334D01*
X116312229Y-80500500D01*
X143510216Y-80500500D01*
X143607758Y-80481096D01*
X143655209Y-80471658D01*
X143791791Y-80415084D01*
X143841025Y-80382186D01*
X143914712Y-80332952D01*
X150572952Y-73674712D01*
X150635901Y-73580500D01*
X150655084Y-73551791D01*
X150711658Y-73415209D01*
X150740500Y-73270214D01*
X150740500Y-69206082D01*
X150740500Y-69206079D01*
X150711659Y-69061092D01*
X150711658Y-69061091D01*
X150711658Y-69061087D01*
X150691988Y-69013599D01*
X150655087Y-68924511D01*
X150655080Y-68924498D01*
X150572952Y-68801585D01*
X150572951Y-68801584D01*
X150468416Y-68697049D01*
X149964033Y-68192665D01*
X149930548Y-68131342D01*
X149935532Y-68061650D01*
X149937136Y-68057574D01*
X149943502Y-68042207D01*
X150007982Y-67801565D01*
X150040500Y-67554565D01*
X150040500Y-67305435D01*
X150007982Y-67058435D01*
X149943502Y-66817793D01*
X149866574Y-66632073D01*
X149848169Y-66587638D01*
X149848162Y-66587623D01*
X149723599Y-66371873D01*
X149571939Y-66174225D01*
X149571933Y-66174218D01*
X149395781Y-65998066D01*
X149395774Y-65998060D01*
X149198126Y-65846400D01*
X148982376Y-65721837D01*
X148982361Y-65721830D01*
X148752207Y-65626498D01*
X148511565Y-65562018D01*
X148511564Y-65562017D01*
X148511561Y-65562017D01*
X148264575Y-65529501D01*
X148264570Y-65529500D01*
X148264565Y-65529500D01*
X148015435Y-65529500D01*
X148015429Y-65529500D01*
X148015424Y-65529501D01*
X147768438Y-65562017D01*
X147527792Y-65626498D01*
X147297638Y-65721830D01*
X147297623Y-65721837D01*
X147081873Y-65846400D01*
X146884225Y-65998060D01*
X146884218Y-65998066D01*
X146708066Y-66174218D01*
X146708060Y-66174225D01*
X146556400Y-66371873D01*
X146431837Y-66587623D01*
X146431830Y-66587638D01*
X146336498Y-66817792D01*
X146272017Y-67058438D01*
X146239501Y-67305424D01*
X146239500Y-67305441D01*
X146239500Y-67554558D01*
X146239501Y-67554575D01*
X146269154Y-67779815D01*
X146272018Y-67801565D01*
X146286973Y-67857379D01*
X146336498Y-68042207D01*
X146431830Y-68272361D01*
X146431837Y-68272376D01*
X146556400Y-68488126D01*
X146708060Y-68685774D01*
X146708066Y-68685781D01*
X146884218Y-68861933D01*
X146884225Y-68861939D01*
X147081873Y-69013599D01*
X147297623Y-69138162D01*
X147297638Y-69138169D01*
X147396825Y-69179253D01*
X147527793Y-69233502D01*
X147768435Y-69297982D01*
X148015435Y-69330500D01*
X148015442Y-69330500D01*
X148264558Y-69330500D01*
X148264565Y-69330500D01*
X148511565Y-69297982D01*
X148752207Y-69233502D01*
X148767530Y-69227154D01*
X148836997Y-69219683D01*
X148899477Y-69250956D01*
X148902641Y-69254009D01*
X149109465Y-69460832D01*
X149203181Y-69554548D01*
X149236666Y-69615871D01*
X149239500Y-69642229D01*
X149239500Y-70655513D01*
X149219815Y-70722552D01*
X149167011Y-70768307D01*
X149097853Y-70778251D01*
X149053501Y-70762901D01*
X148982371Y-70721835D01*
X148982361Y-70721830D01*
X148752207Y-70626498D01*
X148513427Y-70562517D01*
X148511565Y-70562018D01*
X148511564Y-70562017D01*
X148511561Y-70562017D01*
X148264575Y-70529501D01*
X148264570Y-70529500D01*
X148264565Y-70529500D01*
X148015435Y-70529500D01*
X148015429Y-70529500D01*
X148015424Y-70529501D01*
X147768427Y-70562019D01*
X147765450Y-70562611D01*
X147764546Y-70562530D01*
X147764410Y-70562548D01*
X147764405Y-70562517D01*
X147695859Y-70556376D01*
X147653592Y-70528672D01*
X139430361Y-62305441D01*
X146239500Y-62305441D01*
X146239500Y-62554558D01*
X146239501Y-62554575D01*
X146272017Y-62801561D01*
X146336498Y-63042207D01*
X146431830Y-63272361D01*
X146431837Y-63272376D01*
X146556400Y-63488126D01*
X146708060Y-63685774D01*
X146708066Y-63685781D01*
X146884218Y-63861933D01*
X146884225Y-63861939D01*
X147081873Y-64013599D01*
X147297623Y-64138162D01*
X147297638Y-64138169D01*
X147396825Y-64179253D01*
X147527793Y-64233502D01*
X147768435Y-64297982D01*
X148015435Y-64330500D01*
X148015442Y-64330500D01*
X148264558Y-64330500D01*
X148264565Y-64330500D01*
X148511565Y-64297982D01*
X148752207Y-64233502D01*
X148982373Y-64138164D01*
X149198127Y-64013599D01*
X149395776Y-63861938D01*
X149571938Y-63685776D01*
X149723599Y-63488127D01*
X149848164Y-63272373D01*
X149943502Y-63042207D01*
X150007982Y-62801565D01*
X150040500Y-62554565D01*
X150040500Y-62305435D01*
X150007982Y-62058435D01*
X149943502Y-61817793D01*
X149848164Y-61587627D01*
X149723599Y-61371873D01*
X149571938Y-61174224D01*
X149571933Y-61174218D01*
X149395781Y-60998066D01*
X149395774Y-60998060D01*
X149198126Y-60846400D01*
X148982376Y-60721837D01*
X148982361Y-60721830D01*
X148752207Y-60626498D01*
X148511561Y-60562017D01*
X148264575Y-60529501D01*
X148264570Y-60529500D01*
X148264565Y-60529500D01*
X148015435Y-60529500D01*
X148015429Y-60529500D01*
X148015424Y-60529501D01*
X147768438Y-60562017D01*
X147527792Y-60626498D01*
X147297638Y-60721830D01*
X147297623Y-60721837D01*
X147081873Y-60846400D01*
X146884225Y-60998060D01*
X146884218Y-60998066D01*
X146708066Y-61174218D01*
X146708060Y-61174225D01*
X146556400Y-61371873D01*
X146431837Y-61587623D01*
X146431830Y-61587638D01*
X146336498Y-61817792D01*
X146272017Y-62058438D01*
X146239501Y-62305424D01*
X146239500Y-62305441D01*
X139430361Y-62305441D01*
X134991479Y-57866559D01*
X134991459Y-57866537D01*
X134847785Y-57722863D01*
X134847781Y-57722860D01*
X134683920Y-57613371D01*
X134683911Y-57613366D01*
X134611315Y-57583296D01*
X134555165Y-57560038D01*
X134501836Y-57537949D01*
X134501832Y-57537948D01*
X134496209Y-57535619D01*
X134497146Y-57533356D01*
X134447715Y-57500938D01*
X134419279Y-57437117D01*
X134429862Y-57368053D01*
X134454491Y-57332928D01*
X135557435Y-56229984D01*
X146239500Y-56229984D01*
X146239500Y-58630015D01*
X146250000Y-58732795D01*
X146250001Y-58732796D01*
X146305186Y-58899335D01*
X146305187Y-58899337D01*
X146397286Y-59048651D01*
X146397289Y-59048655D01*
X146521344Y-59172710D01*
X146521348Y-59172713D01*
X146670662Y-59264812D01*
X146670664Y-59264813D01*
X146670666Y-59264814D01*
X146837203Y-59319999D01*
X146939992Y-59330500D01*
X146939997Y-59330500D01*
X149340003Y-59330500D01*
X149340008Y-59330500D01*
X149442797Y-59319999D01*
X149609334Y-59264814D01*
X149758655Y-59172711D01*
X149882711Y-59048655D01*
X149974814Y-58899334D01*
X150029999Y-58732797D01*
X150040500Y-58630008D01*
X150040500Y-56229992D01*
X150029999Y-56127203D01*
X149974814Y-55960666D01*
X149932208Y-55891592D01*
X149882713Y-55811348D01*
X149882710Y-55811344D01*
X149758655Y-55687289D01*
X149758651Y-55687286D01*
X149609337Y-55595187D01*
X149609335Y-55595186D01*
X149526065Y-55567593D01*
X149442797Y-55540001D01*
X149442795Y-55540000D01*
X149340015Y-55529500D01*
X149340008Y-55529500D01*
X146939992Y-55529500D01*
X146939984Y-55529500D01*
X146837204Y-55540000D01*
X146837203Y-55540001D01*
X146670664Y-55595186D01*
X146670662Y-55595187D01*
X146521348Y-55687286D01*
X146521344Y-55687289D01*
X146397289Y-55811344D01*
X146397286Y-55811348D01*
X146305187Y-55960662D01*
X146305186Y-55960664D01*
X146250001Y-56127203D01*
X146250000Y-56127204D01*
X146239500Y-56229984D01*
X135557435Y-56229984D01*
X146123102Y-45664318D01*
X146184425Y-45630833D01*
X146210783Y-45627999D01*
X147645002Y-45627999D01*
X147645008Y-45627999D01*
X147747797Y-45617499D01*
X147914334Y-45562314D01*
X148063656Y-45470212D01*
X148187712Y-45346156D01*
X148279814Y-45196834D01*
X148334999Y-45030297D01*
X148345500Y-44927509D01*
X148345499Y-42727492D01*
X148334999Y-42624703D01*
X148279814Y-42458166D01*
X148187712Y-42308844D01*
X148063656Y-42184788D01*
X147956824Y-42118894D01*
X147914336Y-42092687D01*
X147914331Y-42092685D01*
X147912862Y-42092198D01*
X147747797Y-42037501D01*
X147747795Y-42037500D01*
X147645010Y-42027000D01*
X145444998Y-42027000D01*
X145444981Y-42027001D01*
X145342203Y-42037500D01*
X145342200Y-42037501D01*
X145175668Y-42092685D01*
X145175663Y-42092687D01*
X145026342Y-42184789D01*
X144902289Y-42308842D01*
X144810187Y-42458163D01*
X144810185Y-42458168D01*
X144796489Y-42499500D01*
X144755001Y-42624703D01*
X144755001Y-42624704D01*
X144755000Y-42624704D01*
X144744500Y-42727483D01*
X144744500Y-44161716D01*
X144724815Y-44228755D01*
X144708180Y-44249397D01*
X134789166Y-54168414D01*
X131494399Y-57463181D01*
X131433076Y-57496666D01*
X131406718Y-57499500D01*
X130903258Y-57499500D01*
X130836219Y-57479815D01*
X130815577Y-57463181D01*
X130672286Y-57319890D01*
X130500320Y-57194951D01*
X130310914Y-57098444D01*
X130310913Y-57098443D01*
X130310912Y-57098443D01*
X130108743Y-57032754D01*
X130108741Y-57032753D01*
X130108740Y-57032753D01*
X129947457Y-57007208D01*
X129898787Y-56999500D01*
X129686213Y-56999500D01*
X129637542Y-57007208D01*
X129476260Y-57032753D01*
X129274085Y-57098444D01*
X129084679Y-57194951D01*
X128912713Y-57319890D01*
X128762390Y-57470213D01*
X128637451Y-57642179D01*
X128540944Y-57831585D01*
X128475253Y-58033760D01*
X128442000Y-58243713D01*
X128442000Y-58384217D01*
X128422315Y-58451256D01*
X128405681Y-58471898D01*
X122064399Y-64813181D01*
X122003076Y-64846666D01*
X121976718Y-64849500D01*
X114245633Y-64849500D01*
X114178594Y-64829815D01*
X114172746Y-64825817D01*
X114169200Y-64823240D01*
X114000836Y-64737454D01*
X113821118Y-64679059D01*
X113634486Y-64649500D01*
X113634481Y-64649500D01*
X113445519Y-64649500D01*
X113445514Y-64649500D01*
X113258881Y-64679059D01*
X113079163Y-64737454D01*
X112910800Y-64823240D01*
X112874657Y-64849500D01*
X112757927Y-64934310D01*
X112757925Y-64934312D01*
X112757924Y-64934312D01*
X112624312Y-65067924D01*
X112624312Y-65067925D01*
X112624310Y-65067927D01*
X112576610Y-65133579D01*
X112513240Y-65220800D01*
X112427454Y-65389163D01*
X112369059Y-65568881D01*
X112339500Y-65755513D01*
X112339500Y-65944486D01*
X112369059Y-66131118D01*
X112427454Y-66310836D01*
X112511545Y-66475873D01*
X112513240Y-66479199D01*
X112624310Y-66632073D01*
X112757927Y-66765690D01*
X112910801Y-66876760D01*
X112990347Y-66917290D01*
X113079163Y-66962545D01*
X113079165Y-66962545D01*
X113079168Y-66962547D01*
X113175497Y-66993846D01*
X113258881Y-67020940D01*
X113445514Y-67050500D01*
X113445519Y-67050500D01*
X113634486Y-67050500D01*
X113821118Y-67020940D01*
X114000832Y-66962547D01*
X114169199Y-66876760D01*
X114172746Y-66874183D01*
X114238552Y-66850702D01*
X114245633Y-66850500D01*
X122541043Y-66850500D01*
X122619781Y-66834837D01*
X122659152Y-66827006D01*
X122734336Y-66812051D01*
X122787665Y-66789961D01*
X122916414Y-66736632D01*
X123080282Y-66627139D01*
X123219639Y-66487782D01*
X123219639Y-66487780D01*
X123229847Y-66477573D01*
X123229848Y-66477570D01*
X129670602Y-60036819D01*
X129731925Y-60003334D01*
X129758283Y-60000500D01*
X129898786Y-60000500D01*
X129898787Y-60000500D01*
X130108743Y-59967246D01*
X130310912Y-59901557D01*
X130500316Y-59805051D01*
X130522289Y-59789086D01*
X130672286Y-59680109D01*
X130672288Y-59680106D01*
X130672292Y-59680104D01*
X130815577Y-59536819D01*
X130876900Y-59503334D01*
X130903258Y-59500500D01*
X131773960Y-59500500D01*
X131971040Y-59500500D01*
X131971041Y-59500500D01*
X133744218Y-59500500D01*
X133811257Y-59520185D01*
X133831899Y-59536819D01*
X146238672Y-71943592D01*
X146272157Y-72004915D01*
X146272611Y-72055450D01*
X146272019Y-72058427D01*
X146239501Y-72305424D01*
X146239500Y-72305441D01*
X146239500Y-72554558D01*
X146239501Y-72554575D01*
X146272017Y-72801561D01*
X146336498Y-73042207D01*
X146431830Y-73272361D01*
X146431837Y-73272376D01*
X146556400Y-73488126D01*
X146708060Y-73685774D01*
X146708066Y-73685781D01*
X146884218Y-73861933D01*
X146884225Y-73861939D01*
X147081873Y-74013599D01*
X147297623Y-74138162D01*
X147297638Y-74138169D01*
X147412425Y-74185715D01*
X147527793Y-74233502D01*
X147607126Y-74254759D01*
X147666784Y-74291123D01*
X147697314Y-74353969D01*
X147689020Y-74423345D01*
X147662712Y-74462214D01*
X143161747Y-78963181D01*
X143100424Y-78996666D01*
X143074066Y-78999500D01*
X115876080Y-78999500D01*
X115731092Y-79028340D01*
X115731082Y-79028343D01*
X115671952Y-79052836D01*
X115602483Y-79060305D01*
X115540004Y-79029030D01*
X115504352Y-78968941D01*
X115500500Y-78938275D01*
X115500500Y-78881902D01*
X115463553Y-78648631D01*
X115390566Y-78424003D01*
X115283342Y-78213566D01*
X115144517Y-78022490D01*
X114977510Y-77855483D01*
X114786433Y-77716657D01*
X114575996Y-77609433D01*
X114351368Y-77536446D01*
X114118097Y-77499500D01*
X114118092Y-77499500D01*
X113881908Y-77499500D01*
X113881903Y-77499500D01*
X113648631Y-77536446D01*
X113424003Y-77609433D01*
X113213566Y-77716657D01*
X113104550Y-77795862D01*
X113022490Y-77855483D01*
X113022488Y-77855485D01*
X113022487Y-77855485D01*
X112914792Y-77963181D01*
X112853469Y-77996666D01*
X112827111Y-77999500D01*
X108672889Y-77999500D01*
X108605850Y-77979815D01*
X108585208Y-77963181D01*
X108477512Y-77855485D01*
X108477510Y-77855483D01*
X108286433Y-77716657D01*
X108075996Y-77609433D01*
X107851368Y-77536446D01*
X107618097Y-77499500D01*
X107618092Y-77499500D01*
X107465783Y-77499500D01*
X107398744Y-77479815D01*
X107378102Y-77463181D01*
X104536819Y-74621898D01*
X104522115Y-74594970D01*
X104505523Y-74569152D01*
X104504631Y-74562951D01*
X104503334Y-74560575D01*
X104500500Y-74534217D01*
X104500500Y-74381902D01*
X105999500Y-74381902D01*
X105999500Y-74618097D01*
X106036446Y-74851368D01*
X106109433Y-75075996D01*
X106216657Y-75286433D01*
X106355483Y-75477510D01*
X106522490Y-75644517D01*
X106713567Y-75783343D01*
X106774296Y-75814286D01*
X106924003Y-75890566D01*
X106924005Y-75890566D01*
X106924008Y-75890568D01*
X107044412Y-75929689D01*
X107148631Y-75963553D01*
X107381903Y-76000500D01*
X107381908Y-76000500D01*
X107618097Y-76000500D01*
X107851368Y-75963553D01*
X108075992Y-75890568D01*
X108286433Y-75783343D01*
X108477510Y-75644517D01*
X108644517Y-75477510D01*
X108783343Y-75286433D01*
X108890568Y-75075992D01*
X108963553Y-74851368D01*
X109000500Y-74618097D01*
X109000500Y-74381902D01*
X112499500Y-74381902D01*
X112499500Y-74618097D01*
X112536446Y-74851368D01*
X112609433Y-75075996D01*
X112716657Y-75286433D01*
X112855483Y-75477510D01*
X113022490Y-75644517D01*
X113213567Y-75783343D01*
X113274296Y-75814286D01*
X113424003Y-75890566D01*
X113424005Y-75890566D01*
X113424008Y-75890568D01*
X113544412Y-75929689D01*
X113648631Y-75963553D01*
X113881903Y-76000500D01*
X113881908Y-76000500D01*
X114118097Y-76000500D01*
X114351368Y-75963553D01*
X114575992Y-75890568D01*
X114786433Y-75783343D01*
X114977510Y-75644517D01*
X115144517Y-75477510D01*
X115283343Y-75286433D01*
X115390568Y-75075992D01*
X115463553Y-74851368D01*
X115500500Y-74618097D01*
X115500500Y-74381902D01*
X115463553Y-74148631D01*
X115405043Y-73968557D01*
X115390568Y-73924008D01*
X115390566Y-73924005D01*
X115390566Y-73924003D01*
X115298062Y-73742455D01*
X115283343Y-73713567D01*
X115144517Y-73522490D01*
X114977510Y-73355483D01*
X114786433Y-73216657D01*
X114575996Y-73109433D01*
X114351368Y-73036446D01*
X114118097Y-72999500D01*
X114118092Y-72999500D01*
X113881908Y-72999500D01*
X113881903Y-72999500D01*
X113648631Y-73036446D01*
X113424003Y-73109433D01*
X113213566Y-73216657D01*
X113104550Y-73295862D01*
X113022490Y-73355483D01*
X113022488Y-73355485D01*
X113022487Y-73355485D01*
X112855485Y-73522487D01*
X112855485Y-73522488D01*
X112855483Y-73522490D01*
X112834198Y-73551786D01*
X112716657Y-73713566D01*
X112609433Y-73924003D01*
X112536446Y-74148631D01*
X112499500Y-74381902D01*
X109000500Y-74381902D01*
X108963553Y-74148631D01*
X108905043Y-73968557D01*
X108890568Y-73924008D01*
X108890566Y-73924005D01*
X108890566Y-73924003D01*
X108798062Y-73742455D01*
X108783343Y-73713567D01*
X108644517Y-73522490D01*
X108477510Y-73355483D01*
X108286433Y-73216657D01*
X108075996Y-73109433D01*
X107851368Y-73036446D01*
X107618097Y-72999500D01*
X107618092Y-72999500D01*
X107381908Y-72999500D01*
X107381903Y-72999500D01*
X107148631Y-73036446D01*
X106924003Y-73109433D01*
X106713566Y-73216657D01*
X106604550Y-73295862D01*
X106522490Y-73355483D01*
X106522488Y-73355485D01*
X106522487Y-73355485D01*
X106355485Y-73522487D01*
X106355485Y-73522488D01*
X106355483Y-73522490D01*
X106334198Y-73551786D01*
X106216657Y-73713566D01*
X106109433Y-73924003D01*
X106036446Y-74148631D01*
X105999500Y-74381902D01*
X104500500Y-74381902D01*
X104500500Y-67463898D01*
X104502883Y-67439706D01*
X104525500Y-67326003D01*
X104525500Y-66674500D01*
X104545185Y-66607461D01*
X104597989Y-66561706D01*
X104649500Y-66550500D01*
X104897770Y-66550500D01*
X104964809Y-66570185D01*
X104985451Y-66586819D01*
X107223181Y-68824548D01*
X107256666Y-68885871D01*
X107259500Y-68912229D01*
X107259500Y-69094486D01*
X107289059Y-69281118D01*
X107347454Y-69460836D01*
X107396272Y-69556645D01*
X107433240Y-69629199D01*
X107544310Y-69782073D01*
X107677927Y-69915690D01*
X107830801Y-70026760D01*
X107910347Y-70067290D01*
X107999163Y-70112545D01*
X107999165Y-70112545D01*
X107999168Y-70112547D01*
X108095497Y-70143846D01*
X108178881Y-70170940D01*
X108365514Y-70200500D01*
X108365519Y-70200500D01*
X108554486Y-70200500D01*
X108741118Y-70170940D01*
X108920832Y-70112547D01*
X109089199Y-70026760D01*
X109242073Y-69915690D01*
X109375690Y-69782073D01*
X109486760Y-69629199D01*
X109572547Y-69460832D01*
X109630940Y-69281118D01*
X109640670Y-69219683D01*
X109660500Y-69094486D01*
X109660500Y-68905513D01*
X112339500Y-68905513D01*
X112339500Y-69094486D01*
X112369059Y-69281118D01*
X112427454Y-69460836D01*
X112476272Y-69556645D01*
X112513240Y-69629199D01*
X112624310Y-69782073D01*
X112757927Y-69915690D01*
X112910801Y-70026760D01*
X112990347Y-70067290D01*
X113079163Y-70112545D01*
X113079165Y-70112545D01*
X113079168Y-70112547D01*
X113175497Y-70143846D01*
X113258881Y-70170940D01*
X113445514Y-70200500D01*
X113445519Y-70200500D01*
X113634486Y-70200500D01*
X113821118Y-70170940D01*
X114000832Y-70112547D01*
X114169199Y-70026760D01*
X114322073Y-69915690D01*
X114455690Y-69782073D01*
X114566760Y-69629199D01*
X114652547Y-69460832D01*
X114710940Y-69281118D01*
X114720670Y-69219683D01*
X114740500Y-69094486D01*
X114740500Y-68905513D01*
X114710940Y-68718881D01*
X114652545Y-68539163D01*
X114566759Y-68370800D01*
X114455690Y-68217927D01*
X114322073Y-68084310D01*
X114169199Y-67973240D01*
X114000836Y-67887454D01*
X113821118Y-67829059D01*
X113634486Y-67799500D01*
X113634481Y-67799500D01*
X113445519Y-67799500D01*
X113445514Y-67799500D01*
X113258881Y-67829059D01*
X113079163Y-67887454D01*
X112910800Y-67973240D01*
X112844297Y-68021558D01*
X112757927Y-68084310D01*
X112757925Y-68084312D01*
X112757924Y-68084312D01*
X112624312Y-68217924D01*
X112624312Y-68217925D01*
X112624310Y-68217927D01*
X112584750Y-68272376D01*
X112513240Y-68370800D01*
X112427454Y-68539163D01*
X112369059Y-68718881D01*
X112339500Y-68905513D01*
X109660500Y-68905513D01*
X109630940Y-68718881D01*
X109572545Y-68539163D01*
X109486759Y-68370800D01*
X109375690Y-68217927D01*
X109242073Y-68084310D01*
X109089199Y-67973240D01*
X108920836Y-67887454D01*
X108741118Y-67829059D01*
X108554486Y-67799500D01*
X108554481Y-67799500D01*
X108372229Y-67799500D01*
X108305190Y-67779815D01*
X108284548Y-67763181D01*
X106359697Y-65838328D01*
X106276882Y-65755513D01*
X107259500Y-65755513D01*
X107259500Y-65944486D01*
X107289059Y-66131118D01*
X107347454Y-66310836D01*
X107431545Y-66475873D01*
X107433240Y-66479199D01*
X107544310Y-66632073D01*
X107677927Y-66765690D01*
X107830801Y-66876760D01*
X107910347Y-66917290D01*
X107999163Y-66962545D01*
X107999165Y-66962545D01*
X107999168Y-66962547D01*
X108095497Y-66993846D01*
X108178881Y-67020940D01*
X108365514Y-67050500D01*
X108365519Y-67050500D01*
X108554486Y-67050500D01*
X108741118Y-67020940D01*
X108920832Y-66962547D01*
X109089199Y-66876760D01*
X109242073Y-66765690D01*
X109375690Y-66632073D01*
X109486760Y-66479199D01*
X109572547Y-66310832D01*
X109630940Y-66131118D01*
X109632498Y-66121282D01*
X109660500Y-65944486D01*
X109660500Y-65755513D01*
X109630940Y-65568881D01*
X109572545Y-65389163D01*
X109486759Y-65220800D01*
X109484032Y-65217046D01*
X109375690Y-65067927D01*
X109242073Y-64934310D01*
X109089199Y-64823240D01*
X109069457Y-64813181D01*
X108920836Y-64737454D01*
X108741118Y-64679059D01*
X108554486Y-64649500D01*
X108554481Y-64649500D01*
X108365519Y-64649500D01*
X108365514Y-64649500D01*
X108178881Y-64679059D01*
X107999163Y-64737454D01*
X107830800Y-64823240D01*
X107794657Y-64849500D01*
X107677927Y-64934310D01*
X107677925Y-64934312D01*
X107677924Y-64934312D01*
X107544312Y-65067924D01*
X107544312Y-65067925D01*
X107544310Y-65067927D01*
X107496610Y-65133579D01*
X107433240Y-65220800D01*
X107347454Y-65389163D01*
X107289059Y-65568881D01*
X107259500Y-65755513D01*
X106276882Y-65755513D01*
X105738421Y-65217052D01*
X105738414Y-65217046D01*
X105664729Y-65167812D01*
X105664729Y-65167813D01*
X105615491Y-65134913D01*
X105478917Y-65078343D01*
X105478907Y-65078340D01*
X105333920Y-65049500D01*
X105333918Y-65049500D01*
X103022224Y-65049500D01*
X103022222Y-65049500D01*
X102877234Y-65078340D01*
X102877228Y-65078342D01*
X102740650Y-65134914D01*
X102740638Y-65134921D01*
X102691412Y-65167811D01*
X102691413Y-65167812D01*
X102617723Y-65217049D01*
X102101014Y-65733758D01*
X102039691Y-65767243D01*
X102037525Y-65767694D01*
X101930878Y-65788907D01*
X101930868Y-65788910D01*
X101849661Y-65822547D01*
X101780191Y-65830016D01*
X101735140Y-65810405D01*
X101734872Y-65810897D01*
X101729374Y-65807894D01*
X101727895Y-65807251D01*
X101727086Y-65806645D01*
X101592379Y-65756403D01*
X101592372Y-65756401D01*
X101532844Y-65750000D01*
X101210000Y-65750000D01*
X101210000Y-66634134D01*
X101207617Y-66658326D01*
X101204500Y-66673995D01*
X101204500Y-66714170D01*
X101190255Y-66699925D01*
X101104745Y-66650556D01*
X101009370Y-66625000D01*
X100910630Y-66625000D01*
X100815255Y-66650556D01*
X100729745Y-66699925D01*
X100710000Y-66719670D01*
X100710000Y-65750000D01*
X100387155Y-65750000D01*
X100327627Y-65756401D01*
X100327620Y-65756403D01*
X100192913Y-65806645D01*
X100192906Y-65806649D01*
X100077812Y-65892809D01*
X100077809Y-65892812D01*
X99991649Y-66007906D01*
X99991645Y-66007913D01*
X99941403Y-66142620D01*
X99941401Y-66142627D01*
X99935000Y-66202155D01*
X99935000Y-66750000D01*
X100679670Y-66750000D01*
X100659925Y-66769745D01*
X100610556Y-66855255D01*
X100585000Y-66950630D01*
X100585000Y-67049370D01*
X100610556Y-67144745D01*
X100659925Y-67230255D01*
X100679670Y-67250000D01*
X99935000Y-67250000D01*
X99935000Y-67797844D01*
X99941401Y-67857372D01*
X99941403Y-67857379D01*
X99991645Y-67992086D01*
X99991649Y-67992093D01*
X100077809Y-68107187D01*
X100077812Y-68107190D01*
X100192906Y-68193350D01*
X100192913Y-68193354D01*
X100327620Y-68243596D01*
X100327627Y-68243598D01*
X100387155Y-68249999D01*
X100387172Y-68250000D01*
X100710000Y-68250000D01*
X100710000Y-67280330D01*
X100729745Y-67300075D01*
X100815255Y-67349444D01*
X100910630Y-67375000D01*
X101009370Y-67375000D01*
X101104745Y-67349444D01*
X101190255Y-67300075D01*
X101204500Y-67285830D01*
X101204500Y-67326002D01*
X101207617Y-67341671D01*
X101210000Y-67365865D01*
X101210000Y-68250000D01*
X101532828Y-68250000D01*
X101532844Y-68249999D01*
X101592372Y-68243598D01*
X101592376Y-68243597D01*
X101727089Y-68193352D01*
X101727896Y-68192748D01*
X101728845Y-68192393D01*
X101734876Y-68189101D01*
X101735349Y-68189967D01*
X101793360Y-68168329D01*
X101849661Y-68177451D01*
X101930873Y-68211091D01*
X102126478Y-68249999D01*
X102128992Y-68250499D01*
X102128996Y-68250500D01*
X102128997Y-68250500D01*
X102331003Y-68250500D01*
X102351308Y-68246461D01*
X102420899Y-68252688D01*
X102476077Y-68295550D01*
X102499322Y-68361439D01*
X102499500Y-68368078D01*
X102499500Y-73751701D01*
X102479815Y-73818740D01*
X102427011Y-73864495D01*
X102357853Y-73874439D01*
X102302616Y-73852020D01*
X102234024Y-73802186D01*
X102037606Y-73702104D01*
X102037603Y-73702103D01*
X101827952Y-73633985D01*
X101719086Y-73616742D01*
X101610222Y-73599500D01*
X101389778Y-73599500D01*
X101317201Y-73610995D01*
X101172047Y-73633985D01*
X100962396Y-73702103D01*
X100962393Y-73702104D01*
X100765974Y-73802187D01*
X100587641Y-73931752D01*
X100587636Y-73931756D01*
X100537463Y-73981929D01*
X100476140Y-74015413D01*
X100406448Y-74010428D01*
X100350515Y-73968557D01*
X100333601Y-73937580D01*
X100303797Y-73857671D01*
X100303793Y-73857664D01*
X100217547Y-73742455D01*
X100217544Y-73742452D01*
X100102335Y-73656206D01*
X100102328Y-73656202D01*
X99967482Y-73605908D01*
X99967483Y-73605908D01*
X99907883Y-73599501D01*
X99907881Y-73599500D01*
X99907873Y-73599500D01*
X99907864Y-73599500D01*
X98012129Y-73599500D01*
X98012123Y-73599501D01*
X97952516Y-73605908D01*
X97817671Y-73656202D01*
X97817664Y-73656206D01*
X97702455Y-73742452D01*
X97702452Y-73742455D01*
X97616206Y-73857664D01*
X97616202Y-73857671D01*
X97565908Y-73992517D01*
X97559501Y-74052116D01*
X97559500Y-74052135D01*
X97559500Y-75947870D01*
X97559501Y-75947876D01*
X97565908Y-76007483D01*
X97616202Y-76142328D01*
X97616206Y-76142335D01*
X97702452Y-76257544D01*
X97702455Y-76257547D01*
X97817664Y-76343793D01*
X97817671Y-76343797D01*
X97952517Y-76394091D01*
X97952516Y-76394091D01*
X97959444Y-76394835D01*
X98012127Y-76400500D01*
X99907872Y-76400499D01*
X99967483Y-76394091D01*
X100102331Y-76343796D01*
X100217546Y-76257546D01*
X100303796Y-76142331D01*
X100331428Y-76068245D01*
X100333601Y-76062420D01*
X100375471Y-76006486D01*
X100440936Y-75982068D01*
X100509209Y-75996919D01*
X100537464Y-76018071D01*
X100587638Y-76068245D01*
X100668243Y-76126807D01*
X100689610Y-76142331D01*
X100698384Y-76148705D01*
X100741051Y-76204035D01*
X100749500Y-76249024D01*
X100749500Y-134367769D01*
X100729815Y-134434808D01*
X100713181Y-134455450D01*
X98952665Y-136215965D01*
X98891342Y-136249450D01*
X98821650Y-136244466D01*
X98817532Y-136242845D01*
X98802222Y-136236503D01*
X98802209Y-136236499D01*
X98802210Y-136236499D01*
X98802207Y-136236498D01*
X98561565Y-136172018D01*
X98561564Y-136172017D01*
X98561561Y-136172017D01*
X98314575Y-136139501D01*
X98314570Y-136139500D01*
X98314565Y-136139500D01*
X98065435Y-136139500D01*
X98065429Y-136139500D01*
X98065424Y-136139501D01*
X97818438Y-136172017D01*
X97577792Y-136236498D01*
X97347638Y-136331830D01*
X97347628Y-136331835D01*
X97276499Y-136372901D01*
X97208598Y-136389372D01*
X97142572Y-136366520D01*
X97099382Y-136311598D01*
X97090500Y-136265513D01*
X97090500Y-135252229D01*
X97110185Y-135185190D01*
X97126819Y-135164548D01*
X97263385Y-135027982D01*
X97427335Y-134864031D01*
X97488656Y-134830548D01*
X97558347Y-134835532D01*
X97562431Y-134837139D01*
X97577793Y-134843502D01*
X97818435Y-134907982D01*
X98065435Y-134940500D01*
X98065442Y-134940500D01*
X98314558Y-134940500D01*
X98314565Y-134940500D01*
X98561565Y-134907982D01*
X98802207Y-134843502D01*
X99032373Y-134748164D01*
X99248127Y-134623599D01*
X99445776Y-134471938D01*
X99621938Y-134295776D01*
X99773599Y-134098127D01*
X99898164Y-133882373D01*
X99993502Y-133652207D01*
X100057982Y-133411565D01*
X100090500Y-133164565D01*
X100090500Y-132915435D01*
X100057982Y-132668435D01*
X99993502Y-132427793D01*
X99898164Y-132197627D01*
X99773599Y-131981873D01*
X99621938Y-131784224D01*
X99621933Y-131784218D01*
X99445781Y-131608066D01*
X99445774Y-131608060D01*
X99248126Y-131456400D01*
X99032376Y-131331837D01*
X99032361Y-131331830D01*
X98802207Y-131236498D01*
X98561561Y-131172017D01*
X98314575Y-131139501D01*
X98314570Y-131139500D01*
X98314565Y-131139500D01*
X98065435Y-131139500D01*
X98065429Y-131139500D01*
X98065424Y-131139501D01*
X97818438Y-131172017D01*
X97577792Y-131236498D01*
X97347638Y-131331830D01*
X97347623Y-131331837D01*
X97131873Y-131456400D01*
X96934225Y-131608060D01*
X96934218Y-131608066D01*
X96758066Y-131784218D01*
X96758060Y-131784225D01*
X96606400Y-131981873D01*
X96481837Y-132197623D01*
X96481830Y-132197638D01*
X96386498Y-132427792D01*
X96322017Y-132668438D01*
X96289501Y-132915424D01*
X96289500Y-132915441D01*
X96289500Y-133164558D01*
X96289501Y-133164575D01*
X96322017Y-133411561D01*
X96386499Y-133652209D01*
X96386503Y-133652222D01*
X96392845Y-133667532D01*
X96400314Y-133737001D01*
X96369038Y-133799480D01*
X96365965Y-133802665D01*
X95757048Y-134411583D01*
X95741531Y-134434808D01*
X95716722Y-134471938D01*
X95674919Y-134534499D01*
X95674912Y-134534511D01*
X95618343Y-134671082D01*
X95618340Y-134671092D01*
X95589500Y-134816079D01*
X95589500Y-134816082D01*
X95589500Y-138880214D01*
X95589500Y-138880216D01*
X95589499Y-138880216D01*
X92550500Y-138880216D01*
X92550500Y-127915441D01*
X96289500Y-127915441D01*
X96289500Y-128164558D01*
X96289501Y-128164575D01*
X96322017Y-128411561D01*
X96386498Y-128652207D01*
X96481830Y-128882361D01*
X96481837Y-128882376D01*
X96606400Y-129098126D01*
X96758060Y-129295774D01*
X96758066Y-129295781D01*
X96934218Y-129471933D01*
X96934225Y-129471939D01*
X97131873Y-129623599D01*
X97347623Y-129748162D01*
X97347638Y-129748169D01*
X97446825Y-129789253D01*
X97577793Y-129843502D01*
X97818435Y-129907982D01*
X98065435Y-129940500D01*
X98065442Y-129940500D01*
X98314558Y-129940500D01*
X98314565Y-129940500D01*
X98561565Y-129907982D01*
X98802207Y-129843502D01*
X99032373Y-129748164D01*
X99248127Y-129623599D01*
X99445776Y-129471938D01*
X99621938Y-129295776D01*
X99773599Y-129098127D01*
X99898164Y-128882373D01*
X99993502Y-128652207D01*
X100057982Y-128411565D01*
X100090500Y-128164565D01*
X100090500Y-127915435D01*
X100057982Y-127668435D01*
X99993502Y-127427793D01*
X99898164Y-127197627D01*
X99773599Y-126981873D01*
X99621938Y-126784224D01*
X99621933Y-126784218D01*
X99445781Y-126608066D01*
X99445774Y-126608060D01*
X99248126Y-126456400D01*
X99032376Y-126331837D01*
X99032361Y-126331830D01*
X98802207Y-126236498D01*
X98561561Y-126172017D01*
X98314575Y-126139501D01*
X98314570Y-126139500D01*
X98314565Y-126139500D01*
X98065435Y-126139500D01*
X98065429Y-126139500D01*
X98065424Y-126139501D01*
X97818438Y-126172017D01*
X97577792Y-126236498D01*
X97347638Y-126331830D01*
X97347623Y-126331837D01*
X97131873Y-126456400D01*
X96934225Y-126608060D01*
X96934218Y-126608066D01*
X96758066Y-126784218D01*
X96758060Y-126784225D01*
X96606400Y-126981873D01*
X96481837Y-127197623D01*
X96481830Y-127197638D01*
X96386498Y-127427792D01*
X96322017Y-127668438D01*
X96289501Y-127915424D01*
X96289500Y-127915441D01*
X92550500Y-127915441D01*
X92550500Y-122915441D01*
X96289500Y-122915441D01*
X96289500Y-123164558D01*
X96289501Y-123164575D01*
X96322017Y-123411561D01*
X96386498Y-123652207D01*
X96481830Y-123882361D01*
X96481837Y-123882376D01*
X96606400Y-124098126D01*
X96758060Y-124295774D01*
X96758066Y-124295781D01*
X96934218Y-124471933D01*
X96934225Y-124471939D01*
X97131873Y-124623599D01*
X97347623Y-124748162D01*
X97347638Y-124748169D01*
X97446825Y-124789253D01*
X97577793Y-124843502D01*
X97818435Y-124907982D01*
X98065435Y-124940500D01*
X98065442Y-124940500D01*
X98314558Y-124940500D01*
X98314565Y-124940500D01*
X98561565Y-124907982D01*
X98802207Y-124843502D01*
X99032373Y-124748164D01*
X99248127Y-124623599D01*
X99445776Y-124471938D01*
X99621938Y-124295776D01*
X99773599Y-124098127D01*
X99898164Y-123882373D01*
X99993502Y-123652207D01*
X100057982Y-123411565D01*
X100090500Y-123164565D01*
X100090500Y-122915435D01*
X100057982Y-122668435D01*
X99993502Y-122427793D01*
X99898164Y-122197627D01*
X99773599Y-121981873D01*
X99621938Y-121784224D01*
X99621933Y-121784218D01*
X99445781Y-121608066D01*
X99445774Y-121608060D01*
X99248126Y-121456400D01*
X99032376Y-121331837D01*
X99032361Y-121331830D01*
X98802207Y-121236498D01*
X98561561Y-121172017D01*
X98314575Y-121139501D01*
X98314570Y-121139500D01*
X98314565Y-121139500D01*
X98065435Y-121139500D01*
X98065429Y-121139500D01*
X98065424Y-121139501D01*
X97818438Y-121172017D01*
X97577792Y-121236498D01*
X97347638Y-121331830D01*
X97347623Y-121331837D01*
X97131873Y-121456400D01*
X96934225Y-121608060D01*
X96934218Y-121608066D01*
X96758066Y-121784218D01*
X96758060Y-121784225D01*
X96606400Y-121981873D01*
X96481837Y-122197623D01*
X96481830Y-122197638D01*
X96386498Y-122427792D01*
X96322017Y-122668438D01*
X96289501Y-122915424D01*
X96289500Y-122915441D01*
X92550500Y-122915441D01*
X92550500Y-117915441D01*
X96289500Y-117915441D01*
X96289500Y-118164558D01*
X96289501Y-118164575D01*
X96322017Y-118411561D01*
X96386498Y-118652207D01*
X96481830Y-118882361D01*
X96481837Y-118882376D01*
X96606400Y-119098126D01*
X96758060Y-119295774D01*
X96758066Y-119295781D01*
X96934218Y-119471933D01*
X96934225Y-119471939D01*
X97131873Y-119623599D01*
X97347623Y-119748162D01*
X97347638Y-119748169D01*
X97446825Y-119789253D01*
X97577793Y-119843502D01*
X97818435Y-119907982D01*
X98065435Y-119940500D01*
X98065442Y-119940500D01*
X98314558Y-119940500D01*
X98314565Y-119940500D01*
X98561565Y-119907982D01*
X98802207Y-119843502D01*
X99032373Y-119748164D01*
X99248127Y-119623599D01*
X99445776Y-119471938D01*
X99621938Y-119295776D01*
X99773599Y-119098127D01*
X99898164Y-118882373D01*
X99993502Y-118652207D01*
X100057982Y-118411565D01*
X100090500Y-118164565D01*
X100090500Y-117915435D01*
X100057982Y-117668435D01*
X99993502Y-117427793D01*
X99898164Y-117197627D01*
X99773599Y-116981873D01*
X99621938Y-116784224D01*
X99621933Y-116784218D01*
X99445781Y-116608066D01*
X99445774Y-116608060D01*
X99248126Y-116456400D01*
X99032376Y-116331837D01*
X99032361Y-116331830D01*
X98802207Y-116236498D01*
X98561561Y-116172017D01*
X98314575Y-116139501D01*
X98314570Y-116139500D01*
X98314565Y-116139500D01*
X98065435Y-116139500D01*
X98065429Y-116139500D01*
X98065424Y-116139501D01*
X97818438Y-116172017D01*
X97577792Y-116236498D01*
X97347638Y-116331830D01*
X97347623Y-116331837D01*
X97131873Y-116456400D01*
X96934225Y-116608060D01*
X96934218Y-116608066D01*
X96758066Y-116784218D01*
X96758060Y-116784225D01*
X96606400Y-116981873D01*
X96481837Y-117197623D01*
X96481830Y-117197638D01*
X96386498Y-117427792D01*
X96322017Y-117668438D01*
X96289501Y-117915424D01*
X96289500Y-117915441D01*
X92550500Y-117915441D01*
X92550500Y-112915441D01*
X96289500Y-112915441D01*
X96289500Y-113164558D01*
X96289501Y-113164575D01*
X96322017Y-113411561D01*
X96386498Y-113652207D01*
X96481830Y-113882361D01*
X96481837Y-113882376D01*
X96606400Y-114098126D01*
X96758060Y-114295774D01*
X96758066Y-114295781D01*
X96934218Y-114471933D01*
X96934225Y-114471939D01*
X97131873Y-114623599D01*
X97347623Y-114748162D01*
X97347638Y-114748169D01*
X97446825Y-114789253D01*
X97577793Y-114843502D01*
X97818435Y-114907982D01*
X98065435Y-114940500D01*
X98065442Y-114940500D01*
X98314558Y-114940500D01*
X98314565Y-114940500D01*
X98561565Y-114907982D01*
X98802207Y-114843502D01*
X99032373Y-114748164D01*
X99248127Y-114623599D01*
X99445776Y-114471938D01*
X99621938Y-114295776D01*
X99773599Y-114098127D01*
X99898164Y-113882373D01*
X99993502Y-113652207D01*
X100057982Y-113411565D01*
X100090500Y-113164565D01*
X100090500Y-112915435D01*
X100057982Y-112668435D01*
X99993502Y-112427793D01*
X99898164Y-112197627D01*
X99773599Y-111981873D01*
X99621938Y-111784224D01*
X99621933Y-111784218D01*
X99445781Y-111608066D01*
X99445774Y-111608060D01*
X99248126Y-111456400D01*
X99032376Y-111331837D01*
X99032361Y-111331830D01*
X98802207Y-111236498D01*
X98561561Y-111172017D01*
X98314575Y-111139501D01*
X98314570Y-111139500D01*
X98314565Y-111139500D01*
X98065435Y-111139500D01*
X98065429Y-111139500D01*
X98065424Y-111139501D01*
X97818438Y-111172017D01*
X97577792Y-111236498D01*
X97347638Y-111331830D01*
X97347623Y-111331837D01*
X97131873Y-111456400D01*
X96934225Y-111608060D01*
X96934218Y-111608066D01*
X96758066Y-111784218D01*
X96758060Y-111784225D01*
X96606400Y-111981873D01*
X96481837Y-112197623D01*
X96481830Y-112197638D01*
X96386498Y-112427792D01*
X96322017Y-112668438D01*
X96289501Y-112915424D01*
X96289500Y-112915441D01*
X92550500Y-112915441D01*
X92550500Y-107915441D01*
X96289500Y-107915441D01*
X96289500Y-108164558D01*
X96289501Y-108164575D01*
X96322017Y-108411561D01*
X96386498Y-108652207D01*
X96481830Y-108882361D01*
X96481837Y-108882376D01*
X96606400Y-109098126D01*
X96758060Y-109295774D01*
X96758066Y-109295781D01*
X96934218Y-109471933D01*
X96934225Y-109471939D01*
X97131873Y-109623599D01*
X97347623Y-109748162D01*
X97347638Y-109748169D01*
X97446825Y-109789253D01*
X97577793Y-109843502D01*
X97818435Y-109907982D01*
X98065435Y-109940500D01*
X98065442Y-109940500D01*
X98314558Y-109940500D01*
X98314565Y-109940500D01*
X98561565Y-109907982D01*
X98802207Y-109843502D01*
X99032373Y-109748164D01*
X99248127Y-109623599D01*
X99445776Y-109471938D01*
X99621938Y-109295776D01*
X99773599Y-109098127D01*
X99898164Y-108882373D01*
X99993502Y-108652207D01*
X100057982Y-108411565D01*
X100090500Y-108164565D01*
X100090500Y-107915435D01*
X100057982Y-107668435D01*
X99993502Y-107427793D01*
X99939253Y-107296825D01*
X99898169Y-107197638D01*
X99898162Y-107197623D01*
X99773599Y-106981873D01*
X99621939Y-106784225D01*
X99621933Y-106784218D01*
X99445781Y-106608066D01*
X99445774Y-106608060D01*
X99248126Y-106456400D01*
X99032376Y-106331837D01*
X99032361Y-106331830D01*
X98802207Y-106236498D01*
X98561561Y-106172017D01*
X98314575Y-106139501D01*
X98314570Y-106139500D01*
X98314565Y-106139500D01*
X98065435Y-106139500D01*
X98065429Y-106139500D01*
X98065424Y-106139501D01*
X97818438Y-106172017D01*
X97577792Y-106236498D01*
X97347638Y-106331830D01*
X97347623Y-106331837D01*
X97131873Y-106456400D01*
X96934225Y-106608060D01*
X96934218Y-106608066D01*
X96758066Y-106784218D01*
X96758060Y-106784225D01*
X96606400Y-106981873D01*
X96481837Y-107197623D01*
X96481830Y-107197638D01*
X96386498Y-107427792D01*
X96322017Y-107668438D01*
X96289501Y-107915424D01*
X96289500Y-107915441D01*
X92550500Y-107915441D01*
X92550500Y-102915441D01*
X96289500Y-102915441D01*
X96289500Y-103164558D01*
X96289501Y-103164575D01*
X96322017Y-103411561D01*
X96386498Y-103652207D01*
X96481830Y-103882361D01*
X96481837Y-103882376D01*
X96606400Y-104098126D01*
X96758060Y-104295774D01*
X96758066Y-104295781D01*
X96934218Y-104471933D01*
X96934225Y-104471939D01*
X97131873Y-104623599D01*
X97347623Y-104748162D01*
X97347638Y-104748169D01*
X97400305Y-104769984D01*
X97577793Y-104843502D01*
X97818435Y-104907982D01*
X98065435Y-104940500D01*
X98065442Y-104940500D01*
X98314558Y-104940500D01*
X98314565Y-104940500D01*
X98561565Y-104907982D01*
X98802207Y-104843502D01*
X99032373Y-104748164D01*
X99248127Y-104623599D01*
X99445776Y-104471938D01*
X99621938Y-104295776D01*
X99773599Y-104098127D01*
X99898164Y-103882373D01*
X99993502Y-103652207D01*
X100057982Y-103411565D01*
X100090500Y-103164565D01*
X100090500Y-102915435D01*
X100057982Y-102668435D01*
X99993502Y-102427793D01*
X99898164Y-102197627D01*
X99773599Y-101981873D01*
X99643540Y-101812376D01*
X99621939Y-101784225D01*
X99621933Y-101784218D01*
X99445781Y-101608066D01*
X99445774Y-101608060D01*
X99248126Y-101456400D01*
X99032376Y-101331837D01*
X99032361Y-101331830D01*
X98802207Y-101236498D01*
X98561561Y-101172017D01*
X98314575Y-101139501D01*
X98314570Y-101139500D01*
X98314565Y-101139500D01*
X98065435Y-101139500D01*
X98065429Y-101139500D01*
X98065424Y-101139501D01*
X97818438Y-101172017D01*
X97577792Y-101236498D01*
X97347638Y-101331830D01*
X97347623Y-101331837D01*
X97131873Y-101456400D01*
X96934225Y-101608060D01*
X96934218Y-101608066D01*
X96758066Y-101784218D01*
X96758060Y-101784225D01*
X96606400Y-101981873D01*
X96481837Y-102197623D01*
X96481830Y-102197638D01*
X96386498Y-102427792D01*
X96322017Y-102668438D01*
X96289501Y-102915424D01*
X96289500Y-102915441D01*
X92550500Y-102915441D01*
X92550500Y-97915441D01*
X96289500Y-97915441D01*
X96289500Y-98164558D01*
X96289501Y-98164575D01*
X96322017Y-98411561D01*
X96386498Y-98652207D01*
X96481830Y-98882361D01*
X96481837Y-98882376D01*
X96606400Y-99098126D01*
X96758060Y-99295774D01*
X96758066Y-99295781D01*
X96934218Y-99471933D01*
X96934225Y-99471939D01*
X97131873Y-99623599D01*
X97347623Y-99748162D01*
X97347638Y-99748169D01*
X97446825Y-99789253D01*
X97577793Y-99843502D01*
X97818435Y-99907982D01*
X98065435Y-99940500D01*
X98065442Y-99940500D01*
X98314558Y-99940500D01*
X98314565Y-99940500D01*
X98561565Y-99907982D01*
X98802207Y-99843502D01*
X99032373Y-99748164D01*
X99248127Y-99623599D01*
X99445776Y-99471938D01*
X99621938Y-99295776D01*
X99773599Y-99098127D01*
X99898164Y-98882373D01*
X99993502Y-98652207D01*
X100057982Y-98411565D01*
X100090500Y-98164565D01*
X100090500Y-97915435D01*
X100057982Y-97668435D01*
X99993502Y-97427793D01*
X99898164Y-97197627D01*
X99773599Y-96981873D01*
X99643540Y-96812376D01*
X99621939Y-96784225D01*
X99621933Y-96784218D01*
X99445781Y-96608066D01*
X99445774Y-96608060D01*
X99248126Y-96456400D01*
X99032376Y-96331837D01*
X99032361Y-96331830D01*
X98802207Y-96236498D01*
X98561561Y-96172017D01*
X98314575Y-96139501D01*
X98314570Y-96139500D01*
X98314565Y-96139500D01*
X98065435Y-96139500D01*
X98065429Y-96139500D01*
X98065424Y-96139501D01*
X97818438Y-96172017D01*
X97577792Y-96236498D01*
X97347638Y-96331830D01*
X97347623Y-96331837D01*
X97131873Y-96456400D01*
X96934225Y-96608060D01*
X96934218Y-96608066D01*
X96758066Y-96784218D01*
X96758060Y-96784225D01*
X96606400Y-96981873D01*
X96481837Y-97197623D01*
X96481830Y-97197638D01*
X96386498Y-97427792D01*
X96322017Y-97668438D01*
X96289501Y-97915424D01*
X96289500Y-97915441D01*
X92550500Y-97915441D01*
X92550500Y-92915441D01*
X96289500Y-92915441D01*
X96289500Y-93164558D01*
X96289501Y-93164575D01*
X96322017Y-93411561D01*
X96386498Y-93652207D01*
X96481830Y-93882361D01*
X96481837Y-93882376D01*
X96606400Y-94098126D01*
X96758060Y-94295774D01*
X96758066Y-94295781D01*
X96934218Y-94471933D01*
X96934225Y-94471939D01*
X97131873Y-94623599D01*
X97347623Y-94748162D01*
X97347638Y-94748169D01*
X97446825Y-94789253D01*
X97577793Y-94843502D01*
X97818435Y-94907982D01*
X98065435Y-94940500D01*
X98065442Y-94940500D01*
X98314558Y-94940500D01*
X98314565Y-94940500D01*
X98561565Y-94907982D01*
X98802207Y-94843502D01*
X99032373Y-94748164D01*
X99248127Y-94623599D01*
X99445776Y-94471938D01*
X99621938Y-94295776D01*
X99773599Y-94098127D01*
X99898164Y-93882373D01*
X99993502Y-93652207D01*
X100057982Y-93411565D01*
X100090500Y-93164565D01*
X100090500Y-92915435D01*
X100057982Y-92668435D01*
X99993502Y-92427793D01*
X99898164Y-92197627D01*
X99870955Y-92150500D01*
X99773599Y-91981873D01*
X99621939Y-91784225D01*
X99621933Y-91784218D01*
X99445781Y-91608066D01*
X99445774Y-91608060D01*
X99248126Y-91456400D01*
X99032376Y-91331837D01*
X99032361Y-91331830D01*
X98802207Y-91236498D01*
X98561561Y-91172017D01*
X98314575Y-91139501D01*
X98314570Y-91139500D01*
X98314565Y-91139500D01*
X98065435Y-91139500D01*
X98065429Y-91139500D01*
X98065424Y-91139501D01*
X97818438Y-91172017D01*
X97577792Y-91236498D01*
X97347638Y-91331830D01*
X97347623Y-91331837D01*
X97131873Y-91456400D01*
X96934225Y-91608060D01*
X96934218Y-91608066D01*
X96758066Y-91784218D01*
X96758060Y-91784225D01*
X96606400Y-91981873D01*
X96481837Y-92197623D01*
X96481830Y-92197638D01*
X96386498Y-92427792D01*
X96322017Y-92668438D01*
X96289501Y-92915424D01*
X96289500Y-92915441D01*
X92550500Y-92915441D01*
X92550500Y-87915441D01*
X96289500Y-87915441D01*
X96289500Y-88164558D01*
X96289501Y-88164575D01*
X96322017Y-88411561D01*
X96386498Y-88652207D01*
X96481830Y-88882361D01*
X96481837Y-88882376D01*
X96606400Y-89098126D01*
X96758060Y-89295774D01*
X96758066Y-89295781D01*
X96934218Y-89471933D01*
X96934225Y-89471939D01*
X97131873Y-89623599D01*
X97347623Y-89748162D01*
X97347638Y-89748169D01*
X97446825Y-89789253D01*
X97577793Y-89843502D01*
X97818435Y-89907982D01*
X98065435Y-89940500D01*
X98065442Y-89940500D01*
X98314558Y-89940500D01*
X98314565Y-89940500D01*
X98561565Y-89907982D01*
X98802207Y-89843502D01*
X99032373Y-89748164D01*
X99248127Y-89623599D01*
X99445776Y-89471938D01*
X99621938Y-89295776D01*
X99773599Y-89098127D01*
X99898164Y-88882373D01*
X99993502Y-88652207D01*
X100057982Y-88411565D01*
X100090500Y-88164565D01*
X100090500Y-87915435D01*
X100057982Y-87668435D01*
X99993502Y-87427793D01*
X99898164Y-87197627D01*
X99773599Y-86981873D01*
X99687107Y-86869154D01*
X99621939Y-86784225D01*
X99621933Y-86784218D01*
X99445781Y-86608066D01*
X99445774Y-86608060D01*
X99248126Y-86456400D01*
X99032376Y-86331837D01*
X99032361Y-86331830D01*
X98802207Y-86236498D01*
X98561561Y-86172017D01*
X98314575Y-86139501D01*
X98314570Y-86139500D01*
X98314565Y-86139500D01*
X98065435Y-86139500D01*
X98065429Y-86139500D01*
X98065424Y-86139501D01*
X97818438Y-86172017D01*
X97577792Y-86236498D01*
X97347638Y-86331830D01*
X97347623Y-86331837D01*
X97131873Y-86456400D01*
X96934225Y-86608060D01*
X96934218Y-86608066D01*
X96758066Y-86784218D01*
X96758060Y-86784225D01*
X96606400Y-86981873D01*
X96481837Y-87197623D01*
X96481830Y-87197638D01*
X96386498Y-87427792D01*
X96322017Y-87668438D01*
X96289501Y-87915424D01*
X96289500Y-87915441D01*
X92550500Y-87915441D01*
X92550500Y-72372631D01*
X92570185Y-72305592D01*
X92601614Y-72272313D01*
X92777510Y-72144517D01*
X92944517Y-71977510D01*
X93083343Y-71786433D01*
X93190568Y-71575992D01*
X93263553Y-71351368D01*
X93288637Y-71192993D01*
X93300500Y-71118097D01*
X93300500Y-70965782D01*
X93320185Y-70898743D01*
X93336819Y-70878101D01*
X119678101Y-44536819D01*
X119739424Y-44503334D01*
X119765782Y-44500500D01*
X128681742Y-44500500D01*
X128748781Y-44520185D01*
X128769423Y-44536819D01*
X128912713Y-44680109D01*
X129084679Y-44805048D01*
X129084681Y-44805049D01*
X129084684Y-44805051D01*
X129274088Y-44901557D01*
X129476257Y-44967246D01*
X129686213Y-45000500D01*
X129686214Y-45000500D01*
X129898786Y-45000500D01*
X129898787Y-45000500D01*
X130108743Y-44967246D01*
X130310912Y-44901557D01*
X130500316Y-44805051D01*
X130522289Y-44789086D01*
X130672286Y-44680109D01*
X130672288Y-44680106D01*
X130672292Y-44680104D01*
X130815577Y-44536819D01*
X130876900Y-44503334D01*
X130903258Y-44500500D01*
X139712065Y-44500500D01*
X139779104Y-44520185D01*
X139824859Y-44572989D01*
X139826626Y-44577048D01*
X139846711Y-44625540D01*
X139846719Y-44625556D01*
X139878216Y-44680109D01*
X139964727Y-44829950D01*
X139964729Y-44829953D01*
X139964730Y-44829954D01*
X140108406Y-45017197D01*
X140108412Y-45017204D01*
X140275295Y-45184087D01*
X140275302Y-45184093D01*
X140291909Y-45196836D01*
X140462550Y-45327773D01*
X140593918Y-45403618D01*
X140666943Y-45445780D01*
X140666948Y-45445782D01*
X140666951Y-45445784D01*
X140885007Y-45536106D01*
X141112986Y-45597193D01*
X141346989Y-45628000D01*
X141346996Y-45628000D01*
X141583004Y-45628000D01*
X141583011Y-45628000D01*
X141817014Y-45597193D01*
X142044993Y-45536106D01*
X142263049Y-45445784D01*
X142467450Y-45327773D01*
X142654699Y-45184092D01*
X142821592Y-45017199D01*
X142965273Y-44829950D01*
X143083284Y-44625549D01*
X143173606Y-44407493D01*
X143234693Y-44179514D01*
X143265500Y-43945511D01*
X143265500Y-43709489D01*
X143234693Y-43475486D01*
X143173606Y-43247507D01*
X143083284Y-43029451D01*
X143083282Y-43029448D01*
X143083280Y-43029443D01*
X143041118Y-42956418D01*
X142965273Y-42825050D01*
X142821592Y-42637801D01*
X142821587Y-42637795D01*
X142654704Y-42470912D01*
X142654697Y-42470906D01*
X142467454Y-42327230D01*
X142467453Y-42327229D01*
X142467450Y-42327227D01*
X142385957Y-42280177D01*
X142263056Y-42209219D01*
X142263045Y-42209214D01*
X142044993Y-42118894D01*
X141817010Y-42057806D01*
X141583020Y-42027001D01*
X141583017Y-42027000D01*
X141583011Y-42027000D01*
X141346989Y-42027000D01*
X141346983Y-42027000D01*
X141346979Y-42027001D01*
X141112989Y-42057806D01*
X140885006Y-42118894D01*
X140666954Y-42209214D01*
X140666943Y-42209219D01*
X140462545Y-42327230D01*
X140272080Y-42473379D01*
X140270950Y-42471906D01*
X140214374Y-42498135D01*
X140196027Y-42499500D01*
X130903258Y-42499500D01*
X130836219Y-42479815D01*
X130815577Y-42463181D01*
X130672286Y-42319890D01*
X130500320Y-42194951D01*
X130310914Y-42098444D01*
X130310913Y-42098443D01*
X130310912Y-42098443D01*
X130108743Y-42032754D01*
X130108741Y-42032753D01*
X130108740Y-42032753D01*
X129947457Y-42007208D01*
X129898787Y-41999500D01*
X129686213Y-41999500D01*
X129637542Y-42007208D01*
X129476260Y-42032753D01*
X129274085Y-42098444D01*
X129084679Y-42194951D01*
X128912713Y-42319890D01*
X128912709Y-42319894D01*
X128769423Y-42463181D01*
X128708100Y-42496666D01*
X128681742Y-42499500D01*
X119201455Y-42499500D01*
X119104812Y-42518724D01*
X119008167Y-42537947D01*
X119008161Y-42537949D01*
X118954834Y-42560037D01*
X118954834Y-42560038D01*
X118909315Y-42578892D01*
X118826089Y-42613366D01*
X118826079Y-42613371D01*
X118662219Y-42722859D01*
X118592540Y-42792538D01*
X118522861Y-42862218D01*
X118522858Y-42862221D01*
X91921899Y-69463181D01*
X91860576Y-69496666D01*
X91834218Y-69499500D01*
X91681903Y-69499500D01*
X91448631Y-69536446D01*
X91224003Y-69609433D01*
X91013566Y-69716657D01*
X90923527Y-69782075D01*
X90822490Y-69855483D01*
X90822488Y-69855485D01*
X90822487Y-69855485D01*
X90655485Y-70022487D01*
X90655485Y-70022488D01*
X90655483Y-70022490D01*
X90652381Y-70026760D01*
X90516657Y-70213566D01*
X90409433Y-70424003D01*
X90336446Y-70648631D01*
X90299500Y-70881902D01*
X84685993Y-70881902D01*
X84665925Y-70807007D01*
X84633012Y-70750000D01*
X85700000Y-70750000D01*
X85700000Y-69952172D01*
X85699999Y-69952155D01*
X85693598Y-69892627D01*
X85693596Y-69892620D01*
X85643354Y-69757913D01*
X85643350Y-69757906D01*
X85557190Y-69642812D01*
X85557187Y-69642809D01*
X85442093Y-69556649D01*
X85442086Y-69556645D01*
X85307379Y-69506403D01*
X85307372Y-69506401D01*
X85247844Y-69500000D01*
X84450000Y-69500000D01*
X84450000Y-70566988D01*
X84392993Y-70534075D01*
X84265826Y-70500000D01*
X84134174Y-70500000D01*
X84007007Y-70534075D01*
X83950000Y-70566988D01*
X83950000Y-69500000D01*
X83152155Y-69500000D01*
X83092627Y-69506401D01*
X83092620Y-69506403D01*
X82957913Y-69556645D01*
X82957906Y-69556649D01*
X82842812Y-69642809D01*
X82842809Y-69642812D01*
X82756649Y-69757906D01*
X82756645Y-69757913D01*
X82706403Y-69892620D01*
X82706401Y-69892627D01*
X82700000Y-69952155D01*
X77250500Y-69952155D01*
X77250500Y-48354983D01*
X81027000Y-48354983D01*
X81027000Y-50555001D01*
X81027001Y-50555018D01*
X81037500Y-50657796D01*
X81037501Y-50657799D01*
X81092685Y-50824331D01*
X81092686Y-50824334D01*
X81184788Y-50973656D01*
X81308844Y-51097712D01*
X81458166Y-51189814D01*
X81624703Y-51244999D01*
X81727491Y-51255500D01*
X83685610Y-51255499D01*
X83752649Y-51275184D01*
X83798404Y-51327987D01*
X83808348Y-51397146D01*
X83779323Y-51460702D01*
X83773291Y-51467180D01*
X82498542Y-52741929D01*
X82442955Y-52774023D01*
X82247506Y-52826394D01*
X82029454Y-52916714D01*
X82029443Y-52916719D01*
X81825045Y-53034730D01*
X81637802Y-53178406D01*
X81637795Y-53178412D01*
X81470912Y-53345295D01*
X81470906Y-53345302D01*
X81327230Y-53532545D01*
X81209219Y-53736943D01*
X81209214Y-53736954D01*
X81118894Y-53955006D01*
X81057806Y-54182989D01*
X81027001Y-54416979D01*
X81027000Y-54416995D01*
X81027000Y-54653004D01*
X81027001Y-54653020D01*
X81057806Y-54887010D01*
X81118894Y-55114993D01*
X81209214Y-55333045D01*
X81209219Y-55333056D01*
X81280177Y-55455957D01*
X81327227Y-55537450D01*
X81327229Y-55537453D01*
X81327230Y-55537454D01*
X81470906Y-55724697D01*
X81470912Y-55724704D01*
X81637795Y-55891587D01*
X81637802Y-55891593D01*
X81727820Y-55960666D01*
X81825050Y-56035273D01*
X81956418Y-56111118D01*
X82029443Y-56153280D01*
X82029448Y-56153282D01*
X82029451Y-56153284D01*
X82247507Y-56243606D01*
X82475486Y-56304693D01*
X82709489Y-56335500D01*
X82709496Y-56335500D01*
X82945504Y-56335500D01*
X82945511Y-56335500D01*
X83179514Y-56304693D01*
X83407493Y-56243606D01*
X83625549Y-56153284D01*
X83829950Y-56035273D01*
X84017199Y-55891592D01*
X84184092Y-55724699D01*
X84327773Y-55537450D01*
X84445784Y-55333049D01*
X84536106Y-55114993D01*
X84588476Y-54919541D01*
X84620567Y-54863958D01*
X86240813Y-53243713D01*
X99362000Y-53243713D01*
X99362000Y-53756286D01*
X99395253Y-53966239D01*
X99460944Y-54168414D01*
X99557451Y-54357820D01*
X99682390Y-54529786D01*
X99832713Y-54680109D01*
X100004679Y-54805048D01*
X100004681Y-54805049D01*
X100004684Y-54805051D01*
X100194088Y-54901557D01*
X100396257Y-54967246D01*
X100606213Y-55000500D01*
X100606214Y-55000500D01*
X100818786Y-55000500D01*
X100818787Y-55000500D01*
X101028743Y-54967246D01*
X101230912Y-54901557D01*
X101420316Y-54805051D01*
X101442289Y-54789086D01*
X101592286Y-54680109D01*
X101592288Y-54680106D01*
X101592292Y-54680104D01*
X101742604Y-54529792D01*
X101742606Y-54529788D01*
X101742609Y-54529786D01*
X101867548Y-54357820D01*
X101867547Y-54357820D01*
X101867551Y-54357816D01*
X101964057Y-54168412D01*
X102029746Y-53966243D01*
X102063000Y-53756287D01*
X102063000Y-53243713D01*
X102029746Y-53033757D01*
X101964057Y-52831588D01*
X101867551Y-52642184D01*
X101867549Y-52642181D01*
X101867548Y-52642179D01*
X101742609Y-52470213D01*
X101592286Y-52319890D01*
X101420320Y-52194951D01*
X101230914Y-52098444D01*
X101230913Y-52098443D01*
X101230912Y-52098443D01*
X101028743Y-52032754D01*
X101028741Y-52032753D01*
X101028740Y-52032753D01*
X100867457Y-52007208D01*
X100818787Y-51999500D01*
X100606213Y-51999500D01*
X100557542Y-52007208D01*
X100396260Y-52032753D01*
X100194085Y-52098444D01*
X100004679Y-52194951D01*
X99832713Y-52319890D01*
X99682390Y-52470213D01*
X99557451Y-52642179D01*
X99460944Y-52831585D01*
X99395253Y-53033760D01*
X99362000Y-53243713D01*
X86240813Y-53243713D01*
X89447708Y-50036819D01*
X89509031Y-50003334D01*
X89535389Y-50000500D01*
X100840582Y-50000500D01*
X100840594Y-50000499D01*
X101362502Y-50000499D01*
X101362508Y-50000499D01*
X101465297Y-49989999D01*
X101631834Y-49934814D01*
X101781156Y-49842712D01*
X101905212Y-49718656D01*
X101997314Y-49569334D01*
X102052499Y-49402797D01*
X102063000Y-49300009D01*
X102062999Y-49184399D01*
X102076514Y-49128105D01*
X102103068Y-49075992D01*
X102176053Y-48851368D01*
X102213000Y-48618097D01*
X102213000Y-48381902D01*
X102176053Y-48148631D01*
X102107076Y-47936344D01*
X102103068Y-47924008D01*
X102103066Y-47924005D01*
X102103065Y-47924000D01*
X102076514Y-47871891D01*
X102062999Y-47815597D01*
X102062999Y-47699998D01*
X102062998Y-47699981D01*
X102052499Y-47597203D01*
X102052498Y-47597200D01*
X101997314Y-47430666D01*
X101905212Y-47281344D01*
X101781156Y-47157288D01*
X101631834Y-47065186D01*
X101465297Y-47010001D01*
X101465295Y-47010000D01*
X101362516Y-46999500D01*
X101362509Y-46999500D01*
X100830594Y-46999500D01*
X100830592Y-46999500D01*
X88980592Y-46999500D01*
X88744408Y-46999500D01*
X88744403Y-46999500D01*
X88511131Y-47036446D01*
X88286503Y-47109433D01*
X88076066Y-47216657D01*
X87987036Y-47281342D01*
X87884990Y-47355483D01*
X87884988Y-47355485D01*
X87884987Y-47355485D01*
X84839680Y-50400791D01*
X84778357Y-50434276D01*
X84708665Y-50429292D01*
X84652732Y-50387420D01*
X84628315Y-50321956D01*
X84627999Y-50313134D01*
X84627999Y-48354992D01*
X84617499Y-48252203D01*
X84562314Y-48085666D01*
X84470212Y-47936344D01*
X84346156Y-47812288D01*
X84196834Y-47720186D01*
X84030297Y-47665001D01*
X84030295Y-47665000D01*
X83927510Y-47654500D01*
X81727498Y-47654500D01*
X81727481Y-47654501D01*
X81624703Y-47665000D01*
X81624700Y-47665001D01*
X81458168Y-47720185D01*
X81458163Y-47720187D01*
X81308842Y-47812289D01*
X81184789Y-47936342D01*
X81092687Y-48085663D01*
X81092686Y-48085666D01*
X81037501Y-48252203D01*
X81037501Y-48252204D01*
X81037500Y-48252204D01*
X81027000Y-48354983D01*
X77250500Y-48354983D01*
X77250500Y-39034500D01*
X77270185Y-38967461D01*
X77322989Y-38921706D01*
X77374500Y-38910500D01*
X152655500Y-38910500D01*
X152722539Y-38930185D01*
G37*
%TD.AperFunction*%
%TD*%
M02*
