%TF.GenerationSoftware,KiCad,Pcbnew,10.0.5*%
%TF.CreationDate,2026-09-24T22:54:21+05:30*%
%TF.ProjectId,Water Level Indicator,57617465-7220-44c6-9576-656c20496e64,rev?*%
%TF.SameCoordinates,Original*%
%TF.FileFunction,Legend,Top*%
%TF.FilePolarity,Positive*%
%FSLAX46Y46*%
G04 Gerber Fmt 4.6, Leading zero omitted, Abs format (unit mm)*
G04 Created by KiCad (PCBNEW 10.0.5) date 2026-09-24 22:54:21*
%MOMM*%
%LPD*%
G01*
G04 APERTURE LIST*
%ADD10C,0.100000*%
%ADD11C,0.150000*%
%ADD12C,0.120000*%
G04 APERTURE END LIST*
D10*
X81847104Y-95476265D02*
X86847104Y-95476265D01*
X86847104Y-95476265D02*
X83275676Y-97142931D01*
X83275676Y-97142931D02*
X86847104Y-98809598D01*
X86847104Y-98809598D02*
X81847104Y-98809598D01*
X81847104Y-103333408D02*
X84466152Y-103333408D01*
X84466152Y-103333408D02*
X84942342Y-103095313D01*
X84942342Y-103095313D02*
X85180438Y-102619122D01*
X85180438Y-102619122D02*
X85180438Y-101666741D01*
X85180438Y-101666741D02*
X84942342Y-101190551D01*
X82085200Y-103333408D02*
X81847104Y-102857217D01*
X81847104Y-102857217D02*
X81847104Y-101666741D01*
X81847104Y-101666741D02*
X82085200Y-101190551D01*
X82085200Y-101190551D02*
X82561390Y-100952455D01*
X82561390Y-100952455D02*
X83037580Y-100952455D01*
X83037580Y-100952455D02*
X83513771Y-101190551D01*
X83513771Y-101190551D02*
X83751866Y-101666741D01*
X83751866Y-101666741D02*
X83751866Y-102857217D01*
X83751866Y-102857217D02*
X83989961Y-103333408D01*
X85180438Y-105714361D02*
X81847104Y-105714361D01*
X84704247Y-105714361D02*
X84942342Y-105952456D01*
X84942342Y-105952456D02*
X85180438Y-106428646D01*
X85180438Y-106428646D02*
X85180438Y-107142932D01*
X85180438Y-107142932D02*
X84942342Y-107619123D01*
X84942342Y-107619123D02*
X84466152Y-107857218D01*
X84466152Y-107857218D02*
X81847104Y-107857218D01*
X81847104Y-110238171D02*
X85180438Y-110238171D01*
X86847104Y-110238171D02*
X86609009Y-110000075D01*
X86609009Y-110000075D02*
X86370914Y-110238171D01*
X86370914Y-110238171D02*
X86609009Y-110476266D01*
X86609009Y-110476266D02*
X86847104Y-110238171D01*
X86847104Y-110238171D02*
X86370914Y-110238171D01*
X81847104Y-114761980D02*
X86847104Y-114761980D01*
X82085200Y-114761980D02*
X81847104Y-114285789D01*
X81847104Y-114285789D02*
X81847104Y-113333408D01*
X81847104Y-113333408D02*
X82085200Y-112857218D01*
X82085200Y-112857218D02*
X82323295Y-112619123D01*
X82323295Y-112619123D02*
X82799485Y-112381027D01*
X82799485Y-112381027D02*
X84228057Y-112381027D01*
X84228057Y-112381027D02*
X84704247Y-112619123D01*
X84704247Y-112619123D02*
X84942342Y-112857218D01*
X84942342Y-112857218D02*
X85180438Y-113333408D01*
X85180438Y-113333408D02*
X85180438Y-114285789D01*
X85180438Y-114285789D02*
X84942342Y-114761980D01*
X82085200Y-119047695D02*
X81847104Y-118571504D01*
X81847104Y-118571504D02*
X81847104Y-117619123D01*
X81847104Y-117619123D02*
X82085200Y-117142933D01*
X82085200Y-117142933D02*
X82561390Y-116904837D01*
X82561390Y-116904837D02*
X84466152Y-116904837D01*
X84466152Y-116904837D02*
X84942342Y-117142933D01*
X84942342Y-117142933D02*
X85180438Y-117619123D01*
X85180438Y-117619123D02*
X85180438Y-118571504D01*
X85180438Y-118571504D02*
X84942342Y-119047695D01*
X84942342Y-119047695D02*
X84466152Y-119285790D01*
X84466152Y-119285790D02*
X83989961Y-119285790D01*
X83989961Y-119285790D02*
X83513771Y-116904837D01*
X82085200Y-123333409D02*
X81847104Y-122857218D01*
X81847104Y-122857218D02*
X81847104Y-121904837D01*
X81847104Y-121904837D02*
X82085200Y-121428647D01*
X82085200Y-121428647D02*
X82561390Y-121190551D01*
X82561390Y-121190551D02*
X84466152Y-121190551D01*
X84466152Y-121190551D02*
X84942342Y-121428647D01*
X84942342Y-121428647D02*
X85180438Y-121904837D01*
X85180438Y-121904837D02*
X85180438Y-122857218D01*
X85180438Y-122857218D02*
X84942342Y-123333409D01*
X84942342Y-123333409D02*
X84466152Y-123571504D01*
X84466152Y-123571504D02*
X83989961Y-123571504D01*
X83989961Y-123571504D02*
X83513771Y-121190551D01*
X85180438Y-125714361D02*
X80180438Y-125714361D01*
X84942342Y-125714361D02*
X85180438Y-126190551D01*
X85180438Y-126190551D02*
X85180438Y-127142932D01*
X85180438Y-127142932D02*
X84942342Y-127619123D01*
X84942342Y-127619123D02*
X84704247Y-127857218D01*
X84704247Y-127857218D02*
X84228057Y-128095313D01*
X84228057Y-128095313D02*
X82799485Y-128095313D01*
X82799485Y-128095313D02*
X82323295Y-127857218D01*
X82323295Y-127857218D02*
X82085200Y-127619123D01*
X82085200Y-127619123D02*
X81847104Y-127142932D01*
X81847104Y-127142932D02*
X81847104Y-126190551D01*
X81847104Y-126190551D02*
X82085200Y-125714361D01*
X136890150Y-73828020D02*
X138509197Y-73828020D01*
X138509197Y-73828020D02*
X138699673Y-73732782D01*
X138699673Y-73732782D02*
X138794912Y-73637544D01*
X138794912Y-73637544D02*
X138890150Y-73447068D01*
X138890150Y-73447068D02*
X138890150Y-73066115D01*
X138890150Y-73066115D02*
X138794912Y-72875639D01*
X138794912Y-72875639D02*
X138699673Y-72780401D01*
X138699673Y-72780401D02*
X138509197Y-72685163D01*
X138509197Y-72685163D02*
X136890150Y-72685163D01*
X137556816Y-71732782D02*
X138890150Y-71732782D01*
X137747292Y-71732782D02*
X137652054Y-71637544D01*
X137652054Y-71637544D02*
X137556816Y-71447068D01*
X137556816Y-71447068D02*
X137556816Y-71161353D01*
X137556816Y-71161353D02*
X137652054Y-70970877D01*
X137652054Y-70970877D02*
X137842531Y-70875639D01*
X137842531Y-70875639D02*
X138890150Y-70875639D01*
X137556816Y-70208972D02*
X137556816Y-69447068D01*
X136890150Y-69923258D02*
X138604435Y-69923258D01*
X138604435Y-69923258D02*
X138794912Y-69828020D01*
X138794912Y-69828020D02*
X138890150Y-69637544D01*
X138890150Y-69637544D02*
X138890150Y-69447068D01*
X138890150Y-68780401D02*
X137556816Y-68780401D01*
X137937769Y-68780401D02*
X137747292Y-68685163D01*
X137747292Y-68685163D02*
X137652054Y-68589925D01*
X137652054Y-68589925D02*
X137556816Y-68399449D01*
X137556816Y-68399449D02*
X137556816Y-68208972D01*
X138890150Y-66685163D02*
X137842531Y-66685163D01*
X137842531Y-66685163D02*
X137652054Y-66780401D01*
X137652054Y-66780401D02*
X137556816Y-66970877D01*
X137556816Y-66970877D02*
X137556816Y-67351830D01*
X137556816Y-67351830D02*
X137652054Y-67542306D01*
X138794912Y-66685163D02*
X138890150Y-66875639D01*
X138890150Y-66875639D02*
X138890150Y-67351830D01*
X138890150Y-67351830D02*
X138794912Y-67542306D01*
X138794912Y-67542306D02*
X138604435Y-67637544D01*
X138604435Y-67637544D02*
X138413959Y-67637544D01*
X138413959Y-67637544D02*
X138223483Y-67542306D01*
X138223483Y-67542306D02*
X138128245Y-67351830D01*
X138128245Y-67351830D02*
X138128245Y-66875639D01*
X138128245Y-66875639D02*
X138033007Y-66685163D01*
X138794912Y-64304210D02*
X138890150Y-64018496D01*
X138890150Y-64018496D02*
X138890150Y-63542305D01*
X138890150Y-63542305D02*
X138794912Y-63351829D01*
X138794912Y-63351829D02*
X138699673Y-63256591D01*
X138699673Y-63256591D02*
X138509197Y-63161353D01*
X138509197Y-63161353D02*
X138318721Y-63161353D01*
X138318721Y-63161353D02*
X138128245Y-63256591D01*
X138128245Y-63256591D02*
X138033007Y-63351829D01*
X138033007Y-63351829D02*
X137937769Y-63542305D01*
X137937769Y-63542305D02*
X137842531Y-63923258D01*
X137842531Y-63923258D02*
X137747292Y-64113734D01*
X137747292Y-64113734D02*
X137652054Y-64208972D01*
X137652054Y-64208972D02*
X137461578Y-64304210D01*
X137461578Y-64304210D02*
X137271102Y-64304210D01*
X137271102Y-64304210D02*
X137080626Y-64208972D01*
X137080626Y-64208972D02*
X136985388Y-64113734D01*
X136985388Y-64113734D02*
X136890150Y-63923258D01*
X136890150Y-63923258D02*
X136890150Y-63447067D01*
X136890150Y-63447067D02*
X136985388Y-63161353D01*
X138890150Y-62018496D02*
X138794912Y-62208972D01*
X138794912Y-62208972D02*
X138699673Y-62304210D01*
X138699673Y-62304210D02*
X138509197Y-62399448D01*
X138509197Y-62399448D02*
X137937769Y-62399448D01*
X137937769Y-62399448D02*
X137747292Y-62304210D01*
X137747292Y-62304210D02*
X137652054Y-62208972D01*
X137652054Y-62208972D02*
X137556816Y-62018496D01*
X137556816Y-62018496D02*
X137556816Y-61732781D01*
X137556816Y-61732781D02*
X137652054Y-61542305D01*
X137652054Y-61542305D02*
X137747292Y-61447067D01*
X137747292Y-61447067D02*
X137937769Y-61351829D01*
X137937769Y-61351829D02*
X138509197Y-61351829D01*
X138509197Y-61351829D02*
X138699673Y-61447067D01*
X138699673Y-61447067D02*
X138794912Y-61542305D01*
X138794912Y-61542305D02*
X138890150Y-61732781D01*
X138890150Y-61732781D02*
X138890150Y-62018496D01*
X137556816Y-60494686D02*
X138890150Y-60494686D01*
X137747292Y-60494686D02*
X137652054Y-60399448D01*
X137652054Y-60399448D02*
X137556816Y-60208972D01*
X137556816Y-60208972D02*
X137556816Y-59923257D01*
X137556816Y-59923257D02*
X137652054Y-59732781D01*
X137652054Y-59732781D02*
X137842531Y-59637543D01*
X137842531Y-59637543D02*
X138890150Y-59637543D01*
X138890150Y-58685162D02*
X137556816Y-58685162D01*
X136890150Y-58685162D02*
X136985388Y-58780400D01*
X136985388Y-58780400D02*
X137080626Y-58685162D01*
X137080626Y-58685162D02*
X136985388Y-58589924D01*
X136985388Y-58589924D02*
X136890150Y-58685162D01*
X136890150Y-58685162D02*
X137080626Y-58685162D01*
X138794912Y-56875638D02*
X138890150Y-57066114D01*
X138890150Y-57066114D02*
X138890150Y-57447067D01*
X138890150Y-57447067D02*
X138794912Y-57637543D01*
X138794912Y-57637543D02*
X138699673Y-57732781D01*
X138699673Y-57732781D02*
X138509197Y-57828019D01*
X138509197Y-57828019D02*
X137937769Y-57828019D01*
X137937769Y-57828019D02*
X137747292Y-57732781D01*
X137747292Y-57732781D02*
X137652054Y-57637543D01*
X137652054Y-57637543D02*
X137556816Y-57447067D01*
X137556816Y-57447067D02*
X137556816Y-57066114D01*
X137556816Y-57066114D02*
X137652054Y-56875638D01*
X142014800Y-73923258D02*
X142110038Y-73637544D01*
X142110038Y-73637544D02*
X142110038Y-73161353D01*
X142110038Y-73161353D02*
X142014800Y-72970877D01*
X142014800Y-72970877D02*
X141919561Y-72875639D01*
X141919561Y-72875639D02*
X141729085Y-72780401D01*
X141729085Y-72780401D02*
X141538609Y-72780401D01*
X141538609Y-72780401D02*
X141348133Y-72875639D01*
X141348133Y-72875639D02*
X141252895Y-72970877D01*
X141252895Y-72970877D02*
X141157657Y-73161353D01*
X141157657Y-73161353D02*
X141062419Y-73542306D01*
X141062419Y-73542306D02*
X140967180Y-73732782D01*
X140967180Y-73732782D02*
X140871942Y-73828020D01*
X140871942Y-73828020D02*
X140681466Y-73923258D01*
X140681466Y-73923258D02*
X140490990Y-73923258D01*
X140490990Y-73923258D02*
X140300514Y-73828020D01*
X140300514Y-73828020D02*
X140205276Y-73732782D01*
X140205276Y-73732782D02*
X140110038Y-73542306D01*
X140110038Y-73542306D02*
X140110038Y-73066115D01*
X140110038Y-73066115D02*
X140205276Y-72780401D01*
X142014800Y-71161353D02*
X142110038Y-71351829D01*
X142110038Y-71351829D02*
X142110038Y-71732782D01*
X142110038Y-71732782D02*
X142014800Y-71923258D01*
X142014800Y-71923258D02*
X141824323Y-72018496D01*
X141824323Y-72018496D02*
X141062419Y-72018496D01*
X141062419Y-72018496D02*
X140871942Y-71923258D01*
X140871942Y-71923258D02*
X140776704Y-71732782D01*
X140776704Y-71732782D02*
X140776704Y-71351829D01*
X140776704Y-71351829D02*
X140871942Y-71161353D01*
X140871942Y-71161353D02*
X141062419Y-71066115D01*
X141062419Y-71066115D02*
X141252895Y-71066115D01*
X141252895Y-71066115D02*
X141443371Y-72018496D01*
X140776704Y-70208972D02*
X142110038Y-70208972D01*
X140967180Y-70208972D02*
X140871942Y-70113734D01*
X140871942Y-70113734D02*
X140776704Y-69923258D01*
X140776704Y-69923258D02*
X140776704Y-69637543D01*
X140776704Y-69637543D02*
X140871942Y-69447067D01*
X140871942Y-69447067D02*
X141062419Y-69351829D01*
X141062419Y-69351829D02*
X142110038Y-69351829D01*
X142014800Y-68494686D02*
X142110038Y-68304210D01*
X142110038Y-68304210D02*
X142110038Y-67923258D01*
X142110038Y-67923258D02*
X142014800Y-67732781D01*
X142014800Y-67732781D02*
X141824323Y-67637543D01*
X141824323Y-67637543D02*
X141729085Y-67637543D01*
X141729085Y-67637543D02*
X141538609Y-67732781D01*
X141538609Y-67732781D02*
X141443371Y-67923258D01*
X141443371Y-67923258D02*
X141443371Y-68208972D01*
X141443371Y-68208972D02*
X141348133Y-68399448D01*
X141348133Y-68399448D02*
X141157657Y-68494686D01*
X141157657Y-68494686D02*
X141062419Y-68494686D01*
X141062419Y-68494686D02*
X140871942Y-68399448D01*
X140871942Y-68399448D02*
X140776704Y-68208972D01*
X140776704Y-68208972D02*
X140776704Y-67923258D01*
X140776704Y-67923258D02*
X140871942Y-67732781D01*
X142110038Y-66494686D02*
X142014800Y-66685162D01*
X142014800Y-66685162D02*
X141919561Y-66780400D01*
X141919561Y-66780400D02*
X141729085Y-66875638D01*
X141729085Y-66875638D02*
X141157657Y-66875638D01*
X141157657Y-66875638D02*
X140967180Y-66780400D01*
X140967180Y-66780400D02*
X140871942Y-66685162D01*
X140871942Y-66685162D02*
X140776704Y-66494686D01*
X140776704Y-66494686D02*
X140776704Y-66208971D01*
X140776704Y-66208971D02*
X140871942Y-66018495D01*
X140871942Y-66018495D02*
X140967180Y-65923257D01*
X140967180Y-65923257D02*
X141157657Y-65828019D01*
X141157657Y-65828019D02*
X141729085Y-65828019D01*
X141729085Y-65828019D02*
X141919561Y-65923257D01*
X141919561Y-65923257D02*
X142014800Y-66018495D01*
X142014800Y-66018495D02*
X142110038Y-66208971D01*
X142110038Y-66208971D02*
X142110038Y-66494686D01*
X142110038Y-64970876D02*
X140776704Y-64970876D01*
X141157657Y-64970876D02*
X140967180Y-64875638D01*
X140967180Y-64875638D02*
X140871942Y-64780400D01*
X140871942Y-64780400D02*
X140776704Y-64589924D01*
X140776704Y-64589924D02*
X140776704Y-64399447D01*
X139000038Y-107607068D02*
X139000038Y-107226115D01*
X139000038Y-107226115D02*
X139095276Y-107035639D01*
X139095276Y-107035639D02*
X139285752Y-106845163D01*
X139285752Y-106845163D02*
X139666704Y-106749925D01*
X139666704Y-106749925D02*
X140333371Y-106749925D01*
X140333371Y-106749925D02*
X140714323Y-106845163D01*
X140714323Y-106845163D02*
X140904800Y-107035639D01*
X140904800Y-107035639D02*
X141000038Y-107226115D01*
X141000038Y-107226115D02*
X141000038Y-107607068D01*
X141000038Y-107607068D02*
X140904800Y-107797544D01*
X140904800Y-107797544D02*
X140714323Y-107988020D01*
X140714323Y-107988020D02*
X140333371Y-108083258D01*
X140333371Y-108083258D02*
X139666704Y-108083258D01*
X139666704Y-108083258D02*
X139285752Y-107988020D01*
X139285752Y-107988020D02*
X139095276Y-107797544D01*
X139095276Y-107797544D02*
X139000038Y-107607068D01*
X141000038Y-104940401D02*
X141000038Y-105892782D01*
X141000038Y-105892782D02*
X139000038Y-105892782D01*
X139952419Y-104273734D02*
X139952419Y-103607067D01*
X141000038Y-103321353D02*
X141000038Y-104273734D01*
X141000038Y-104273734D02*
X139000038Y-104273734D01*
X139000038Y-104273734D02*
X139000038Y-103321353D01*
X141000038Y-102464210D02*
X139000038Y-102464210D01*
X139000038Y-102464210D02*
X139000038Y-101988020D01*
X139000038Y-101988020D02*
X139095276Y-101702305D01*
X139095276Y-101702305D02*
X139285752Y-101511829D01*
X139285752Y-101511829D02*
X139476228Y-101416591D01*
X139476228Y-101416591D02*
X139857180Y-101321353D01*
X139857180Y-101321353D02*
X140142895Y-101321353D01*
X140142895Y-101321353D02*
X140523847Y-101416591D01*
X140523847Y-101416591D02*
X140714323Y-101511829D01*
X140714323Y-101511829D02*
X140904800Y-101702305D01*
X140904800Y-101702305D02*
X141000038Y-101988020D01*
X141000038Y-101988020D02*
X141000038Y-102464210D01*
X141000038Y-98940400D02*
X139000038Y-98940400D01*
X139000038Y-98940400D02*
X139000038Y-98464210D01*
X139000038Y-98464210D02*
X139095276Y-98178495D01*
X139095276Y-98178495D02*
X139285752Y-97988019D01*
X139285752Y-97988019D02*
X139476228Y-97892781D01*
X139476228Y-97892781D02*
X139857180Y-97797543D01*
X139857180Y-97797543D02*
X140142895Y-97797543D01*
X140142895Y-97797543D02*
X140523847Y-97892781D01*
X140523847Y-97892781D02*
X140714323Y-97988019D01*
X140714323Y-97988019D02*
X140904800Y-98178495D01*
X140904800Y-98178495D02*
X141000038Y-98464210D01*
X141000038Y-98464210D02*
X141000038Y-98940400D01*
X141000038Y-96940400D02*
X139666704Y-96940400D01*
X139000038Y-96940400D02*
X139095276Y-97035638D01*
X139095276Y-97035638D02*
X139190514Y-96940400D01*
X139190514Y-96940400D02*
X139095276Y-96845162D01*
X139095276Y-96845162D02*
X139000038Y-96940400D01*
X139000038Y-96940400D02*
X139190514Y-96940400D01*
X140904800Y-96083257D02*
X141000038Y-95892781D01*
X141000038Y-95892781D02*
X141000038Y-95511829D01*
X141000038Y-95511829D02*
X140904800Y-95321352D01*
X140904800Y-95321352D02*
X140714323Y-95226114D01*
X140714323Y-95226114D02*
X140619085Y-95226114D01*
X140619085Y-95226114D02*
X140428609Y-95321352D01*
X140428609Y-95321352D02*
X140333371Y-95511829D01*
X140333371Y-95511829D02*
X140333371Y-95797543D01*
X140333371Y-95797543D02*
X140238133Y-95988019D01*
X140238133Y-95988019D02*
X140047657Y-96083257D01*
X140047657Y-96083257D02*
X139952419Y-96083257D01*
X139952419Y-96083257D02*
X139761942Y-95988019D01*
X139761942Y-95988019D02*
X139666704Y-95797543D01*
X139666704Y-95797543D02*
X139666704Y-95511829D01*
X139666704Y-95511829D02*
X139761942Y-95321352D01*
X139666704Y-94368971D02*
X141666704Y-94368971D01*
X139761942Y-94368971D02*
X139666704Y-94178495D01*
X139666704Y-94178495D02*
X139666704Y-93797542D01*
X139666704Y-93797542D02*
X139761942Y-93607066D01*
X139761942Y-93607066D02*
X139857180Y-93511828D01*
X139857180Y-93511828D02*
X140047657Y-93416590D01*
X140047657Y-93416590D02*
X140619085Y-93416590D01*
X140619085Y-93416590D02*
X140809561Y-93511828D01*
X140809561Y-93511828D02*
X140904800Y-93607066D01*
X140904800Y-93607066D02*
X141000038Y-93797542D01*
X141000038Y-93797542D02*
X141000038Y-94178495D01*
X141000038Y-94178495D02*
X140904800Y-94368971D01*
X141000038Y-92273733D02*
X140904800Y-92464209D01*
X140904800Y-92464209D02*
X140714323Y-92559447D01*
X140714323Y-92559447D02*
X139000038Y-92559447D01*
X141000038Y-90654685D02*
X139952419Y-90654685D01*
X139952419Y-90654685D02*
X139761942Y-90749923D01*
X139761942Y-90749923D02*
X139666704Y-90940399D01*
X139666704Y-90940399D02*
X139666704Y-91321352D01*
X139666704Y-91321352D02*
X139761942Y-91511828D01*
X140904800Y-90654685D02*
X141000038Y-90845161D01*
X141000038Y-90845161D02*
X141000038Y-91321352D01*
X141000038Y-91321352D02*
X140904800Y-91511828D01*
X140904800Y-91511828D02*
X140714323Y-91607066D01*
X140714323Y-91607066D02*
X140523847Y-91607066D01*
X140523847Y-91607066D02*
X140333371Y-91511828D01*
X140333371Y-91511828D02*
X140238133Y-91321352D01*
X140238133Y-91321352D02*
X140238133Y-90845161D01*
X140238133Y-90845161D02*
X140142895Y-90654685D01*
X139666704Y-89892780D02*
X141000038Y-89416590D01*
X139666704Y-88940399D02*
X141000038Y-89416590D01*
X141000038Y-89416590D02*
X141476228Y-89607066D01*
X141476228Y-89607066D02*
X141571466Y-89702304D01*
X141571466Y-89702304D02*
X141666704Y-89892780D01*
X108371027Y-123512475D02*
X108942455Y-123512475D01*
X108656741Y-124512475D02*
X108656741Y-123512475D01*
X109275789Y-124512475D02*
X109275789Y-123512475D01*
X109704360Y-124512475D02*
X109704360Y-123988665D01*
X109704360Y-123988665D02*
X109656741Y-123893427D01*
X109656741Y-123893427D02*
X109561503Y-123845808D01*
X109561503Y-123845808D02*
X109418646Y-123845808D01*
X109418646Y-123845808D02*
X109323408Y-123893427D01*
X109323408Y-123893427D02*
X109275789Y-123941046D01*
X110180551Y-124512475D02*
X110180551Y-123845808D01*
X110180551Y-123512475D02*
X110132932Y-123560094D01*
X110132932Y-123560094D02*
X110180551Y-123607713D01*
X110180551Y-123607713D02*
X110228170Y-123560094D01*
X110228170Y-123560094D02*
X110180551Y-123512475D01*
X110180551Y-123512475D02*
X110180551Y-123607713D01*
X110609122Y-124464856D02*
X110704360Y-124512475D01*
X110704360Y-124512475D02*
X110894836Y-124512475D01*
X110894836Y-124512475D02*
X110990074Y-124464856D01*
X110990074Y-124464856D02*
X111037693Y-124369617D01*
X111037693Y-124369617D02*
X111037693Y-124321998D01*
X111037693Y-124321998D02*
X110990074Y-124226760D01*
X110990074Y-124226760D02*
X110894836Y-124179141D01*
X110894836Y-124179141D02*
X110751979Y-124179141D01*
X110751979Y-124179141D02*
X110656741Y-124131522D01*
X110656741Y-124131522D02*
X110609122Y-124036284D01*
X110609122Y-124036284D02*
X110609122Y-123988665D01*
X110609122Y-123988665D02*
X110656741Y-123893427D01*
X110656741Y-123893427D02*
X110751979Y-123845808D01*
X110751979Y-123845808D02*
X110894836Y-123845808D01*
X110894836Y-123845808D02*
X110990074Y-123893427D01*
X112180551Y-124464856D02*
X112275789Y-124512475D01*
X112275789Y-124512475D02*
X112466265Y-124512475D01*
X112466265Y-124512475D02*
X112561503Y-124464856D01*
X112561503Y-124464856D02*
X112609122Y-124369617D01*
X112609122Y-124369617D02*
X112609122Y-124321998D01*
X112609122Y-124321998D02*
X112561503Y-124226760D01*
X112561503Y-124226760D02*
X112466265Y-124179141D01*
X112466265Y-124179141D02*
X112323408Y-124179141D01*
X112323408Y-124179141D02*
X112228170Y-124131522D01*
X112228170Y-124131522D02*
X112180551Y-124036284D01*
X112180551Y-124036284D02*
X112180551Y-123988665D01*
X112180551Y-123988665D02*
X112228170Y-123893427D01*
X112228170Y-123893427D02*
X112323408Y-123845808D01*
X112323408Y-123845808D02*
X112466265Y-123845808D01*
X112466265Y-123845808D02*
X112561503Y-123893427D01*
X113037694Y-124512475D02*
X113037694Y-123845808D01*
X113037694Y-123512475D02*
X112990075Y-123560094D01*
X112990075Y-123560094D02*
X113037694Y-123607713D01*
X113037694Y-123607713D02*
X113085313Y-123560094D01*
X113085313Y-123560094D02*
X113037694Y-123512475D01*
X113037694Y-123512475D02*
X113037694Y-123607713D01*
X113942455Y-124512475D02*
X113942455Y-123512475D01*
X113942455Y-124464856D02*
X113847217Y-124512475D01*
X113847217Y-124512475D02*
X113656741Y-124512475D01*
X113656741Y-124512475D02*
X113561503Y-124464856D01*
X113561503Y-124464856D02*
X113513884Y-124417236D01*
X113513884Y-124417236D02*
X113466265Y-124321998D01*
X113466265Y-124321998D02*
X113466265Y-124036284D01*
X113466265Y-124036284D02*
X113513884Y-123941046D01*
X113513884Y-123941046D02*
X113561503Y-123893427D01*
X113561503Y-123893427D02*
X113656741Y-123845808D01*
X113656741Y-123845808D02*
X113847217Y-123845808D01*
X113847217Y-123845808D02*
X113942455Y-123893427D01*
X114799598Y-124464856D02*
X114704360Y-124512475D01*
X114704360Y-124512475D02*
X114513884Y-124512475D01*
X114513884Y-124512475D02*
X114418646Y-124464856D01*
X114418646Y-124464856D02*
X114371027Y-124369617D01*
X114371027Y-124369617D02*
X114371027Y-123988665D01*
X114371027Y-123988665D02*
X114418646Y-123893427D01*
X114418646Y-123893427D02*
X114513884Y-123845808D01*
X114513884Y-123845808D02*
X114704360Y-123845808D01*
X114704360Y-123845808D02*
X114799598Y-123893427D01*
X114799598Y-123893427D02*
X114847217Y-123988665D01*
X114847217Y-123988665D02*
X114847217Y-124083903D01*
X114847217Y-124083903D02*
X114371027Y-124179141D01*
X109704360Y-125455752D02*
X109704360Y-126122419D01*
X109275789Y-125455752D02*
X109275789Y-125979561D01*
X109275789Y-125979561D02*
X109323408Y-126074800D01*
X109323408Y-126074800D02*
X109418646Y-126122419D01*
X109418646Y-126122419D02*
X109561503Y-126122419D01*
X109561503Y-126122419D02*
X109656741Y-126074800D01*
X109656741Y-126074800D02*
X109704360Y-126027180D01*
X110180551Y-125455752D02*
X110180551Y-126455752D01*
X110180551Y-125503371D02*
X110275789Y-125455752D01*
X110275789Y-125455752D02*
X110466265Y-125455752D01*
X110466265Y-125455752D02*
X110561503Y-125503371D01*
X110561503Y-125503371D02*
X110609122Y-125550990D01*
X110609122Y-125550990D02*
X110656741Y-125646228D01*
X110656741Y-125646228D02*
X110656741Y-125931942D01*
X110656741Y-125931942D02*
X110609122Y-126027180D01*
X110609122Y-126027180D02*
X110561503Y-126074800D01*
X110561503Y-126074800D02*
X110466265Y-126122419D01*
X110466265Y-126122419D02*
X110275789Y-126122419D01*
X110275789Y-126122419D02*
X110180551Y-126074800D01*
X111704361Y-125455752D02*
X112085313Y-125455752D01*
X111847218Y-126122419D02*
X111847218Y-125265276D01*
X111847218Y-125265276D02*
X111894837Y-125170038D01*
X111894837Y-125170038D02*
X111990075Y-125122419D01*
X111990075Y-125122419D02*
X112085313Y-125122419D01*
X112561504Y-126122419D02*
X112466266Y-126074800D01*
X112466266Y-126074800D02*
X112418647Y-126027180D01*
X112418647Y-126027180D02*
X112371028Y-125931942D01*
X112371028Y-125931942D02*
X112371028Y-125646228D01*
X112371028Y-125646228D02*
X112418647Y-125550990D01*
X112418647Y-125550990D02*
X112466266Y-125503371D01*
X112466266Y-125503371D02*
X112561504Y-125455752D01*
X112561504Y-125455752D02*
X112704361Y-125455752D01*
X112704361Y-125455752D02*
X112799599Y-125503371D01*
X112799599Y-125503371D02*
X112847218Y-125550990D01*
X112847218Y-125550990D02*
X112894837Y-125646228D01*
X112894837Y-125646228D02*
X112894837Y-125931942D01*
X112894837Y-125931942D02*
X112847218Y-126027180D01*
X112847218Y-126027180D02*
X112799599Y-126074800D01*
X112799599Y-126074800D02*
X112704361Y-126122419D01*
X112704361Y-126122419D02*
X112561504Y-126122419D01*
X113323409Y-126122419D02*
X113323409Y-125455752D01*
X113323409Y-125646228D02*
X113371028Y-125550990D01*
X113371028Y-125550990D02*
X113418647Y-125503371D01*
X113418647Y-125503371D02*
X113513885Y-125455752D01*
X113513885Y-125455752D02*
X113609123Y-125455752D01*
X114704362Y-125598609D02*
X115037695Y-125598609D01*
X115180552Y-126122419D02*
X114704362Y-126122419D01*
X114704362Y-126122419D02*
X114704362Y-125122419D01*
X114704362Y-125122419D02*
X115180552Y-125122419D01*
X115561505Y-126074800D02*
X115656743Y-126122419D01*
X115656743Y-126122419D02*
X115847219Y-126122419D01*
X115847219Y-126122419D02*
X115942457Y-126074800D01*
X115942457Y-126074800D02*
X115990076Y-125979561D01*
X115990076Y-125979561D02*
X115990076Y-125931942D01*
X115990076Y-125931942D02*
X115942457Y-125836704D01*
X115942457Y-125836704D02*
X115847219Y-125789085D01*
X115847219Y-125789085D02*
X115704362Y-125789085D01*
X115704362Y-125789085D02*
X115609124Y-125741466D01*
X115609124Y-125741466D02*
X115561505Y-125646228D01*
X115561505Y-125646228D02*
X115561505Y-125598609D01*
X115561505Y-125598609D02*
X115609124Y-125503371D01*
X115609124Y-125503371D02*
X115704362Y-125455752D01*
X115704362Y-125455752D02*
X115847219Y-125455752D01*
X115847219Y-125455752D02*
X115942457Y-125503371D01*
X116418648Y-125455752D02*
X116418648Y-126455752D01*
X116418648Y-125503371D02*
X116513886Y-125455752D01*
X116513886Y-125455752D02*
X116704362Y-125455752D01*
X116704362Y-125455752D02*
X116799600Y-125503371D01*
X116799600Y-125503371D02*
X116847219Y-125550990D01*
X116847219Y-125550990D02*
X116894838Y-125646228D01*
X116894838Y-125646228D02*
X116894838Y-125931942D01*
X116894838Y-125931942D02*
X116847219Y-126027180D01*
X116847219Y-126027180D02*
X116799600Y-126074800D01*
X116799600Y-126074800D02*
X116704362Y-126122419D01*
X116704362Y-126122419D02*
X116513886Y-126122419D01*
X116513886Y-126122419D02*
X116418648Y-126074800D01*
X117228172Y-125122419D02*
X117847219Y-125122419D01*
X117847219Y-125122419D02*
X117513886Y-125503371D01*
X117513886Y-125503371D02*
X117656743Y-125503371D01*
X117656743Y-125503371D02*
X117751981Y-125550990D01*
X117751981Y-125550990D02*
X117799600Y-125598609D01*
X117799600Y-125598609D02*
X117847219Y-125693847D01*
X117847219Y-125693847D02*
X117847219Y-125931942D01*
X117847219Y-125931942D02*
X117799600Y-126027180D01*
X117799600Y-126027180D02*
X117751981Y-126074800D01*
X117751981Y-126074800D02*
X117656743Y-126122419D01*
X117656743Y-126122419D02*
X117371029Y-126122419D01*
X117371029Y-126122419D02*
X117275791Y-126074800D01*
X117275791Y-126074800D02*
X117228172Y-126027180D01*
X118228172Y-125217657D02*
X118275791Y-125170038D01*
X118275791Y-125170038D02*
X118371029Y-125122419D01*
X118371029Y-125122419D02*
X118609124Y-125122419D01*
X118609124Y-125122419D02*
X118704362Y-125170038D01*
X118704362Y-125170038D02*
X118751981Y-125217657D01*
X118751981Y-125217657D02*
X118799600Y-125312895D01*
X118799600Y-125312895D02*
X118799600Y-125408133D01*
X118799600Y-125408133D02*
X118751981Y-125550990D01*
X118751981Y-125550990D02*
X118180553Y-126122419D01*
X118180553Y-126122419D02*
X118799600Y-126122419D01*
X113940000Y-117950000D02*
X113940000Y-122680000D01*
X113940000Y-115270000D02*
X115850000Y-117950000D01*
X112030000Y-117950000D02*
X115850000Y-117950000D01*
X112030000Y-117950000D02*
X113940000Y-115270000D01*
X113940000Y-115270000D02*
X112030000Y-117950000D01*
D11*
X128064819Y-123243333D02*
X128779104Y-123243333D01*
X128779104Y-123243333D02*
X128921961Y-123290952D01*
X128921961Y-123290952D02*
X129017200Y-123386190D01*
X129017200Y-123386190D02*
X129064819Y-123529047D01*
X129064819Y-123529047D02*
X129064819Y-123624285D01*
X128064819Y-122338571D02*
X128064819Y-122529047D01*
X128064819Y-122529047D02*
X128112438Y-122624285D01*
X128112438Y-122624285D02*
X128160057Y-122671904D01*
X128160057Y-122671904D02*
X128302914Y-122767142D01*
X128302914Y-122767142D02*
X128493390Y-122814761D01*
X128493390Y-122814761D02*
X128874342Y-122814761D01*
X128874342Y-122814761D02*
X128969580Y-122767142D01*
X128969580Y-122767142D02*
X129017200Y-122719523D01*
X129017200Y-122719523D02*
X129064819Y-122624285D01*
X129064819Y-122624285D02*
X129064819Y-122433809D01*
X129064819Y-122433809D02*
X129017200Y-122338571D01*
X129017200Y-122338571D02*
X128969580Y-122290952D01*
X128969580Y-122290952D02*
X128874342Y-122243333D01*
X128874342Y-122243333D02*
X128636247Y-122243333D01*
X128636247Y-122243333D02*
X128541009Y-122290952D01*
X128541009Y-122290952D02*
X128493390Y-122338571D01*
X128493390Y-122338571D02*
X128445771Y-122433809D01*
X128445771Y-122433809D02*
X128445771Y-122624285D01*
X128445771Y-122624285D02*
X128493390Y-122719523D01*
X128493390Y-122719523D02*
X128541009Y-122767142D01*
X128541009Y-122767142D02*
X128636247Y-122814761D01*
X92524819Y-123623333D02*
X93239104Y-123623333D01*
X93239104Y-123623333D02*
X93381961Y-123670952D01*
X93381961Y-123670952D02*
X93477200Y-123766190D01*
X93477200Y-123766190D02*
X93524819Y-123909047D01*
X93524819Y-123909047D02*
X93524819Y-124004285D01*
X92524819Y-122670952D02*
X92524819Y-123147142D01*
X92524819Y-123147142D02*
X93001009Y-123194761D01*
X93001009Y-123194761D02*
X92953390Y-123147142D01*
X92953390Y-123147142D02*
X92905771Y-123051904D01*
X92905771Y-123051904D02*
X92905771Y-122813809D01*
X92905771Y-122813809D02*
X92953390Y-122718571D01*
X92953390Y-122718571D02*
X93001009Y-122670952D01*
X93001009Y-122670952D02*
X93096247Y-122623333D01*
X93096247Y-122623333D02*
X93334342Y-122623333D01*
X93334342Y-122623333D02*
X93429580Y-122670952D01*
X93429580Y-122670952D02*
X93477200Y-122718571D01*
X93477200Y-122718571D02*
X93524819Y-122813809D01*
X93524819Y-122813809D02*
X93524819Y-123051904D01*
X93524819Y-123051904D02*
X93477200Y-123147142D01*
X93477200Y-123147142D02*
X93429580Y-123194761D01*
X148184819Y-77443333D02*
X148899104Y-77443333D01*
X148899104Y-77443333D02*
X149041961Y-77490952D01*
X149041961Y-77490952D02*
X149137200Y-77586190D01*
X149137200Y-77586190D02*
X149184819Y-77729047D01*
X149184819Y-77729047D02*
X149184819Y-77824285D01*
X148280057Y-77014761D02*
X148232438Y-76967142D01*
X148232438Y-76967142D02*
X148184819Y-76871904D01*
X148184819Y-76871904D02*
X148184819Y-76633809D01*
X148184819Y-76633809D02*
X148232438Y-76538571D01*
X148232438Y-76538571D02*
X148280057Y-76490952D01*
X148280057Y-76490952D02*
X148375295Y-76443333D01*
X148375295Y-76443333D02*
X148470533Y-76443333D01*
X148470533Y-76443333D02*
X148613390Y-76490952D01*
X148613390Y-76490952D02*
X149184819Y-77062380D01*
X149184819Y-77062380D02*
X149184819Y-76443333D01*
X142834819Y-99053333D02*
X143549104Y-99053333D01*
X143549104Y-99053333D02*
X143691961Y-99100952D01*
X143691961Y-99100952D02*
X143787200Y-99196190D01*
X143787200Y-99196190D02*
X143834819Y-99339047D01*
X143834819Y-99339047D02*
X143834819Y-99434285D01*
X142834819Y-98672380D02*
X142834819Y-98053333D01*
X142834819Y-98053333D02*
X143215771Y-98386666D01*
X143215771Y-98386666D02*
X143215771Y-98243809D01*
X143215771Y-98243809D02*
X143263390Y-98148571D01*
X143263390Y-98148571D02*
X143311009Y-98100952D01*
X143311009Y-98100952D02*
X143406247Y-98053333D01*
X143406247Y-98053333D02*
X143644342Y-98053333D01*
X143644342Y-98053333D02*
X143739580Y-98100952D01*
X143739580Y-98100952D02*
X143787200Y-98148571D01*
X143787200Y-98148571D02*
X143834819Y-98243809D01*
X143834819Y-98243809D02*
X143834819Y-98529523D01*
X143834819Y-98529523D02*
X143787200Y-98624761D01*
X143787200Y-98624761D02*
X143739580Y-98672380D01*
X143671666Y-49602319D02*
X143671666Y-50316604D01*
X143671666Y-50316604D02*
X143624047Y-50459461D01*
X143624047Y-50459461D02*
X143528809Y-50554700D01*
X143528809Y-50554700D02*
X143385952Y-50602319D01*
X143385952Y-50602319D02*
X143290714Y-50602319D01*
X144290714Y-50030890D02*
X144195476Y-49983271D01*
X144195476Y-49983271D02*
X144147857Y-49935652D01*
X144147857Y-49935652D02*
X144100238Y-49840414D01*
X144100238Y-49840414D02*
X144100238Y-49792795D01*
X144100238Y-49792795D02*
X144147857Y-49697557D01*
X144147857Y-49697557D02*
X144195476Y-49649938D01*
X144195476Y-49649938D02*
X144290714Y-49602319D01*
X144290714Y-49602319D02*
X144481190Y-49602319D01*
X144481190Y-49602319D02*
X144576428Y-49649938D01*
X144576428Y-49649938D02*
X144624047Y-49697557D01*
X144624047Y-49697557D02*
X144671666Y-49792795D01*
X144671666Y-49792795D02*
X144671666Y-49840414D01*
X144671666Y-49840414D02*
X144624047Y-49935652D01*
X144624047Y-49935652D02*
X144576428Y-49983271D01*
X144576428Y-49983271D02*
X144481190Y-50030890D01*
X144481190Y-50030890D02*
X144290714Y-50030890D01*
X144290714Y-50030890D02*
X144195476Y-50078509D01*
X144195476Y-50078509D02*
X144147857Y-50126128D01*
X144147857Y-50126128D02*
X144100238Y-50221366D01*
X144100238Y-50221366D02*
X144100238Y-50411842D01*
X144100238Y-50411842D02*
X144147857Y-50507080D01*
X144147857Y-50507080D02*
X144195476Y-50554700D01*
X144195476Y-50554700D02*
X144290714Y-50602319D01*
X144290714Y-50602319D02*
X144481190Y-50602319D01*
X144481190Y-50602319D02*
X144576428Y-50554700D01*
X144576428Y-50554700D02*
X144624047Y-50507080D01*
X144624047Y-50507080D02*
X144671666Y-50411842D01*
X144671666Y-50411842D02*
X144671666Y-50221366D01*
X144671666Y-50221366D02*
X144624047Y-50126128D01*
X144624047Y-50126128D02*
X144576428Y-50078509D01*
X144576428Y-50078509D02*
X144481190Y-50030890D01*
X88602319Y-52328333D02*
X89316604Y-52328333D01*
X89316604Y-52328333D02*
X89459461Y-52375952D01*
X89459461Y-52375952D02*
X89554700Y-52471190D01*
X89554700Y-52471190D02*
X89602319Y-52614047D01*
X89602319Y-52614047D02*
X89602319Y-52709285D01*
X88602319Y-51947380D02*
X88602319Y-51280714D01*
X88602319Y-51280714D02*
X89602319Y-51709285D01*
X87129047Y-62041009D02*
X87271904Y-62088628D01*
X87271904Y-62088628D02*
X87319523Y-62136247D01*
X87319523Y-62136247D02*
X87367142Y-62231485D01*
X87367142Y-62231485D02*
X87367142Y-62374342D01*
X87367142Y-62374342D02*
X87319523Y-62469580D01*
X87319523Y-62469580D02*
X87271904Y-62517200D01*
X87271904Y-62517200D02*
X87176666Y-62564819D01*
X87176666Y-62564819D02*
X86795714Y-62564819D01*
X86795714Y-62564819D02*
X86795714Y-61564819D01*
X86795714Y-61564819D02*
X87129047Y-61564819D01*
X87129047Y-61564819D02*
X87224285Y-61612438D01*
X87224285Y-61612438D02*
X87271904Y-61660057D01*
X87271904Y-61660057D02*
X87319523Y-61755295D01*
X87319523Y-61755295D02*
X87319523Y-61850533D01*
X87319523Y-61850533D02*
X87271904Y-61945771D01*
X87271904Y-61945771D02*
X87224285Y-61993390D01*
X87224285Y-61993390D02*
X87129047Y-62041009D01*
X87129047Y-62041009D02*
X86795714Y-62041009D01*
X87700476Y-61564819D02*
X88367142Y-61564819D01*
X88367142Y-61564819D02*
X87700476Y-62564819D01*
X87700476Y-62564819D02*
X88367142Y-62564819D01*
X89271904Y-62564819D02*
X88700476Y-62564819D01*
X88986190Y-62564819D02*
X88986190Y-61564819D01*
X88986190Y-61564819D02*
X88890952Y-61707676D01*
X88890952Y-61707676D02*
X88795714Y-61802914D01*
X88795714Y-61802914D02*
X88700476Y-61850533D01*
X83809048Y-68533866D02*
X84570953Y-68533866D01*
X84190000Y-68914819D02*
X84190000Y-68152914D01*
X102134761Y-63990057D02*
X102039523Y-63942438D01*
X102039523Y-63942438D02*
X101944285Y-63847200D01*
X101944285Y-63847200D02*
X101801428Y-63704342D01*
X101801428Y-63704342D02*
X101706190Y-63656723D01*
X101706190Y-63656723D02*
X101610952Y-63656723D01*
X101658571Y-63894819D02*
X101563333Y-63847200D01*
X101563333Y-63847200D02*
X101468095Y-63751961D01*
X101468095Y-63751961D02*
X101420476Y-63561485D01*
X101420476Y-63561485D02*
X101420476Y-63228152D01*
X101420476Y-63228152D02*
X101468095Y-63037676D01*
X101468095Y-63037676D02*
X101563333Y-62942438D01*
X101563333Y-62942438D02*
X101658571Y-62894819D01*
X101658571Y-62894819D02*
X101849047Y-62894819D01*
X101849047Y-62894819D02*
X101944285Y-62942438D01*
X101944285Y-62942438D02*
X102039523Y-63037676D01*
X102039523Y-63037676D02*
X102087142Y-63228152D01*
X102087142Y-63228152D02*
X102087142Y-63561485D01*
X102087142Y-63561485D02*
X102039523Y-63751961D01*
X102039523Y-63751961D02*
X101944285Y-63847200D01*
X101944285Y-63847200D02*
X101849047Y-63894819D01*
X101849047Y-63894819D02*
X101658571Y-63894819D01*
X103039523Y-63894819D02*
X102468095Y-63894819D01*
X102753809Y-63894819D02*
X102753809Y-62894819D01*
X102753809Y-62894819D02*
X102658571Y-63037676D01*
X102658571Y-63037676D02*
X102563333Y-63132914D01*
X102563333Y-63132914D02*
X102468095Y-63180533D01*
X110833333Y-64384819D02*
X110500000Y-63908628D01*
X110261905Y-64384819D02*
X110261905Y-63384819D01*
X110261905Y-63384819D02*
X110642857Y-63384819D01*
X110642857Y-63384819D02*
X110738095Y-63432438D01*
X110738095Y-63432438D02*
X110785714Y-63480057D01*
X110785714Y-63480057D02*
X110833333Y-63575295D01*
X110833333Y-63575295D02*
X110833333Y-63718152D01*
X110833333Y-63718152D02*
X110785714Y-63813390D01*
X110785714Y-63813390D02*
X110738095Y-63861009D01*
X110738095Y-63861009D02*
X110642857Y-63908628D01*
X110642857Y-63908628D02*
X110261905Y-63908628D01*
X111785714Y-64384819D02*
X111214286Y-64384819D01*
X111500000Y-64384819D02*
X111500000Y-63384819D01*
X111500000Y-63384819D02*
X111404762Y-63527676D01*
X111404762Y-63527676D02*
X111309524Y-63622914D01*
X111309524Y-63622914D02*
X111214286Y-63670533D01*
X106133333Y-71304819D02*
X105800000Y-70828628D01*
X105561905Y-71304819D02*
X105561905Y-70304819D01*
X105561905Y-70304819D02*
X105942857Y-70304819D01*
X105942857Y-70304819D02*
X106038095Y-70352438D01*
X106038095Y-70352438D02*
X106085714Y-70400057D01*
X106085714Y-70400057D02*
X106133333Y-70495295D01*
X106133333Y-70495295D02*
X106133333Y-70638152D01*
X106133333Y-70638152D02*
X106085714Y-70733390D01*
X106085714Y-70733390D02*
X106038095Y-70781009D01*
X106038095Y-70781009D02*
X105942857Y-70828628D01*
X105942857Y-70828628D02*
X105561905Y-70828628D01*
X106514286Y-70400057D02*
X106561905Y-70352438D01*
X106561905Y-70352438D02*
X106657143Y-70304819D01*
X106657143Y-70304819D02*
X106895238Y-70304819D01*
X106895238Y-70304819D02*
X106990476Y-70352438D01*
X106990476Y-70352438D02*
X107038095Y-70400057D01*
X107038095Y-70400057D02*
X107085714Y-70495295D01*
X107085714Y-70495295D02*
X107085714Y-70590533D01*
X107085714Y-70590533D02*
X107038095Y-70733390D01*
X107038095Y-70733390D02*
X106466667Y-71304819D01*
X106466667Y-71304819D02*
X107085714Y-71304819D01*
X109416667Y-72907200D02*
X109559524Y-72954819D01*
X109559524Y-72954819D02*
X109797619Y-72954819D01*
X109797619Y-72954819D02*
X109892857Y-72907200D01*
X109892857Y-72907200D02*
X109940476Y-72859580D01*
X109940476Y-72859580D02*
X109988095Y-72764342D01*
X109988095Y-72764342D02*
X109988095Y-72669104D01*
X109988095Y-72669104D02*
X109940476Y-72573866D01*
X109940476Y-72573866D02*
X109892857Y-72526247D01*
X109892857Y-72526247D02*
X109797619Y-72478628D01*
X109797619Y-72478628D02*
X109607143Y-72431009D01*
X109607143Y-72431009D02*
X109511905Y-72383390D01*
X109511905Y-72383390D02*
X109464286Y-72335771D01*
X109464286Y-72335771D02*
X109416667Y-72240533D01*
X109416667Y-72240533D02*
X109416667Y-72145295D01*
X109416667Y-72145295D02*
X109464286Y-72050057D01*
X109464286Y-72050057D02*
X109511905Y-72002438D01*
X109511905Y-72002438D02*
X109607143Y-71954819D01*
X109607143Y-71954819D02*
X109845238Y-71954819D01*
X109845238Y-71954819D02*
X109988095Y-72002438D01*
X110321429Y-71954819D02*
X110559524Y-72954819D01*
X110559524Y-72954819D02*
X110750000Y-72240533D01*
X110750000Y-72240533D02*
X110940476Y-72954819D01*
X110940476Y-72954819D02*
X111178572Y-71954819D01*
X112083333Y-72954819D02*
X111511905Y-72954819D01*
X111797619Y-72954819D02*
X111797619Y-71954819D01*
X111797619Y-71954819D02*
X111702381Y-72097676D01*
X111702381Y-72097676D02*
X111607143Y-72192914D01*
X111607143Y-72192914D02*
X111511905Y-72240533D01*
X99491905Y-72494819D02*
X99491905Y-71494819D01*
X99491905Y-71494819D02*
X99730000Y-71494819D01*
X99730000Y-71494819D02*
X99872857Y-71542438D01*
X99872857Y-71542438D02*
X99968095Y-71637676D01*
X99968095Y-71637676D02*
X100015714Y-71732914D01*
X100015714Y-71732914D02*
X100063333Y-71923390D01*
X100063333Y-71923390D02*
X100063333Y-72066247D01*
X100063333Y-72066247D02*
X100015714Y-72256723D01*
X100015714Y-72256723D02*
X99968095Y-72351961D01*
X99968095Y-72351961D02*
X99872857Y-72447200D01*
X99872857Y-72447200D02*
X99730000Y-72494819D01*
X99730000Y-72494819D02*
X99491905Y-72494819D01*
X101015714Y-72494819D02*
X100444286Y-72494819D01*
X100730000Y-72494819D02*
X100730000Y-71494819D01*
X100730000Y-71494819D02*
X100634762Y-71637676D01*
X100634762Y-71637676D02*
X100539524Y-71732914D01*
X100539524Y-71732914D02*
X100444286Y-71780533D01*
X94558095Y-41914819D02*
X94558095Y-42724342D01*
X94558095Y-42724342D02*
X94605714Y-42819580D01*
X94605714Y-42819580D02*
X94653333Y-42867200D01*
X94653333Y-42867200D02*
X94748571Y-42914819D01*
X94748571Y-42914819D02*
X94939047Y-42914819D01*
X94939047Y-42914819D02*
X95034285Y-42867200D01*
X95034285Y-42867200D02*
X95081904Y-42819580D01*
X95081904Y-42819580D02*
X95129523Y-42724342D01*
X95129523Y-42724342D02*
X95129523Y-41914819D01*
X95558095Y-42010057D02*
X95605714Y-41962438D01*
X95605714Y-41962438D02*
X95700952Y-41914819D01*
X95700952Y-41914819D02*
X95939047Y-41914819D01*
X95939047Y-41914819D02*
X96034285Y-41962438D01*
X96034285Y-41962438D02*
X96081904Y-42010057D01*
X96081904Y-42010057D02*
X96129523Y-42105295D01*
X96129523Y-42105295D02*
X96129523Y-42200533D01*
X96129523Y-42200533D02*
X96081904Y-42343390D01*
X96081904Y-42343390D02*
X95510476Y-42914819D01*
X95510476Y-42914819D02*
X96129523Y-42914819D01*
%TO.C,J6*%
D12*
X127610000Y-85040000D02*
X127610000Y-160780000D01*
X123990000Y-85040000D02*
X123990000Y-86280000D01*
X122990000Y-85040000D02*
X122990000Y-86280000D01*
X121690000Y-85040000D02*
X121690000Y-86280000D01*
X119570000Y-85040000D02*
X127610000Y-85040000D01*
X119570000Y-87860000D02*
X119570000Y-85040000D01*
X123990000Y-90040000D02*
X123990000Y-91348000D01*
X122990000Y-90040000D02*
X122990000Y-91348000D01*
X121690000Y-90040000D02*
X121690000Y-92617000D01*
X121690000Y-93703000D02*
X121690000Y-97617000D01*
X123990000Y-94972000D02*
X123990000Y-96348000D01*
X122990000Y-94972000D02*
X122990000Y-96348000D01*
X121690000Y-98703000D02*
X121690000Y-102617000D01*
X123990000Y-99972000D02*
X123990000Y-101348000D01*
X122990000Y-99972000D02*
X122990000Y-101348000D01*
X121690000Y-103703000D02*
X121690000Y-107617000D01*
X123990000Y-104972000D02*
X123990000Y-106348000D01*
X122990000Y-104972000D02*
X122990000Y-106348000D01*
X121690000Y-108703000D02*
X121690000Y-112617000D01*
X123990000Y-109972000D02*
X123990000Y-111348000D01*
X122990000Y-109972000D02*
X122990000Y-111348000D01*
X121690000Y-113703000D02*
X121690000Y-117617000D01*
X123990000Y-114972000D02*
X123990000Y-116348000D01*
X122990000Y-114972000D02*
X122990000Y-116348000D01*
X121690000Y-118703000D02*
X121690000Y-122617000D01*
X123990000Y-119972000D02*
X123990000Y-121348000D01*
X122990000Y-119972000D02*
X122990000Y-121348000D01*
X121690000Y-123703000D02*
X121690000Y-127617000D01*
X123990000Y-124972000D02*
X123990000Y-126348000D01*
X122990000Y-124972000D02*
X122990000Y-126348000D01*
X121690000Y-128703000D02*
X121690000Y-132617000D01*
X123990000Y-129972000D02*
X123990000Y-131348000D01*
X122990000Y-129972000D02*
X122990000Y-131348000D01*
X121690000Y-133703000D02*
X121690000Y-137617000D01*
X123990000Y-134972000D02*
X123990000Y-136348000D01*
X122990000Y-134972000D02*
X122990000Y-136348000D01*
X121690000Y-138703000D02*
X121690000Y-142617000D01*
X123990000Y-139972000D02*
X123990000Y-141348000D01*
X122990000Y-139972000D02*
X122990000Y-141348000D01*
X121690000Y-143703000D02*
X121690000Y-147617000D01*
X123990000Y-144972000D02*
X123990000Y-146348000D01*
X122990000Y-144972000D02*
X122990000Y-146348000D01*
X121690000Y-148703000D02*
X121690000Y-152617000D01*
X123990000Y-149972000D02*
X123990000Y-151348000D01*
X122990000Y-149972000D02*
X122990000Y-151348000D01*
X121690000Y-153703000D02*
X121690000Y-157617000D01*
X123990000Y-154972000D02*
X123990000Y-156348000D01*
X122990000Y-154972000D02*
X122990000Y-156348000D01*
X121690000Y-158703000D02*
X121690000Y-160780000D01*
X123990000Y-159972000D02*
X123990000Y-160780000D01*
X122990000Y-159972000D02*
X122990000Y-160780000D01*
X127610000Y-160780000D02*
X119570000Y-160780000D01*
X119570000Y-160780000D02*
X119570000Y-88460000D01*
X119570000Y-88160000D02*
X118960000Y-88600000D01*
X118960000Y-87720000D01*
X119570000Y-88160000D01*
G36*
X119570000Y-88160000D02*
G01*
X118960000Y-88600000D01*
X118960000Y-87720000D01*
X119570000Y-88160000D01*
G37*
%TO.C,J5*%
X94070000Y-161160000D02*
X94070000Y-85420000D01*
X97690000Y-161160000D02*
X97690000Y-159920000D01*
X98690000Y-161160000D02*
X98690000Y-159920000D01*
X99990000Y-161160000D02*
X99990000Y-159920000D01*
X102110000Y-161160000D02*
X94070000Y-161160000D01*
X102110000Y-158340000D02*
X102110000Y-161160000D01*
X97690000Y-156160000D02*
X97690000Y-154852000D01*
X98690000Y-156160000D02*
X98690000Y-154852000D01*
X99990000Y-156160000D02*
X99990000Y-153583000D01*
X99990000Y-152497000D02*
X99990000Y-148583000D01*
X97690000Y-151228000D02*
X97690000Y-149852000D01*
X98690000Y-151228000D02*
X98690000Y-149852000D01*
X99990000Y-147497000D02*
X99990000Y-143583000D01*
X97690000Y-146228000D02*
X97690000Y-144852000D01*
X98690000Y-146228000D02*
X98690000Y-144852000D01*
X99990000Y-142497000D02*
X99990000Y-138583000D01*
X97690000Y-141228000D02*
X97690000Y-139852000D01*
X98690000Y-141228000D02*
X98690000Y-139852000D01*
X99990000Y-137497000D02*
X99990000Y-133583000D01*
X97690000Y-136228000D02*
X97690000Y-134852000D01*
X98690000Y-136228000D02*
X98690000Y-134852000D01*
X99990000Y-132497000D02*
X99990000Y-128583000D01*
X97690000Y-131228000D02*
X97690000Y-129852000D01*
X98690000Y-131228000D02*
X98690000Y-129852000D01*
X99990000Y-127497000D02*
X99990000Y-123583000D01*
X97690000Y-126228000D02*
X97690000Y-124852000D01*
X98690000Y-126228000D02*
X98690000Y-124852000D01*
X99990000Y-122497000D02*
X99990000Y-118583000D01*
X97690000Y-121228000D02*
X97690000Y-119852000D01*
X98690000Y-121228000D02*
X98690000Y-119852000D01*
X99990000Y-117497000D02*
X99990000Y-113583000D01*
X97690000Y-116228000D02*
X97690000Y-114852000D01*
X98690000Y-116228000D02*
X98690000Y-114852000D01*
X99990000Y-112497000D02*
X99990000Y-108583000D01*
X97690000Y-111228000D02*
X97690000Y-109852000D01*
X98690000Y-111228000D02*
X98690000Y-109852000D01*
X99990000Y-107497000D02*
X99990000Y-103583000D01*
X97690000Y-106228000D02*
X97690000Y-104852000D01*
X98690000Y-106228000D02*
X98690000Y-104852000D01*
X99990000Y-102497000D02*
X99990000Y-98583000D01*
X97690000Y-101228000D02*
X97690000Y-99852000D01*
X98690000Y-101228000D02*
X98690000Y-99852000D01*
X99990000Y-97497000D02*
X99990000Y-93583000D01*
X97690000Y-96228000D02*
X97690000Y-94852000D01*
X98690000Y-96228000D02*
X98690000Y-94852000D01*
X99990000Y-92497000D02*
X99990000Y-88583000D01*
X97690000Y-91228000D02*
X97690000Y-89852000D01*
X98690000Y-91228000D02*
X98690000Y-89852000D01*
X99990000Y-87497000D02*
X99990000Y-85420000D01*
X97690000Y-86228000D02*
X97690000Y-85420000D01*
X98690000Y-86228000D02*
X98690000Y-85420000D01*
X94070000Y-85420000D02*
X102110000Y-85420000D01*
X102110000Y-85420000D02*
X102110000Y-157740000D01*
X102110000Y-158040000D02*
X102720000Y-157600000D01*
X102720000Y-158480000D01*
X102110000Y-158040000D01*
G36*
X102720000Y-158480000D02*
G01*
X102110000Y-158040000D01*
X102720000Y-157600000D01*
X102720000Y-158480000D01*
G37*
%TO.C,J2*%
X144220000Y-57430000D02*
X143610000Y-57870000D01*
X143610000Y-56990000D01*
X144220000Y-57430000D01*
G36*
X144220000Y-57430000D02*
G01*
X143610000Y-57870000D01*
X143610000Y-56990000D01*
X144220000Y-57430000D01*
G37*
X144220000Y-75050000D02*
X144220000Y-57730000D01*
X152260000Y-75050000D02*
X144220000Y-75050000D01*
X147640000Y-74242000D02*
X147640000Y-75050000D01*
X148640000Y-74242000D02*
X148640000Y-75050000D01*
X146340000Y-72973000D02*
X146340000Y-75050000D01*
X147640000Y-69242000D02*
X147640000Y-70618000D01*
X148640000Y-69242000D02*
X148640000Y-70618000D01*
X146340000Y-67973000D02*
X146340000Y-71887000D01*
X147640000Y-64242000D02*
X147640000Y-65618000D01*
X148640000Y-64242000D02*
X148640000Y-65618000D01*
X146340000Y-62973000D02*
X146340000Y-66887000D01*
X146340000Y-59310000D02*
X146340000Y-61887000D01*
X147640000Y-59310000D02*
X147640000Y-60618000D01*
X148640000Y-59310000D02*
X148640000Y-60618000D01*
X144220000Y-57130000D02*
X144220000Y-54310000D01*
X144220000Y-54310000D02*
X152260000Y-54310000D01*
X146340000Y-54310000D02*
X146340000Y-55550000D01*
X147640000Y-54310000D02*
X147640000Y-55550000D01*
X148640000Y-54310000D02*
X148640000Y-55550000D01*
X152260000Y-54310000D02*
X152260000Y-75050000D01*
%TO.C,J3*%
X152420000Y-105970000D02*
X153030000Y-105530000D01*
X153030000Y-106410000D01*
X152420000Y-105970000D01*
G36*
X153030000Y-106410000D02*
G01*
X152420000Y-105970000D01*
X153030000Y-105530000D01*
X153030000Y-106410000D01*
G37*
X152420000Y-88350000D02*
X152420000Y-105670000D01*
X144380000Y-88350000D02*
X152420000Y-88350000D01*
X149000000Y-89158000D02*
X149000000Y-88350000D01*
X148000000Y-89158000D02*
X148000000Y-88350000D01*
X150300000Y-90427000D02*
X150300000Y-88350000D01*
X149000000Y-94158000D02*
X149000000Y-92782000D01*
X148000000Y-94158000D02*
X148000000Y-92782000D01*
X150300000Y-95427000D02*
X150300000Y-91513000D01*
X149000000Y-99158000D02*
X149000000Y-97782000D01*
X148000000Y-99158000D02*
X148000000Y-97782000D01*
X150300000Y-100427000D02*
X150300000Y-96513000D01*
X150300000Y-104090000D02*
X150300000Y-101513000D01*
X149000000Y-104090000D02*
X149000000Y-102782000D01*
X148000000Y-104090000D02*
X148000000Y-102782000D01*
X152420000Y-106270000D02*
X152420000Y-109090000D01*
X152420000Y-109090000D02*
X144380000Y-109090000D01*
X150300000Y-109090000D02*
X150300000Y-107850000D01*
X149000000Y-109090000D02*
X149000000Y-107850000D01*
X148000000Y-109090000D02*
X148000000Y-107850000D01*
X144380000Y-109090000D02*
X144380000Y-88350000D01*
%TO.C,J8*%
X146545000Y-39107500D02*
X146105000Y-38497500D01*
X146985000Y-38497500D01*
X146545000Y-39107500D01*
G36*
X146545000Y-39107500D02*
G01*
X146105000Y-38497500D01*
X146985000Y-38497500D01*
X146545000Y-39107500D01*
G37*
X138805000Y-39107500D02*
X146245000Y-39107500D01*
X138805000Y-49147500D02*
X138805000Y-39107500D01*
X146845000Y-39107500D02*
X149205000Y-39107500D01*
X149205000Y-39107500D02*
X149205000Y-49147500D01*
X149205000Y-39727500D02*
X138805000Y-39727500D01*
X149205000Y-41227500D02*
X138805000Y-41227500D01*
X149205000Y-46127500D02*
X138805000Y-46127500D01*
X149205000Y-49147500D02*
X138805000Y-49147500D01*
%TO.C,J7*%
X78107500Y-49455000D02*
X77497500Y-49895000D01*
X77497500Y-49015000D01*
X78107500Y-49455000D01*
G36*
X78107500Y-49455000D02*
G01*
X77497500Y-49895000D01*
X77497500Y-49015000D01*
X78107500Y-49455000D01*
G37*
X78107500Y-57195000D02*
X78107500Y-49755000D01*
X88147500Y-57195000D02*
X78107500Y-57195000D01*
X78107500Y-49155000D02*
X78107500Y-46795000D01*
X78107500Y-46795000D02*
X88147500Y-46795000D01*
X78727500Y-46795000D02*
X78727500Y-57195000D01*
X80227500Y-46795000D02*
X80227500Y-57195000D01*
X85127500Y-46795000D02*
X85127500Y-57195000D01*
X88147500Y-46795000D02*
X88147500Y-57195000D01*
%TO.C,BZ1*%
X95600000Y-71000000D02*
G75*
G02*
X80400000Y-71000000I-7600000J0D01*
G01*
X80400000Y-71000000D02*
G75*
G02*
X95600000Y-71000000I7600000J0D01*
G01*
%TO.C,Q1*%
X102230000Y-64400000D02*
G75*
G02*
X104068478Y-68838478I0J-2600000D01*
G01*
X100391522Y-68838478D02*
G75*
G02*
X102230000Y-64399999I1838478J1838478D01*
G01*
X100430000Y-68850000D02*
X104030000Y-68850000D01*
%TO.C,R1*%
X109080000Y-66770000D02*
X112920000Y-66770000D01*
X109080000Y-64930000D02*
X112920000Y-64930000D01*
%TO.C,R2*%
X109080000Y-69920000D02*
X112920000Y-69920000D01*
X109080000Y-68080000D02*
X112920000Y-68080000D01*
%TO.C,SW1*%
X114250000Y-77500000D02*
X114250000Y-76000000D01*
X113000000Y-73500000D02*
X108500000Y-73500000D01*
X108500000Y-80000000D02*
X113000000Y-80000000D01*
X107250000Y-76000000D02*
X107250000Y-77500000D01*
%TO.C,D1*%
X101901437Y-76080000D02*
G75*
G02*
X98670000Y-76235516I-1671437J1080000D01*
G01*
X101270961Y-76080000D02*
G75*
G02*
X99189039Y-76080000I-1040961J1080000D01*
G01*
X99189039Y-73920000D02*
G75*
G02*
X101270961Y-73920000I1040961J-1080000D01*
G01*
X98670000Y-73764484D02*
G75*
G02*
X101901437Y-73920000I1560000J-1235516D01*
G01*
X98670000Y-76080000D02*
X98670000Y-76236000D01*
X98670000Y-73764000D02*
X98670000Y-73920000D01*
%TO.C,U2*%
X96742500Y-48500000D02*
X96132500Y-48940000D01*
X96132500Y-48060000D01*
X96742500Y-48500000D01*
G36*
X96742500Y-48500000D02*
G01*
X96132500Y-48940000D01*
X96132500Y-48060000D01*
X96742500Y-48500000D01*
G37*
X133762500Y-62360000D02*
X96742500Y-62360000D01*
X133762500Y-39640000D02*
X133762500Y-62360000D01*
X96742500Y-62360000D02*
X96742500Y-48796000D01*
X96742500Y-48204000D02*
X96742500Y-39640000D01*
X96742500Y-39640000D02*
X133762500Y-39640000D01*
%TD*%
M02*
