M48
; DRILL file KiCad 10.0.5 date 2026-09-24T22:54:25
; FORMAT={-:-/ absolute / metric / decimal}
; #@! TF.CreationDate,2026-09-24T22:54:25+05:30
; #@! TF.GenerationSoftware,Kicad,Pcbnew,10.0.5
; #@! TF.FileFunction,MixedPlating,1,2
FMAT,2
METRIC
; #@! TA.AperFunction,Plated,PTH,ViaDrill
T1C0.300
; #@! TA.AperFunction,Plated,PTH,ComponentDrill
T2C0.700
; #@! TA.AperFunction,Plated,PTH,ComponentDrill
T3C0.750
; #@! TA.AperFunction,Plated,PTH,ComponentDrill
T4C0.900
; #@! TA.AperFunction,Plated,PTH,ComponentDrill
T5C1.000
; #@! TA.AperFunction,Plated,PTH,ComponentDrill
T6C1.100
; #@! TA.AperFunction,Plated,PTH,ComponentDrill
T7C1.300
%
G90
G05
T1
X104.35Y-91.35
X108.73Y-149.18
T2
X108.46Y-65.85
X108.46Y-69.0
X113.54Y-65.85
X113.54Y-69.0
T3
X100.96Y-67.0
X102.23Y-67.0
X103.5Y-67.0
T4
X98.96Y-75.0
X101.5Y-75.0
T5
X84.2Y-71.0
X91.8Y-71.0
X100.712Y-48.5
X100.712Y-53.5
X129.792Y-43.5
X129.792Y-58.5
T6
X107.5Y-74.5
X107.5Y-79.0
X114.0Y-74.5
X114.0Y-79.0
T7
X82.828Y-49.455
X82.828Y-54.535
X98.19Y-88.04
X98.19Y-93.04
X98.19Y-98.04
X98.19Y-103.04
X98.19Y-108.04
X98.19Y-113.04
X98.19Y-118.04
X98.19Y-123.04
X98.19Y-128.04
X98.19Y-133.04
X98.19Y-138.04
X98.19Y-143.04
X98.19Y-148.04
X98.19Y-153.04
X98.19Y-158.04
X123.49Y-88.16
X123.49Y-93.16
X123.49Y-98.16
X123.49Y-103.16
X123.49Y-108.16
X123.49Y-113.16
X123.49Y-118.16
X123.49Y-123.16
X123.49Y-128.16
X123.49Y-133.16
X123.49Y-138.16
X123.49Y-143.16
X123.49Y-148.16
X123.49Y-153.16
X123.49Y-158.16
X141.465Y-43.828
X146.545Y-43.828
X148.14Y-57.43
X148.14Y-62.43
X148.14Y-67.43
X148.14Y-72.43
X148.5Y-90.97
X148.5Y-95.97
X148.5Y-100.97
X148.5Y-105.97
M30
