%TF.GenerationSoftware,KiCad,Pcbnew,10.0.5*%
%TF.CreationDate,2026-09-24T22:54:21+05:30*%
%TF.ProjectId,Water Level Indicator,57617465-7220-44c6-9576-656c20496e64,rev?*%
%TF.SameCoordinates,Original*%
%TF.FileFunction,Soldermask,Top*%
%TF.FilePolarity,Negative*%
%FSLAX46Y46*%
G04 Gerber Fmt 4.6, Leading zero omitted, Abs format (unit mm)*
G04 Created by KiCad (PCBNEW 10.0.5) date 2026-09-24 22:54:21*
%MOMM*%
%LPD*%
G01*
G04 APERTURE LIST*
G04 Aperture macros list*
%AMRoundRect*
0 Rectangle with rounded corners*
0 $1 Rounding radius*
0 $2 $3 $4 $5 $6 $7 $8 $9 X,Y pos of 4 corners*
0 Add a 4 corners polygon primitive as box body*
4,1,4,$2,$3,$4,$5,$6,$7,$8,$9,$2,$3,0*
0 Add four circle primitives for the rounded corners*
1,1,$1+$1,$2,$3*
1,1,$1+$1,$4,$5*
1,1,$1+$1,$6,$7*
1,1,$1+$1,$8,$9*
0 Add four rect primitives between the rounded corners*
20,1,$1+$1,$2,$3,$4,$5,0*
20,1,$1+$1,$4,$5,$6,$7,0*
20,1,$1+$1,$6,$7,$8,$9,0*
20,1,$1+$1,$8,$9,$2,$3,0*%
G04 Aperture macros list end*
%ADD10RoundRect,0.250001X-1.149999X1.149999X-1.149999X-1.149999X1.149999X-1.149999X1.149999X1.149999X0*%
%ADD11C,2.800000*%
%ADD12RoundRect,0.250001X1.149999X-1.149999X1.149999X1.149999X-1.149999X1.149999X-1.149999X-1.149999X0*%
%ADD13C,2.600000*%
%ADD14RoundRect,0.250000X1.050000X1.050000X-1.050000X1.050000X-1.050000X-1.050000X1.050000X-1.050000X0*%
%ADD15RoundRect,0.250000X-1.050000X1.050000X-1.050000X-1.050000X1.050000X-1.050000X1.050000X1.050000X0*%
%ADD16C,2.000000*%
%ADD17R,2.000000X2.000000*%
%ADD18O,1.050000X1.500000*%
%ADD19R,1.050000X1.500000*%
%ADD20C,1.400000*%
%ADD21C,1.800000*%
%ADD22R,1.800000X1.800000*%
%ADD23O,1.700000X2.000000*%
%ADD24RoundRect,0.250000X-0.600000X-0.750000X0.600000X-0.750000X0.600000X0.750000X-0.600000X0.750000X0*%
G04 APERTURE END LIST*
D10*
%TO.C,J6*%
X123490000Y-88160000D03*
D11*
X123490000Y-93160000D03*
X123490000Y-98160000D03*
X123490000Y-103160000D03*
X123490000Y-108160000D03*
X123490000Y-113160000D03*
X123490000Y-118160000D03*
X123490000Y-123160000D03*
X123490000Y-128160000D03*
X123490000Y-133160000D03*
X123490000Y-138160000D03*
X123490000Y-143160000D03*
X123490000Y-148160000D03*
X123490000Y-153160000D03*
X123490000Y-158160000D03*
%TD*%
D12*
%TO.C,J5*%
X98190000Y-158040000D03*
D11*
X98190000Y-153040000D03*
X98190000Y-148040000D03*
X98190000Y-143040000D03*
X98190000Y-138040000D03*
X98190000Y-133040000D03*
X98190000Y-128040000D03*
X98190000Y-123040000D03*
X98190000Y-118040000D03*
X98190000Y-113040000D03*
X98190000Y-108040000D03*
X98190000Y-103040000D03*
X98190000Y-98040000D03*
X98190000Y-93040000D03*
X98190000Y-88040000D03*
%TD*%
%TO.C,J2*%
X148140000Y-72430000D03*
X148140000Y-67430000D03*
X148140000Y-62430000D03*
D10*
X148140000Y-57430000D03*
%TD*%
D11*
%TO.C,J3*%
X148500000Y-90970000D03*
X148500000Y-95970000D03*
X148500000Y-100970000D03*
D12*
X148500000Y-105970000D03*
%TD*%
D13*
%TO.C,J8*%
X141465000Y-43827500D03*
D14*
X146545000Y-43827500D03*
%TD*%
D13*
%TO.C,J7*%
X82827500Y-54535000D03*
D15*
X82827500Y-49455000D03*
%TD*%
D16*
%TO.C,BZ1*%
X91800000Y-71000000D03*
D17*
X84200000Y-71000000D03*
%TD*%
D18*
%TO.C,Q1*%
X103500000Y-67000000D03*
X102230000Y-67000000D03*
D19*
X100960000Y-67000000D03*
%TD*%
D20*
%TO.C,R1*%
X113540000Y-65850000D03*
X108460000Y-65850000D03*
%TD*%
%TO.C,R2*%
X113540000Y-69000000D03*
X108460000Y-69000000D03*
%TD*%
D16*
%TO.C,SW1*%
X114000000Y-79000000D03*
X107500000Y-79000000D03*
X114000000Y-74500000D03*
X107500000Y-74500000D03*
%TD*%
D21*
%TO.C,D1*%
X101500000Y-75000000D03*
D22*
X98960000Y-75000000D03*
%TD*%
D23*
%TO.C,U2*%
X129792500Y-58500000D03*
X129792500Y-43500000D03*
X100712500Y-53500000D03*
D24*
X100712500Y-48500000D03*
%TD*%
M02*
